<svg width="78" height="30" viewBox="0 0 78 30" fill="none" xmlns="http://www.w3.org/2000/svg">
<path d="M36.94 14.86C37.6867 14.9933 38.32 15.3867 38.84 16.04C39.36 16.6933 39.62 17.4333 39.62 18.26C39.62 18.9667 39.4333 19.6067 39.06 20.18C38.7 20.74 38.1733 21.1867 37.48 21.52C36.7867 21.84 35.98 22 35.06 22H29.5V8.09998H34.8C35.7467 8.09998 36.56 8.25998 37.24 8.57998C37.92 8.89998 38.4333 9.33332 38.78 9.87998C39.1267 10.4133 39.3 11.0133 39.3 11.68C39.3 12.48 39.0867 13.1467 38.66 13.68C38.2333 14.2133 37.66 14.6067 36.94 14.86ZM31.78 13.94H34.6C35.3467 13.94 35.9267 13.7733 36.34 13.44C36.7667 13.0933 36.98 12.6 36.98 11.96C36.98 11.3333 36.7667 10.8467 36.34 10.5C35.9267 10.14 35.3467 9.95998 34.6 9.95998H31.78V13.94ZM34.86 20.14C35.6333 20.14 36.24 19.9533 36.68 19.58C37.12 19.2067 37.34 18.6867 37.34 18.02C37.34 17.34 37.1067 16.8 36.64 16.4C36.1733 16 35.5533 15.8 34.78 15.8H31.78V20.14H34.86Z" fill="#1A3EFB"/>
<path d="M41.3376 16.44C41.3376 15.3333 41.5642 14.3533 42.0176 13.5C42.4842 12.6467 43.1109 11.9867 43.8976 11.52C44.6976 11.04 45.5776 10.8 46.5376 10.8C47.4042 10.8 48.1576 10.9733 48.7976 11.32C49.4509 11.6533 49.9709 12.0733 50.3576 12.58V10.98H52.6576V22H50.3576V20.36C49.9709 20.88 49.4442 21.3133 48.7776 21.66C48.1109 22.0067 47.3509 22.18 46.4976 22.18C45.5509 22.18 44.6842 21.94 43.8976 21.46C43.1109 20.9667 42.4842 20.2867 42.0176 19.42C41.5642 18.54 41.3376 17.5467 41.3376 16.44ZM50.3576 16.48C50.3576 15.72 50.1976 15.06 49.8776 14.5C49.5709 13.94 49.1642 13.5133 48.6576 13.22C48.1509 12.9267 47.6042 12.78 47.0176 12.78C46.4309 12.78 45.8842 12.9267 45.3776 13.22C44.8709 13.5 44.4576 13.92 44.1376 14.48C43.8309 15.0267 43.6776 15.68 43.6776 16.44C43.6776 17.2 43.8309 17.8667 44.1376 18.44C44.4576 19.0133 44.8709 19.4533 45.3776 19.76C45.8976 20.0533 46.4442 20.2 47.0176 20.2C47.6042 20.2 48.1509 20.0533 48.6576 19.76C49.1642 19.4667 49.5709 19.04 49.8776 18.48C50.1976 17.9067 50.3576 17.24 50.3576 16.48Z" fill="#1A3EFB"/>
<path d="M54.8923 16.48C54.8923 15.3467 55.119 14.3533 55.5723 13.5C56.039 12.6333 56.679 11.9667 57.4923 11.5C58.3057 11.0333 59.239 10.8 60.2923 10.8C61.6257 10.8 62.7257 11.12 63.5923 11.76C64.4723 12.3867 65.0657 13.2867 65.3723 14.46H62.9123C62.7123 13.9133 62.3923 13.4867 61.9523 13.18C61.5123 12.8733 60.959 12.72 60.2923 12.72C59.359 12.72 58.6123 13.0533 58.0523 13.72C57.5057 14.3733 57.2323 15.2933 57.2323 16.48C57.2323 17.6667 57.5057 18.5933 58.0523 19.26C58.6123 19.9267 59.359 20.26 60.2923 20.26C61.6123 20.26 62.4857 19.68 62.9123 18.52H65.3723C65.0523 19.64 64.4523 20.5333 63.5723 21.2C62.6923 21.8533 61.599 22.18 60.2923 22.18C59.239 22.18 58.3057 21.9467 57.4923 21.48C56.679 21 56.039 20.3333 55.5723 19.48C55.119 18.6133 54.8923 17.6133 54.8923 16.48Z" fill="#1A3EFB"/>
<path d="M72.0045 16.4999L77.0845 21.9999H74.0045L69.9245 17.2599V21.9999H67.6445V7.19995H69.9245V15.7999L73.9245 10.9799H77.0845L72.0045 16.4999Z" fill="#1A3EFB"/>
<path fill-rule="evenodd" clip-rule="evenodd" d="M6.41436 16.3334L10.0406 19.9597L8.62638 21.3739L2.58594 15.3334L8.62638 9.29297L10.0406 10.7072L6.41436 14.3334H22.0002V16.3334H6.41436Z" fill="#1A3EFB"/>
</svg>
