<svg width="99" height="99" viewBox="0 0 99 99" fill="none" xmlns="http://www.w3.org/2000/svg">
<path d="M41 12C41 10.8954 41.8954 10 43 10H63.1909C64.2955 10 65.1909 10.8954 65.1909 12C65.1909 13.1046 64.2955 14 63.1909 14H61.3973L82.8305 74.3305C82.8505 74.3867 82.8678 74.4433 82.8825 74.5H88.8918C89.9963 74.5 90.8918 75.3954 90.8918 76.5C90.8918 77.6046 89.9963 78.5 88.8918 78.5H63.7009C62.5963 78.5 61.7009 77.6046 61.7009 76.5C61.7009 75.3954 62.5963 74.5 63.7009 74.5H68.6792L68.2168 73.1879C67.9414 72.4066 68.3515 71.55 69.1328 71.2746C69.9142 70.9992 70.7708 71.4094 71.0462 72.1907L71.8601 74.5H78.6458L57.1524 14H50.5363L51.175 15.8119C51.4503 16.5932 51.0402 17.4498 50.2589 17.7252C49.8248 17.8782 49.3675 17.8196 48.9995 17.6034L26.8143 75.7133C26.4203 76.7453 25.2644 77.2624 24.2325 76.8685C23.2006 76.4745 22.6834 75.3186 23.0774 74.2867L46.0936 14H43C41.8954 14 41 13.1046 41 12Z" fill="black"/>
<path d="M53.1295 21.3574C52.8541 20.576 51.9975 20.1659 51.2162 20.4413C50.4349 20.7167 50.0247 21.5733 50.3001 22.3546L51.9289 26.9758C52.2043 27.7571 53.0609 28.1673 53.8422 27.8919C54.6235 27.6165 55.0337 26.7599 54.7583 25.9786L53.1295 21.3574Z" fill="black"/>
<path d="M56.7128 31.524C56.4374 30.7427 55.5808 30.3326 54.7995 30.6079C54.0182 30.8833 53.608 31.74 53.8834 32.5213L55.5122 37.1425C55.7876 37.9238 56.6442 38.3339 57.4255 38.0586C58.2069 37.7832 58.617 36.9266 58.3416 36.1452L56.7128 31.524Z" fill="black"/>
<path d="M60.2962 41.6907C60.0208 40.9094 59.1642 40.4992 58.3828 40.7746C57.6015 41.05 57.1914 41.9066 57.4668 42.6879L59.0956 47.3091C59.3709 48.0905 60.2276 48.5006 61.0089 48.2252C61.7902 47.9498 62.2003 47.0932 61.9249 46.3119L60.2962 41.6907Z" fill="black"/>
<path d="M63.8795 51.8574C63.6041 51.076 62.7475 50.6659 61.9662 50.9413C61.1849 51.2167 60.7747 52.0733 61.0501 52.8546L62.6789 57.4758C62.9543 58.2571 63.8109 58.6673 64.5922 58.3919C65.3735 58.1165 65.7837 57.2599 65.5083 56.4786L63.8795 51.8574Z" fill="black"/>
<path d="M67.4628 62.024C67.1874 61.2427 66.3308 60.8326 65.5495 61.1079C64.7682 61.3833 64.358 62.24 64.6334 63.0213L66.2622 67.6425C66.5376 68.4238 67.3942 68.8339 68.1755 68.5586C68.9569 68.2832 69.367 67.4266 69.0916 66.6452L67.4628 62.024Z" fill="black"/>
<circle opacity="0.2" cx="26" cy="73" r="26" fill="#2F59F5"/>
<circle opacity="0.2" cx="26" cy="73" r="19.927" fill="#2F59F5"/>
<circle opacity="0.2" cx="26" cy="73" r="14" fill="#2F59F5"/>
<path d="M30.365 73C30.365 75.4107 28.4107 77.3649 26 77.3649C23.5893 77.3649 21.635 75.4107 21.635 73C21.635 70.5893 23.5893 68.635 26 68.635C28.4107 68.635 30.365 70.5893 30.365 73Z" fill="white"/>
<path fill-rule="evenodd" clip-rule="evenodd" d="M34.365 73C34.365 77.6198 30.6198 81.3649 26 81.3649C21.3802 81.3649 17.635 77.6198 17.635 73C17.635 68.3801 21.3802 64.635 26 64.635C30.6198 64.635 34.365 68.3801 34.365 73ZM26 77.3649C28.4107 77.3649 30.365 75.4107 30.365 73C30.365 70.5893 28.4107 68.635 26 68.635C23.5893 68.635 21.635 70.5893 21.635 73C21.635 75.4107 23.5893 77.3649 26 77.3649Z" fill="black" fill-opacity="0.88"/>
</svg>
