<svg width="98" height="98" viewBox="0 0 98 98" fill="none" xmlns="http://www.w3.org/2000/svg">
<path fill-rule="evenodd" clip-rule="evenodd" d="M50.6536 7.18677C51.6855 7.58073 52.2027 8.73665 51.8087 9.76857L22.8143 85.7139C22.4203 86.7458 21.2644 87.263 20.2325 86.869C19.2006 86.475 18.6834 85.3191 19.0774 84.2872L48.0718 8.34189C48.4658 7.30996 49.6217 6.7928 50.6536 7.18677Z" fill="black"/>
<path fill-rule="evenodd" clip-rule="evenodd" d="M56.7009 86.5005C56.7009 85.3959 57.5964 84.5005 58.7009 84.5005H83.8918C84.9964 84.5005 85.8918 85.3959 85.8918 86.5005C85.8918 87.6051 84.9964 88.5005 83.8918 88.5005H58.7009C57.5964 88.5005 56.7009 87.6051 56.7009 86.5005Z" fill="black"/>
<path fill-rule="evenodd" clip-rule="evenodd" d="M44.281 22.1143C45.3228 21.7471 46.4649 22.294 46.8321 23.3357L47.728 25.8774C48.0951 26.9191 47.5483 28.0613 46.5065 28.4285C45.4648 28.7957 44.3226 28.2488 43.9554 27.207L43.0596 24.6654C42.6924 23.6236 43.2393 22.4815 44.281 22.1143ZM47.6852 31.7726C48.7269 31.4054 49.8691 31.9523 50.2363 32.994L52.028 38.0774C52.3951 39.1191 51.8483 40.2613 50.8065 40.6285C49.7648 40.9957 48.6226 40.4488 48.2554 39.407L46.4638 34.3237C46.0966 33.282 46.6434 32.1398 47.6852 31.7726ZM51.9852 43.9726C53.0269 43.6054 54.1691 44.1523 54.5363 45.194L56.328 50.2774C56.6951 51.3191 56.1483 52.4613 55.1065 52.8285C54.0648 53.1957 52.9226 52.6488 52.5554 51.607L50.7638 46.5237C50.3966 45.482 50.9434 44.3398 51.9852 43.9726ZM56.2852 56.1726C57.3269 55.8054 58.4691 56.3523 58.8363 57.394L60.628 62.4774C60.9951 63.5191 60.4483 64.6613 59.4065 65.0285C58.3648 65.3957 57.2226 64.8488 56.8554 63.807L55.0638 58.7237C54.6966 57.6819 55.2434 56.5398 56.2852 56.1726ZM60.5852 68.3726C61.6269 68.0054 62.7691 68.5523 63.1363 69.594L64.928 74.6774C65.2951 75.7191 64.7483 76.8613 63.7065 77.2285C62.6648 77.5957 61.5226 77.0488 61.1554 76.007L59.3638 70.9237C58.9966 69.882 59.5434 68.7398 60.5852 68.3726ZM64.8852 80.5726C65.9269 80.2054 67.0691 80.7523 67.4363 81.794L68.3321 84.3357C68.6993 85.3775 68.1524 86.5196 67.1107 86.8868C66.0689 87.254 64.9268 86.7071 64.5596 85.6654L63.6638 83.1237C63.2966 82.082 63.8434 80.9398 64.8852 80.5726Z" fill="black"/>
<path fill-rule="evenodd" clip-rule="evenodd" d="M49.2763 7.11594C50.3172 6.74617 51.4607 7.29018 51.8305 8.33101L78.8305 84.331C79.2002 85.3718 78.6562 86.5154 77.6154 86.8851C76.5745 87.2549 75.431 86.7109 75.0613 85.6701L48.0613 9.67007C47.6915 8.62924 48.2355 7.48571 49.2763 7.11594Z" fill="black"/>
<path d="M25.7299 83.0005C25.7299 85.4112 23.7757 87.3654 21.365 87.3654C18.9543 87.3654 17 85.4112 17 83.0005C17 80.5898 18.9543 78.6355 21.365 78.6355C23.7757 78.6355 25.7299 80.5898 25.7299 83.0005Z" fill="white"/>
<path fill-rule="evenodd" clip-rule="evenodd" d="M29.7299 83.0005C29.7299 87.6203 25.9848 91.3654 21.365 91.3654C16.7451 91.3654 13 87.6203 13 83.0005C13 78.3806 16.7451 74.6355 21.365 74.6355C25.9848 74.6355 29.7299 78.3806 29.7299 83.0005ZM21.365 87.3654C23.7757 87.3654 25.7299 85.4112 25.7299 83.0005C25.7299 80.5898 23.7757 78.6355 21.365 78.6355C18.9543 78.6355 17 80.5898 17 83.0005C17 85.4112 18.9543 87.3654 21.365 87.3654Z" fill="black" fill-opacity="0.88"/>
</svg>
