<svg width="106" height="106" viewBox="0 0 106 106" fill="none" xmlns="http://www.w3.org/2000/svg">
<path fill-rule="evenodd" clip-rule="evenodd" d="M21.7308 4C10.2815 4 1 13.2815 1 24.7308V81.2692C1 92.7185 10.2815 102 21.7308 102H78.2692C89.7185 102 99 92.7185 99 81.2692V69.9615C99 69.8741 98.994 69.7881 98.9825 69.7038C102.195 68.8406 104.56 65.908 104.56 62.4231C104.56 58.2597 101.184 54.8846 97.0211 54.8846C92.8577 54.8846 89.4826 58.2597 89.4826 62.4231C89.4826 65.9738 91.9374 68.9511 95.2425 69.7505C95.2347 69.8198 95.2308 69.8902 95.2308 69.9615V81.2692C95.2308 90.6368 87.6368 98.2308 78.2692 98.2308H21.7308C12.3632 98.2308 4.76923 90.6368 4.76923 81.2692V24.7308C4.76923 15.3632 12.3632 7.76923 21.7308 7.76923H78.2692C87.6368 7.76923 95.2308 15.3632 95.2308 24.7308V40.9117L91.8519 37.5328C91.1159 36.7968 89.9226 36.7968 89.1866 37.5328C88.4506 38.2688 88.4506 39.462 89.1866 40.198L95.7828 46.7942C96.5188 47.5302 97.712 47.5302 98.448 46.7942L105.044 40.198C105.78 39.462 105.78 38.2688 105.044 37.5328C104.308 36.7968 103.115 36.7968 102.379 37.5328L99 40.9117V24.7308C99 13.2815 89.7185 4 78.2692 4H21.7308ZM100.79 62.4231C100.79 64.5048 99.1028 66.1923 97.0211 66.1923C94.9394 66.1923 93.2518 64.5048 93.2518 62.4231C93.2518 60.3414 94.9394 58.6538 97.0211 58.6538C99.1028 58.6538 100.79 60.3414 100.79 62.4231Z" fill="#1A3EFB"/>
<path fill-rule="evenodd" clip-rule="evenodd" d="M52.4323 19.1776C52.1013 18.2458 51.0776 17.7589 50.1458 18.0899C49.5629 18.297 49.154 18.7752 49.0107 19.3324L28.2304 73.7624C28.0135 73.7414 27.7935 73.7307 27.5711 73.7307C23.8252 73.7307 20.7886 76.7674 20.7886 80.5132C20.7886 84.2591 23.8252 87.2957 27.5711 87.2957C31.3169 87.2957 34.3536 84.2591 34.3536 80.5132C34.3536 78.2654 33.26 76.2729 31.576 75.0388L46.7143 35.3867C47.0798 35.572 47.5174 35.6134 47.9344 35.4664C48.7442 35.181 49.1693 34.293 48.8839 33.4832L48.1913 31.5181L50.6906 24.9716L70.6171 81.0608H65.6415C65.6281 81.0011 65.611 80.9416 65.5902 80.8824L64.8638 78.8216C64.5784 78.0117 63.6905 77.5866 62.8806 77.872C62.0707 78.1575 61.6456 79.0454 61.9311 79.8553L62.356 81.0608H57.8442C56.9855 81.0608 56.2894 81.7569 56.2894 82.6156C56.2894 83.4743 56.9855 84.1704 57.8442 84.1704H78.2695C79.1282 84.1704 79.8244 83.4743 79.8244 82.6156C79.8244 81.7569 79.1282 81.0608 78.2695 81.0608H74.3957C74.3788 80.9735 74.3551 80.8864 74.3244 80.8L52.4323 19.1776ZM31.1103 80.5132C31.1103 82.4679 29.5257 84.0524 27.5711 84.0524C25.6164 84.0524 24.0319 82.4679 24.0319 80.5132C24.0319 78.5586 25.6164 76.974 27.5711 76.974C29.5257 76.974 31.1103 78.5586 31.1103 80.5132Z" fill="black"/>
<path d="M48.9345 38.304C49.7443 38.0185 50.6323 38.4437 50.9177 39.2535L52.3704 43.3752C52.6559 44.1851 52.2308 45.073 51.4209 45.3584C50.611 45.6439 49.7231 45.2188 49.4377 44.4089L47.9849 40.2872C47.6995 39.4773 48.1246 38.5894 48.9345 38.304Z" fill="black"/>
<path d="M52.421 48.196C53.2309 47.9106 54.1188 48.3357 54.4042 49.1455L55.857 53.2672C56.1424 54.0771 55.7173 54.965 54.9074 55.2505C54.0976 55.5359 53.2096 55.1108 52.9242 54.3009L51.4715 50.1792C51.186 49.3694 51.6111 48.4814 52.421 48.196Z" fill="black"/>
<path d="M55.9075 58.088C56.7174 57.8026 57.6053 58.2277 57.8908 59.0376L59.3435 63.1592C59.6289 63.9691 59.2038 64.857 58.3939 65.1425C57.5841 65.4279 56.6962 65.0028 56.4107 64.1929L54.958 60.0713C54.6725 59.2614 55.0977 58.3735 55.9075 58.088Z" fill="black"/>
<path d="M59.3941 67.98C60.2039 67.6946 61.0919 68.1197 61.3773 68.9296L62.83 73.0513C63.1155 73.8611 62.6903 74.749 61.8805 75.0345C61.0706 75.3199 60.1827 74.8948 59.8972 74.0849L58.4445 69.9633C58.1591 69.1534 58.5842 68.2655 59.3941 67.98Z" fill="black"/>
</svg>
