<svg width="110" height="104" viewBox="0 0 110 104" fill="none" xmlns="http://www.w3.org/2000/svg">
<path fill-rule="evenodd" clip-rule="evenodd" d="M18 3.5C16.8883 3.5 15.8077 3.62482 14.7706 3.8606C13.9628 4.04426 13.159 3.53827 12.9754 2.73046C12.7917 1.92265 13.2977 1.1189 14.1055 0.935251C15.3593 0.650198 16.663 0.5 18 0.5H21.8857C22.7141 0.5 23.3857 1.17157 23.3857 2C23.3857 2.82843 22.7141 3.5 21.8857 3.5H18ZM26.2143 2C26.2143 1.17157 26.8859 0.5 27.7143 0.5H35.4857C36.3141 0.5 36.9857 1.17157 36.9857 2C36.9857 2.82843 36.3141 3.5 35.4857 3.5H27.7143C26.8859 3.5 26.2143 2.82843 26.2143 2ZM39.8143 2C39.8143 1.17157 40.4859 0.5 41.3143 0.5H49.0857C49.9141 0.5 50.5857 1.17157 50.5857 2C50.5857 2.82843 49.9141 3.5 49.0857 3.5H41.3143C40.4859 3.5 39.8143 2.82843 39.8143 2ZM53.4143 2C53.4143 1.17157 54.0859 0.5 54.9143 0.5H62.6857C63.5141 0.5 64.1857 1.17157 64.1857 2C64.1857 2.82843 63.5141 3.5 62.6857 3.5H54.9143C54.0859 3.5 53.4143 2.82843 53.4143 2ZM67.0143 2C67.0143 1.17157 67.6859 0.5 68.5143 0.5H76.2857C77.1141 0.5 77.7857 1.17157 77.7857 2C77.7857 2.82843 77.1141 3.5 76.2857 3.5H68.5143C67.6859 3.5 67.0143 2.82843 67.0143 2ZM80.6143 2C80.6143 1.17157 81.2859 0.5 82.1143 0.5H86C87.337 0.5 88.6407 0.650199 89.8945 0.935251C90.7023 1.1189 91.2083 1.92265 91.0246 2.73046C90.841 3.53827 90.0372 4.04426 89.2294 3.8606C88.1923 3.62482 87.1116 3.5 86 3.5H82.1143C81.2859 3.5 80.6143 2.82843 80.6143 2ZM10.7558 3.65132C11.1972 4.35236 10.9868 5.27849 10.2857 5.7199C8.44341 6.87992 6.87992 8.44341 5.7199 10.2857C5.27849 10.9868 4.35236 11.1972 3.65132 10.7558C2.95029 10.3144 2.73982 9.38828 3.18123 8.68725C4.58038 6.46515 6.46515 4.58038 8.68725 3.18123C9.38828 2.73982 10.3144 2.95029 10.7558 3.65132ZM93.2442 3.65132C93.6856 2.95029 94.6117 2.73982 95.3128 3.18123C97.5349 4.58038 99.4196 6.46515 100.819 8.68725C101.26 9.38828 101.05 10.3144 100.349 10.7558C99.6476 11.1972 98.7215 10.9868 98.2801 10.2857C97.1201 8.44341 95.5566 6.87992 93.7143 5.7199C93.0132 5.27849 92.8028 4.35236 93.2442 3.65132ZM101.27 12.9754C102.077 12.7917 102.881 13.2977 103.065 14.1055C103.35 15.3593 103.5 16.663 103.5 18V21.8857C103.5 22.7141 102.828 23.3857 102 23.3857C101.172 23.3857 100.5 22.7141 100.5 21.8857V18C100.5 16.8883 100.375 15.8077 100.139 14.7706C99.9557 13.9628 100.462 13.159 101.27 12.9754ZM2.73046 12.9754C3.53827 13.159 4.04426 13.9628 3.8606 14.7706C3.62482 15.8077 3.5 16.8884 3.5 18V21.8857C3.5 22.7141 2.82843 23.3857 2 23.3857C1.17157 23.3857 0.5 22.7141 0.5 21.8857V18C0.5 16.663 0.650199 15.3593 0.935251 14.1055C1.1189 13.2977 1.92265 12.7917 2.73046 12.9754ZM2 26.2143C2.82843 26.2143 3.5 26.8859 3.5 27.7143V35.4857C3.5 36.3141 2.82843 36.9857 2 36.9857C1.17157 36.9857 0.5 36.3141 0.5 35.4857V27.7143C0.5 26.8859 1.17157 26.2143 2 26.2143ZM2 39.8143C2.82843 39.8143 3.5 40.4859 3.5 41.3143V49.0857C3.5 49.9141 2.82843 50.5857 2 50.5857C1.17157 50.5857 0.5 49.9141 0.5 49.0857V41.3143C0.5 40.4859 1.17157 39.8143 2 39.8143ZM2 53.4143C2.82843 53.4143 3.5 54.0859 3.5 54.9143V62.6857C3.5 63.5141 2.82843 64.1857 2 64.1857C1.17157 64.1857 0.5 63.5141 0.5 62.6857V54.9143C0.5 54.0859 1.17157 53.4143 2 53.4143ZM2 67.0143C2.82843 67.0143 3.5 67.6859 3.5 68.5143V76.2857C3.5 77.1141 2.82843 77.7857 2 77.7857C1.17157 77.7857 0.5 77.1141 0.5 76.2857V68.5143C0.5 67.6859 1.17157 67.0143 2 67.0143ZM102 80.6143C102.828 80.6143 103.5 81.2859 103.5 82.1143V86C103.5 87.337 103.35 88.6407 103.065 89.8945C102.881 90.7023 102.077 91.2083 101.27 91.0246C100.462 90.841 99.9557 90.0372 100.139 89.2294C100.375 88.1923 100.5 87.1116 100.5 86V82.1143C100.5 81.2859 101.172 80.6143 102 80.6143ZM2 80.6143C2.82843 80.6143 3.5 81.2859 3.5 82.1143V86C3.5 87.1116 3.62482 88.1923 3.8606 89.2294C4.04426 90.0372 3.53827 90.841 2.73046 91.0246C1.92265 91.2083 1.1189 90.7023 0.935251 89.8945C0.650198 88.6407 0.5 87.337 0.5 86V82.1143C0.5 81.2859 1.17157 80.6143 2 80.6143ZM3.65132 93.2442C4.35236 92.8028 5.27849 93.0132 5.7199 93.7143C6.87992 95.5566 8.44341 97.1201 10.2857 98.2801C10.9868 98.7215 11.1972 99.6476 10.7558 100.349C10.3144 101.05 9.38828 101.26 8.68725 100.819C6.46515 99.4196 4.58038 97.5349 3.18123 95.3128C2.73982 94.6117 2.95029 93.6856 3.65132 93.2442ZM100.349 93.2442C101.05 93.6856 101.26 94.6117 100.819 95.3128C99.4196 97.5349 97.5349 99.4196 95.3128 100.819C94.6117 101.26 93.6856 101.05 93.2442 100.349C92.8028 99.6476 93.0132 98.7215 93.7143 98.2801C95.5566 97.1201 97.1201 95.5566 98.2801 93.7143C98.7215 93.0132 99.6476 92.8028 100.349 93.2442ZM12.9754 101.27C13.159 100.462 13.9628 99.9557 14.7706 100.139C15.8077 100.375 16.8884 100.5 18 100.5H21.8857C22.7141 100.5 23.3857 101.172 23.3857 102C23.3857 102.828 22.7141 103.5 21.8857 103.5H18C16.663 103.5 15.3593 103.35 14.1055 103.065C13.2977 102.881 12.7917 102.077 12.9754 101.27ZM91.0246 101.27C91.2083 102.077 90.7023 102.881 89.8945 103.065C88.6407 103.35 87.337 103.5 86 103.5H82.1143C81.2859 103.5 80.6143 102.828 80.6143 102C80.6143 101.172 81.2859 100.5 82.1143 100.5H86C87.1116 100.5 88.1923 100.375 89.2294 100.139C90.0372 99.9557 90.841 100.462 91.0246 101.27ZM26.2143 102C26.2143 101.172 26.8859 100.5 27.7143 100.5H35.4857C36.3141 100.5 36.9857 101.172 36.9857 102C36.9857 102.828 36.3141 103.5 35.4857 103.5H27.7143C26.8859 103.5 26.2143 102.828 26.2143 102ZM39.8143 102C39.8143 101.172 40.4859 100.5 41.3143 100.5H49.0857C49.9141 100.5 50.5857 101.172 50.5857 102C50.5857 102.828 49.9141 103.5 49.0857 103.5H41.3143C40.4859 103.5 39.8143 102.828 39.8143 102ZM53.4143 102C53.4143 101.172 54.0859 100.5 54.9143 100.5H62.6857C63.5141 100.5 64.1857 101.172 64.1857 102C64.1857 102.828 63.5141 103.5 62.6857 103.5H54.9143C54.0859 103.5 53.4143 102.828 53.4143 102ZM67.0143 102C67.0143 101.172 67.6859 100.5 68.5143 100.5H76.2857C77.1141 100.5 77.7857 101.172 77.7857 102C77.7857 102.828 77.1141 103.5 76.2857 103.5H68.5143C67.6859 103.5 67.0143 102.828 67.0143 102Z" fill="#1A3EFB"/>
<circle cx="102" cy="66" r="5.5" fill="white" stroke="black" stroke-width="3"/>
<path fill-rule="evenodd" clip-rule="evenodd" d="M49.437 17.3753C50.1525 15.5288 52.7711 15.5458 53.4626 17.4013L77.2353 81.1915C77.9889 83.2137 79.9198 84.5547 82.0779 84.5547H83.3216H85.0442C85.9955 84.5547 86.7668 85.326 86.7668 86.2774C86.7668 87.2287 85.9955 88 85.0442 88H83.3216H82.0779H57.9126C56.9612 88 56.19 87.2287 56.19 86.2774C56.19 85.326 56.9612 84.5547 57.9126 84.5547H59.6228C63.1126 84.5547 65.565 81.1828 64.5735 77.9026L47.4807 31.959L28.3211 81.4032C28.0456 82.3802 28.0387 83.0123 28.1201 83.4027C28.2054 83.8116 28.3982 84.0236 28.6793 84.1808C28.9134 84.3117 29.2204 84.4066 29.5924 84.4686H33.366C34.3173 84.4686 35.0886 85.2399 35.0886 86.1912C35.0886 87.1426 34.3173 87.9139 33.366 87.9139H32.3046C32.2289 87.9241 32.1516 87.9293 32.0731 87.9293H18.7226C17.7713 87.9293 17 87.1581 17 86.2067C17 85.2553 17.7713 84.484 18.7226 84.484H19.3525C19.4282 84.4739 19.5055 84.4686 19.584 84.4686H21.2625C22.1323 84.403 22.7461 84.1309 23.2276 83.7139C23.6163 83.3774 23.99 82.8845 24.3282 82.1721L24.7944 80.969C24.8057 80.9335 24.8169 80.8976 24.8281 80.8614L24.8353 80.8636L49.437 17.3753ZM49.3562 27.1191L67.6949 76.3819C67.7458 76.5188 67.7931 76.6559 67.8367 76.7931L69.4767 81.2014L69.4775 81.2033C70.2344 83.2193 72.1621 84.5547 74.3156 84.5547H75.1867C74.7 83.9058 74.3 83.1811 74.0069 82.3946L51.4213 21.7898L49.3562 27.1191ZM66.5135 84.5547C66.6756 84.3383 66.8277 84.1144 66.9691 83.8838C67.1108 84.1155 67.2628 84.3393 67.4244 84.5547H66.5135Z" fill="black"/>
<path d="M95 45L102 52L108.5 45" stroke="black" stroke-width="3" stroke-linecap="round" stroke-linejoin="round"/>
<path d="M102 50V34" stroke="black" stroke-width="3" stroke-linecap="round"/>
</svg>
