<svg width="80" height="80" viewBox="0 0 80 80" fill="none" xmlns="http://www.w3.org/2000/svg">
<path fill-rule="evenodd" clip-rule="evenodd" d="M16.4005 3.01892C7.75953 3.01892 0.754639 10.0238 0.754639 18.6648V61.3353C0.754639 69.9763 7.75953 76.9812 16.4005 76.9812H59.071C67.712 76.9812 74.7169 69.9763 74.7169 61.3353V52.8012C74.7169 52.7352 74.7124 52.6703 74.7037 52.6067C77.1281 51.9552 78.9128 49.7419 78.9128 47.1118C78.9128 43.9696 76.3655 41.4224 73.2234 41.4224C70.0812 41.4224 67.534 43.9696 67.534 47.1118C67.534 49.7916 69.3867 52.0386 71.881 52.6419C71.8752 52.6942 71.8722 52.7474 71.8722 52.8012V61.3353C71.8722 68.4052 66.1409 74.1365 59.071 74.1365H16.4005C9.33062 74.1365 3.59934 68.4052 3.59934 61.3353V18.6648C3.59934 11.5949 9.33062 5.86362 16.4005 5.86362H59.071C66.1409 5.86362 71.8722 11.5949 71.8722 18.6648V30.8768L69.3221 28.3267C68.7666 27.7712 67.866 27.7712 67.3106 28.3267C66.7551 28.8821 66.7551 29.7827 67.3106 30.3382L72.2888 35.3164C72.8443 35.8719 73.7448 35.8719 74.3003 35.3164L79.2785 30.3382C79.834 29.7827 79.834 28.8821 79.2785 28.3267C78.7231 27.7712 77.8225 27.7712 77.267 28.3267L74.7169 30.8768V18.6648C74.7169 10.0238 67.712 3.01892 59.071 3.01892H16.4005ZM76.0681 47.1118C76.0681 48.6829 74.7945 49.9565 73.2234 49.9565C71.6523 49.9565 70.3787 48.6829 70.3787 47.1118C70.3787 45.5407 71.6523 44.2671 73.2234 44.2671C74.7945 44.2671 76.0681 45.5407 76.0681 47.1118Z" fill="#1A3EFB"/>
<path fill-rule="evenodd" clip-rule="evenodd" d="M39.5712 14.4737C39.3214 13.7705 38.5488 13.403 37.8456 13.6528C37.4057 13.8091 37.0971 14.17 36.9889 14.5906L21.3057 55.6698C21.1419 55.654 20.976 55.6459 20.8081 55.6459C17.981 55.6459 15.6892 57.9377 15.6892 60.7648C15.6892 63.5918 17.981 65.8836 20.8081 65.8836C23.6351 65.8836 25.9269 63.5918 25.9269 60.7648C25.9269 59.0683 25.1016 57.5645 23.8306 56.6331L35.2558 26.707C35.5316 26.8468 35.8619 26.8781 36.1766 26.7672C36.7878 26.5517 37.1087 25.8816 36.8932 25.2704L36.3705 23.7873L38.2568 18.8465L53.2956 61.178H49.5405C49.5304 61.133 49.5175 61.088 49.5018 61.0434L48.9536 59.4881C48.7381 58.8768 48.068 58.556 47.4568 58.7714C46.8456 58.9869 46.5247 59.657 46.7401 60.2682L47.0608 61.178H43.6558C43.0077 61.178 42.4823 61.7034 42.4823 62.3515C42.4823 62.9995 43.0077 63.5249 43.6558 63.5249H59.0711C59.7191 63.5249 60.2445 62.9995 60.2445 62.3515C60.2445 61.7034 59.7191 61.178 59.0711 61.178H56.1474C56.1346 61.1121 56.1168 61.0464 56.0936 60.9812L39.5712 14.4737ZM23.4792 60.7648C23.4792 62.24 22.2833 63.4359 20.8081 63.4359C19.3329 63.4359 18.137 62.24 18.137 60.7648C18.137 59.2896 19.3329 58.0937 20.8081 58.0937C22.2833 58.0937 23.4792 59.2896 23.4792 60.7648Z" fill="black"/>
<path d="M36.9314 28.9087C37.5426 28.6933 38.2128 29.0141 38.4282 29.6254L39.5246 32.7361C39.74 33.3473 39.4192 34.0174 38.8079 34.2328C38.1967 34.4483 37.5266 34.1274 37.3112 33.5162L36.2148 30.4055C35.9993 29.7943 36.3202 29.1242 36.9314 28.9087Z" fill="black"/>
<path d="M39.5627 36.3744C40.174 36.159 40.8441 36.4798 41.0595 37.091L42.1559 40.2017C42.3713 40.813 42.0505 41.4831 41.4393 41.6985C40.8281 41.9139 40.1579 41.5931 39.9425 40.9819L38.8461 37.8712C38.6307 37.26 38.9515 36.5898 39.5627 36.3744Z" fill="black"/>
<path d="M42.1941 43.8401C42.8053 43.6246 43.4754 43.9455 43.6909 44.5567L44.7873 47.6674C45.0027 48.2786 44.6818 48.9488 44.0706 49.1642C43.4594 49.3796 42.7893 49.0588 42.5738 48.4476L41.4774 45.3369C41.262 44.7256 41.5829 44.0555 42.1941 43.8401Z" fill="black"/>
<path d="M44.8254 51.3057C45.4367 51.0903 46.1068 51.4112 46.3222 52.0224L47.4186 55.1331C47.634 55.7443 47.3132 56.4144 46.702 56.6299C46.0907 56.8453 45.4206 56.5244 45.2052 55.9132L44.1088 52.8025C43.8934 52.1913 44.2142 51.5212 44.8254 51.3057Z" fill="black"/>
</svg>
