<svg width="40" height="40" viewBox="0 0 40 40" fill="none" xmlns="http://www.w3.org/2000/svg">
<circle cx="20" cy="20" r="19" fill="white" stroke="#E9E9E9" stroke-width="2"/>
<path fill-rule="evenodd" clip-rule="evenodd" d="M21 10C21 9.44772 20.5523 9 20 9C19.4477 9 19 9.44772 19 10V19H10C9.44771 19 9 19.4477 9 20C9 20.5523 9.44771 21 10 21H19V30C19 30.5523 19.4477 31 20 31C20.5523 31 21 30.5523 21 30V21H30C30.5523 21 31 20.5523 31 20C31 19.4477 30.5523 19 30 19H21V10Z" fill="#0029FA"/>
</svg>
