<svg width="457" height="220" viewBox="0 0 457 220" fill="none" xmlns="http://www.w3.org/2000/svg">
<rect x="1" y="1" width="455" height="218" rx="15" fill="white" stroke="#E9E9E9" stroke-width="2"/>
<path d="M76.016 178.112H78.944V179H74.924V170.636H76.016V178.112ZM82.9717 179.108C82.3557 179.108 81.7957 178.968 81.2917 178.688C80.7957 178.408 80.4037 178.012 80.1157 177.5C79.8357 176.98 79.6957 176.38 79.6957 175.7C79.6957 175.028 79.8397 174.436 80.1277 173.924C80.4237 173.404 80.8237 173.008 81.3277 172.736C81.8317 172.456 82.3957 172.316 83.0197 172.316C83.6437 172.316 84.2077 172.456 84.7117 172.736C85.2157 173.008 85.6117 173.4 85.8997 173.912C86.1957 174.424 86.3437 175.02 86.3437 175.7C86.3437 176.38 86.1917 176.98 85.8877 177.5C85.5917 178.012 85.1877 178.408 84.6757 178.688C84.1637 178.968 83.5957 179.108 82.9717 179.108ZM82.9717 178.148C83.3637 178.148 83.7317 178.056 84.0757 177.872C84.4197 177.688 84.6957 177.412 84.9037 177.044C85.1197 176.676 85.2277 176.228 85.2277 175.7C85.2277 175.172 85.1237 174.724 84.9157 174.356C84.7077 173.988 84.4357 173.716 84.0997 173.54C83.7637 173.356 83.3997 173.264 83.0077 173.264C82.6077 173.264 82.2397 173.356 81.9037 173.54C81.5757 173.716 81.3117 173.988 81.1117 174.356C80.9117 174.724 80.8117 175.172 80.8117 175.7C80.8117 176.236 80.9077 176.688 81.0997 177.056C81.2997 177.424 81.5637 177.7 81.8917 177.884C82.2197 178.06 82.5797 178.148 82.9717 178.148ZM90.4915 172.316C91.0595 172.316 91.5555 172.44 91.9795 172.688C92.4115 172.936 92.7315 173.248 92.9395 173.624V172.424H94.0435V179.144C94.0435 179.744 93.9155 180.276 93.6595 180.74C93.4035 181.212 93.0355 181.58 92.5555 181.844C92.0835 182.108 91.5315 182.24 90.8995 182.24C90.0355 182.24 89.3155 182.036 88.7395 181.628C88.1635 181.22 87.8235 180.664 87.7195 179.96H88.7995C88.9195 180.36 89.1675 180.68 89.5435 180.92C89.9195 181.168 90.3715 181.292 90.8995 181.292C91.4995 181.292 91.9875 181.104 92.3635 180.728C92.7475 180.352 92.9395 179.824 92.9395 179.144V177.764C92.7235 178.148 92.4035 178.468 91.9795 178.724C91.5555 178.98 91.0595 179.108 90.4915 179.108C89.9075 179.108 89.3755 178.964 88.8955 178.676C88.4235 178.388 88.0515 177.984 87.7795 177.464C87.5075 176.944 87.3715 176.352 87.3715 175.688C87.3715 175.016 87.5075 174.428 87.7795 173.924C88.0515 173.412 88.4235 173.016 88.8955 172.736C89.3755 172.456 89.9075 172.316 90.4915 172.316ZM92.9395 175.7C92.9395 175.204 92.8395 174.772 92.6395 174.404C92.4395 174.036 92.1675 173.756 91.8235 173.564C91.4875 173.364 91.1155 173.264 90.7075 173.264C90.2995 173.264 89.9275 173.36 89.5915 173.552C89.2555 173.744 88.9875 174.024 88.7875 174.392C88.5875 174.76 88.4875 175.192 88.4875 175.688C88.4875 176.192 88.5875 176.632 88.7875 177.008C88.9875 177.376 89.2555 177.66 89.5915 177.86C89.9275 178.052 90.2995 178.148 90.7075 178.148C91.1155 178.148 91.4875 178.052 91.8235 177.86C92.1675 177.66 92.4395 177.376 92.6395 177.008C92.8395 176.632 92.9395 176.196 92.9395 175.7ZM98.7568 179.108C98.1408 179.108 97.5808 178.968 97.0768 178.688C96.5808 178.408 96.1888 178.012 95.9008 177.5C95.6208 176.98 95.4808 176.38 95.4808 175.7C95.4808 175.028 95.6248 174.436 95.9128 173.924C96.2088 173.404 96.6088 173.008 97.1128 172.736C97.6168 172.456 98.1808 172.316 98.8048 172.316C99.4288 172.316 99.9928 172.456 100.497 172.736C101.001 173.008 101.397 173.4 101.685 173.912C101.981 174.424 102.129 175.02 102.129 175.7C102.129 176.38 101.977 176.98 101.673 177.5C101.377 178.012 100.973 178.408 100.461 178.688C99.9488 178.968 99.3808 179.108 98.7568 179.108ZM98.7568 178.148C99.1488 178.148 99.5168 178.056 99.8608 177.872C100.205 177.688 100.481 177.412 100.689 177.044C100.905 176.676 101.013 176.228 101.013 175.7C101.013 175.172 100.909 174.724 100.701 174.356C100.493 173.988 100.221 173.716 99.8848 173.54C99.5488 173.356 99.1848 173.264 98.7928 173.264C98.3928 173.264 98.0248 173.356 97.6888 173.54C97.3608 173.716 97.0968 173.988 96.8968 174.356C96.6968 174.724 96.5968 175.172 96.5968 175.7C96.5968 176.236 96.6928 176.688 96.8848 177.056C97.0848 177.424 97.3488 177.7 97.6768 177.884C98.0048 178.06 98.3648 178.148 98.7568 178.148Z" fill="black"/>
<circle cx="50" cy="175" r="16" fill="#1A3EFB"/>
<path d="M44.5 179.301C44.5 180.383 45.0064 181.306 46.0193 182.068C46.8297 182.653 47.7758 182.963 48.8578 182.997C48.9682 183 49.0578 182.91 49.0578 182.8V181.335C49.0578 181.225 48.9678 181.136 48.8574 181.132C47.4305 181.086 46.58 180.536 46.3059 179.481C46.2486 179.261 46.2199 179.04 46.2199 178.82V177.857C46.239 177.396 46.3537 177.055 46.5639 176.835C46.8506 176.534 47.9876 176.143 49.9751 175.662C51.5803 175.261 52.6505 174.92 53.1856 174.639V178.429C53.1856 180.093 52.3925 180.985 50.8064 181.105C50.7468 181.114 50.6892 181.121 50.6334 181.126C50.5234 181.136 50.4337 181.225 50.4337 181.335V182.8C50.4337 182.91 50.5235 183 50.6339 182.997C51.8953 182.965 52.8892 182.625 53.6156 181.977C53.6347 181.957 53.6538 181.937 53.6729 181.917C54.1668 182.584 54.8072 182.942 55.5941 182.994C55.7044 183.001 55.7941 182.91 55.7941 182.8V181.289C55.7941 181.185 55.7132 181.102 55.6132 181.073C55.2535 180.971 55.0654 180.65 55.0488 180.113V175.902V171.692C55.0488 170.348 54.5711 169.206 53.6156 168.263C52.8015 167.466 51.8075 167.046 50.6338 167.004C50.5234 167 50.4337 167.09 50.4337 167.2V168.605C50.4337 168.715 50.5235 168.804 50.6337 168.811C51.4585 168.866 52.1276 169.265 52.6409 170.008C52.9849 170.509 53.1569 171.08 53.1569 171.722V172.263C53.176 172.764 52.0199 173.326 49.6884 173.947C47.5099 174.529 46.2581 174.91 45.9333 175.09C44.9969 175.652 44.5191 176.584 44.5 177.887V179.301ZM44.7004 170.869C44.6991 170.948 44.7484 171.02 44.8222 171.05L46.1162 171.579C46.2478 171.633 46.3922 171.536 46.403 171.394C46.4789 170.403 46.9434 169.67 47.7965 169.195C48.139 169.007 48.5024 168.899 48.8866 168.872C48.9968 168.864 49.0864 168.775 49.0864 168.665V167.2C49.0864 167.09 48.9967 167 48.8864 167.004C47.6728 167.051 46.6311 167.531 45.7613 168.444C45.069 169.17 44.7154 169.978 44.7004 170.869Z" fill="white"/>
<path d="M173.436 170.636L171.012 179H169.788L167.844 172.268L165.828 179L164.616 179.012L162.276 170.636H163.44L165.264 177.728L167.28 170.636H168.504L170.424 177.704L172.26 170.636H173.436ZM180.631 175.46C180.631 175.668 180.619 175.888 180.595 176.12H175.339C175.379 176.768 175.599 177.276 175.999 177.644C176.407 178.004 176.899 178.184 177.475 178.184C177.947 178.184 178.339 178.076 178.651 177.86C178.971 177.636 179.195 177.34 179.323 176.972H180.499C180.323 177.604 179.971 178.12 179.443 178.52C178.915 178.912 178.259 179.108 177.475 179.108C176.851 179.108 176.291 178.968 175.795 178.688C175.307 178.408 174.923 178.012 174.643 177.5C174.363 176.98 174.223 176.38 174.223 175.7C174.223 175.02 174.359 174.424 174.631 173.912C174.903 173.4 175.283 173.008 175.771 172.736C176.267 172.456 176.835 172.316 177.475 172.316C178.099 172.316 178.651 172.452 179.131 172.724C179.611 172.996 179.979 173.372 180.235 173.852C180.499 174.324 180.631 174.86 180.631 175.46ZM179.503 175.232C179.503 174.816 179.411 174.46 179.227 174.164C179.043 173.86 178.791 173.632 178.471 173.48C178.159 173.32 177.811 173.24 177.427 173.24C176.875 173.24 176.403 173.416 176.011 173.768C175.627 174.12 175.407 174.608 175.351 175.232H179.503ZM183.164 173.648C183.388 173.256 183.716 172.936 184.148 172.688C184.58 172.44 185.072 172.316 185.624 172.316C186.216 172.316 186.748 172.456 187.22 172.736C187.692 173.016 188.064 173.412 188.336 173.924C188.608 174.428 188.744 175.016 188.744 175.688C188.744 176.352 188.608 176.944 188.336 177.464C188.064 177.984 187.688 178.388 187.208 178.676C186.736 178.964 186.208 179.108 185.624 179.108C185.056 179.108 184.556 178.984 184.124 178.736C183.7 178.488 183.38 178.172 183.164 177.788V179H182.072V170.12H183.164V173.648ZM187.628 175.688C187.628 175.192 187.528 174.76 187.328 174.392C187.128 174.024 186.856 173.744 186.512 173.552C186.176 173.36 185.804 173.264 185.396 173.264C184.996 173.264 184.624 173.364 184.28 173.564C183.944 173.756 183.672 174.04 183.464 174.416C183.264 174.784 183.164 175.212 183.164 175.7C183.164 176.196 183.264 176.632 183.464 177.008C183.672 177.376 183.944 177.66 184.28 177.86C184.624 178.052 184.996 178.148 185.396 178.148C185.804 178.148 186.176 178.052 186.512 177.86C186.856 177.66 187.128 177.376 187.328 177.008C187.528 176.632 187.628 176.192 187.628 175.688ZM192.51 179.108C192.006 179.108 191.554 179.024 191.154 178.856C190.754 178.68 190.438 178.44 190.206 178.136C189.974 177.824 189.846 177.468 189.822 177.068H190.95C190.982 177.396 191.134 177.664 191.406 177.872C191.686 178.08 192.05 178.184 192.498 178.184C192.914 178.184 193.242 178.092 193.482 177.908C193.722 177.724 193.842 177.492 193.842 177.212C193.842 176.924 193.714 176.712 193.458 176.576C193.202 176.432 192.806 176.292 192.27 176.156C191.782 176.028 191.382 175.9 191.07 175.772C190.766 175.636 190.502 175.44 190.278 175.184C190.062 174.92 189.954 174.576 189.954 174.152C189.954 173.816 190.054 173.508 190.254 173.228C190.454 172.948 190.738 172.728 191.106 172.568C191.474 172.4 191.894 172.316 192.366 172.316C193.094 172.316 193.682 172.5 194.13 172.868C194.578 173.236 194.818 173.74 194.85 174.38H193.758C193.734 174.036 193.594 173.76 193.338 173.552C193.09 173.344 192.754 173.24 192.33 173.24C191.938 173.24 191.626 173.324 191.394 173.492C191.162 173.66 191.046 173.88 191.046 174.152C191.046 174.368 191.114 174.548 191.25 174.692C191.394 174.828 191.57 174.94 191.778 175.028C191.994 175.108 192.29 175.2 192.666 175.304C193.138 175.432 193.522 175.56 193.818 175.688C194.114 175.808 194.366 175.992 194.574 176.24C194.79 176.488 194.902 176.812 194.91 177.212C194.91 177.572 194.81 177.896 194.61 178.184C194.41 178.472 194.126 178.7 193.758 178.868C193.398 179.028 192.982 179.108 192.51 179.108ZM197.015 171.356C196.807 171.356 196.631 171.284 196.487 171.14C196.343 170.996 196.271 170.82 196.271 170.612C196.271 170.404 196.343 170.228 196.487 170.084C196.631 169.94 196.807 169.868 197.015 169.868C197.215 169.868 197.383 169.94 197.519 170.084C197.663 170.228 197.735 170.404 197.735 170.612C197.735 170.82 197.663 170.996 197.519 171.14C197.383 171.284 197.215 171.356 197.015 171.356ZM197.543 172.424V179H196.451V172.424H197.543ZM200.736 173.324V177.2C200.736 177.52 200.804 177.748 200.94 177.884C201.076 178.012 201.312 178.076 201.648 178.076H202.452V179H201.468C200.86 179 200.404 178.86 200.1 178.58C199.796 178.3 199.644 177.84 199.644 177.2V173.324H198.792V172.424H199.644V170.768H200.736V172.424H202.452V173.324H200.736ZM209.776 175.46C209.776 175.668 209.764 175.888 209.74 176.12H204.484C204.524 176.768 204.744 177.276 205.144 177.644C205.552 178.004 206.044 178.184 206.62 178.184C207.092 178.184 207.484 178.076 207.796 177.86C208.116 177.636 208.34 177.34 208.468 176.972H209.644C209.468 177.604 209.116 178.12 208.588 178.52C208.06 178.912 207.404 179.108 206.62 179.108C205.996 179.108 205.436 178.968 204.94 178.688C204.452 178.408 204.068 178.012 203.788 177.5C203.508 176.98 203.368 176.38 203.368 175.7C203.368 175.02 203.504 174.424 203.776 173.912C204.048 173.4 204.428 173.008 204.916 172.736C205.412 172.456 205.98 172.316 206.62 172.316C207.244 172.316 207.796 172.452 208.276 172.724C208.756 172.996 209.124 173.372 209.38 173.852C209.644 174.324 209.776 174.86 209.776 175.46ZM208.648 175.232C208.648 174.816 208.556 174.46 208.372 174.164C208.188 173.86 207.936 173.632 207.616 173.48C207.304 173.32 206.956 173.24 206.572 173.24C206.02 173.24 205.548 173.416 205.156 173.768C204.772 174.12 204.552 174.608 204.496 175.232H208.648Z" fill="black"/>
<circle cx="138" cy="175" r="16" fill="#1A3EFB"/>
<path d="M141.105 177.945C141.062 177.784 141.222 177.645 141.375 177.708L147.563 180.272C147.724 180.339 147.728 180.566 147.57 180.638L145.583 181.546L147.51 183.752C147.783 184.065 147.749 184.541 147.435 184.812V184.812C147.123 185.08 146.653 185.047 146.382 184.737L144.434 182.503L143.169 184.37C143.073 184.512 142.855 184.476 142.811 184.31L141.105 177.945Z" fill="white"/>
<path fill-rule="evenodd" clip-rule="evenodd" d="M138 166.25C138.414 166.25 138.75 166.586 138.75 167V172C138.75 172.414 138.414 172.75 138 172.75C137.586 172.75 137.25 172.414 137.25 172V167C137.25 166.586 137.586 166.25 138 166.25ZM133.47 170.47C133.763 170.177 134.237 170.177 134.53 170.47L136.53 172.47C136.823 172.763 136.823 173.237 136.53 173.53C136.237 173.823 135.763 173.823 135.47 173.53L133.47 171.53C133.177 171.237 133.177 170.763 133.47 170.47ZM142.53 170.47C142.823 170.763 142.823 171.237 142.53 171.53L140.53 173.53C140.237 173.823 139.763 173.823 139.47 173.53C139.177 173.237 139.177 172.763 139.47 172.47L141.47 170.47C141.763 170.177 142.237 170.177 142.53 170.47ZM129.25 175C129.25 174.586 129.586 174.25 130 174.25H135C135.414 174.25 135.75 174.586 135.75 175C135.75 175.414 135.414 175.75 135 175.75H130C129.586 175.75 129.25 175.414 129.25 175ZM140.25 175C140.25 174.586 140.586 174.25 141 174.25H146C146.414 174.25 146.75 174.586 146.75 175C146.75 175.414 146.414 175.75 146 175.75H141C140.586 175.75 140.25 175.414 140.25 175ZM136.53 176.47C136.823 176.763 136.823 177.237 136.53 177.53L134.53 179.53C134.237 179.823 133.763 179.823 133.47 179.53C133.177 179.237 133.177 178.763 133.47 178.47L135.47 176.47C135.763 176.177 136.237 176.177 136.53 176.47ZM138 177.25C138.414 177.25 138.75 177.586 138.75 178V183C138.75 183.414 138.414 183.75 138 183.75C137.586 183.75 137.25 183.414 137.25 183V178C137.25 177.586 137.586 177.25 138 177.25Z" fill="white"/>
<path d="M275.112 174.692C275.416 174.74 275.692 174.864 275.94 175.064C276.196 175.264 276.396 175.512 276.54 175.808C276.692 176.104 276.768 176.42 276.768 176.756C276.768 177.18 276.66 177.564 276.444 177.908C276.228 178.244 275.912 178.512 275.496 178.712C275.088 178.904 274.604 179 274.044 179H270.924V170.636H273.924C274.492 170.636 274.976 170.732 275.376 170.924C275.776 171.108 276.076 171.36 276.276 171.68C276.476 172 276.576 172.36 276.576 172.76C276.576 173.256 276.44 173.668 276.168 173.996C275.904 174.316 275.552 174.548 275.112 174.692ZM272.016 174.248H273.852C274.364 174.248 274.76 174.128 275.04 173.888C275.32 173.648 275.46 173.316 275.46 172.892C275.46 172.468 275.32 172.136 275.04 171.896C274.76 171.656 274.356 171.536 273.828 171.536H272.016V174.248ZM273.948 178.1C274.492 178.1 274.916 177.972 275.22 177.716C275.524 177.46 275.676 177.104 275.676 176.648C275.676 176.184 275.516 175.82 275.196 175.556C274.876 175.284 274.448 175.148 273.912 175.148H272.016V178.1H273.948ZM279.375 173.492C279.567 173.116 279.839 172.824 280.191 172.616C280.551 172.408 280.987 172.304 281.499 172.304V173.432H281.211C279.987 173.432 279.375 174.096 279.375 175.424V179H278.283V172.424H279.375V173.492ZM282.352 175.688C282.352 175.016 282.488 174.428 282.76 173.924C283.032 173.412 283.404 173.016 283.876 172.736C284.356 172.456 284.888 172.316 285.472 172.316C286.048 172.316 286.548 172.44 286.972 172.688C287.396 172.936 287.712 173.248 287.92 173.624V172.424H289.024V179H287.92V177.776C287.704 178.16 287.38 178.48 286.948 178.736C286.524 178.984 286.028 179.108 285.46 179.108C284.876 179.108 284.348 178.964 283.876 178.676C283.404 178.388 283.032 177.984 282.76 177.464C282.488 176.944 282.352 176.352 282.352 175.688ZM287.92 175.7C287.92 175.204 287.82 174.772 287.62 174.404C287.42 174.036 287.148 173.756 286.804 173.564C286.468 173.364 286.096 173.264 285.688 173.264C285.28 173.264 284.908 173.36 284.572 173.552C284.236 173.744 283.968 174.024 283.768 174.392C283.568 174.76 283.468 175.192 283.468 175.688C283.468 176.192 283.568 176.632 283.768 177.008C283.968 177.376 284.236 177.66 284.572 177.86C284.908 178.052 285.28 178.148 285.688 178.148C286.096 178.148 286.468 178.052 286.804 177.86C287.148 177.66 287.42 177.376 287.62 177.008C287.82 176.632 287.92 176.196 287.92 175.7ZM294.073 172.304C294.873 172.304 295.521 172.548 296.017 173.036C296.513 173.516 296.761 174.212 296.761 175.124V179H295.681V175.28C295.681 174.624 295.517 174.124 295.189 173.78C294.861 173.428 294.413 173.252 293.845 173.252C293.269 173.252 292.809 173.432 292.465 173.792C292.129 174.152 291.961 174.676 291.961 175.364V179H290.869V172.424H291.961V173.36C292.177 173.024 292.469 172.764 292.837 172.58C293.213 172.396 293.625 172.304 294.073 172.304ZM298.137 175.688C298.137 175.016 298.273 174.428 298.545 173.924C298.817 173.412 299.189 173.016 299.661 172.736C300.141 172.456 300.677 172.316 301.269 172.316C301.781 172.316 302.257 172.436 302.697 172.676C303.137 172.908 303.473 173.216 303.705 173.6V170.12H304.809V179H303.705V177.764C303.489 178.156 303.169 178.48 302.745 178.736C302.321 178.984 301.825 179.108 301.257 179.108C300.673 179.108 300.141 178.964 299.661 178.676C299.189 178.388 298.817 177.984 298.545 177.464C298.273 176.944 298.137 176.352 298.137 175.688ZM303.705 175.7C303.705 175.204 303.605 174.772 303.405 174.404C303.205 174.036 302.933 173.756 302.589 173.564C302.253 173.364 301.881 173.264 301.473 173.264C301.065 173.264 300.693 173.36 300.357 173.552C300.021 173.744 299.753 174.024 299.553 174.392C299.353 174.76 299.253 175.192 299.253 175.688C299.253 176.192 299.353 176.632 299.553 177.008C299.753 177.376 300.021 177.66 300.357 177.86C300.693 178.052 301.065 178.148 301.473 178.148C301.881 178.148 302.253 178.052 302.589 177.86C302.933 177.66 303.205 177.376 303.405 177.008C303.605 176.632 303.705 176.196 303.705 175.7ZM318.338 170.696V179H317.246V172.808L314.486 179H313.718L310.946 172.796V179H309.854V170.696H311.03L314.102 177.56L317.174 170.696H318.338ZM319.782 175.688C319.782 175.016 319.918 174.428 320.19 173.924C320.462 173.412 320.834 173.016 321.306 172.736C321.786 172.456 322.318 172.316 322.902 172.316C323.478 172.316 323.978 172.44 324.402 172.688C324.826 172.936 325.142 173.248 325.35 173.624V172.424H326.454V179H325.35V177.776C325.134 178.16 324.81 178.48 324.378 178.736C323.954 178.984 323.458 179.108 322.89 179.108C322.306 179.108 321.778 178.964 321.306 178.676C320.834 178.388 320.462 177.984 320.19 177.464C319.918 176.944 319.782 176.352 319.782 175.688ZM325.35 175.7C325.35 175.204 325.25 174.772 325.05 174.404C324.85 174.036 324.578 173.756 324.234 173.564C323.898 173.364 323.526 173.264 323.118 173.264C322.71 173.264 322.338 173.36 322.002 173.552C321.666 173.744 321.398 174.024 321.198 174.392C320.998 174.76 320.898 175.192 320.898 175.688C320.898 176.192 320.998 176.632 321.198 177.008C321.398 177.376 321.666 177.66 322.002 177.86C322.338 178.052 322.71 178.148 323.118 178.148C323.526 178.148 323.898 178.052 324.234 177.86C324.578 177.66 324.85 177.376 325.05 177.008C325.25 176.632 325.35 176.196 325.35 175.7ZM329.631 173.324V177.2C329.631 177.52 329.699 177.748 329.835 177.884C329.971 178.012 330.207 178.076 330.543 178.076H331.347V179H330.363C329.755 179 329.299 178.86 328.995 178.58C328.691 178.3 328.539 177.84 328.539 177.2V173.324H327.687V172.424H328.539V170.768H329.631V172.424H331.347V173.324H329.631ZM338.67 175.46C338.67 175.668 338.658 175.888 338.634 176.12H333.378C333.418 176.768 333.638 177.276 334.038 177.644C334.446 178.004 334.938 178.184 335.514 178.184C335.986 178.184 336.378 178.076 336.69 177.86C337.01 177.636 337.234 177.34 337.362 176.972H338.538C338.362 177.604 338.01 178.12 337.482 178.52C336.954 178.912 336.298 179.108 335.514 179.108C334.89 179.108 334.33 178.968 333.834 178.688C333.346 178.408 332.962 178.012 332.682 177.5C332.402 176.98 332.262 176.38 332.262 175.7C332.262 175.02 332.398 174.424 332.67 173.912C332.942 173.4 333.322 173.008 333.81 172.736C334.306 172.456 334.874 172.316 335.514 172.316C336.138 172.316 336.69 172.452 337.17 172.724C337.65 172.996 338.018 173.372 338.274 173.852C338.538 174.324 338.67 174.86 338.67 175.46ZM337.542 175.232C337.542 174.816 337.45 174.46 337.266 174.164C337.082 173.86 336.83 173.632 336.51 173.48C336.198 173.32 335.85 173.24 335.466 173.24C334.914 173.24 334.442 173.416 334.05 173.768C333.666 174.12 333.446 174.608 333.39 175.232H337.542ZM341.204 173.492C341.396 173.116 341.668 172.824 342.02 172.616C342.38 172.408 342.816 172.304 343.328 172.304V173.432H343.04C341.816 173.432 341.204 174.096 341.204 175.424V179H340.112V172.424H341.204V173.492ZM345.152 171.356C344.944 171.356 344.768 171.284 344.624 171.14C344.48 170.996 344.408 170.82 344.408 170.612C344.408 170.404 344.48 170.228 344.624 170.084C344.768 169.94 344.944 169.868 345.152 169.868C345.352 169.868 345.52 169.94 345.656 170.084C345.8 170.228 345.872 170.404 345.872 170.612C345.872 170.82 345.8 170.996 345.656 171.14C345.52 171.284 345.352 171.356 345.152 171.356ZM345.68 172.424V179H344.588V172.424H345.68ZM347.133 175.688C347.133 175.016 347.269 174.428 347.541 173.924C347.813 173.412 348.185 173.016 348.657 172.736C349.137 172.456 349.669 172.316 350.253 172.316C350.829 172.316 351.329 172.44 351.753 172.688C352.177 172.936 352.493 173.248 352.701 173.624V172.424H353.805V179H352.701V177.776C352.485 178.16 352.161 178.48 351.729 178.736C351.305 178.984 350.809 179.108 350.241 179.108C349.657 179.108 349.129 178.964 348.657 178.676C348.185 178.388 347.813 177.984 347.541 177.464C347.269 176.944 347.133 176.352 347.133 175.688ZM352.701 175.7C352.701 175.204 352.601 174.772 352.401 174.404C352.201 174.036 351.929 173.756 351.585 173.564C351.249 173.364 350.877 173.264 350.469 173.264C350.061 173.264 349.689 173.36 349.353 173.552C349.017 173.744 348.749 174.024 348.549 174.392C348.349 174.76 348.249 175.192 348.249 175.688C348.249 176.192 348.349 176.632 348.549 177.008C348.749 177.376 349.017 177.66 349.353 177.86C349.689 178.052 350.061 178.148 350.469 178.148C350.877 178.148 351.249 178.052 351.585 177.86C351.929 177.66 352.201 177.376 352.401 177.008C352.601 176.632 352.701 176.196 352.701 175.7ZM356.743 170.12V179H355.651V170.12H356.743ZM360.932 179.108C360.428 179.108 359.976 179.024 359.576 178.856C359.176 178.68 358.86 178.44 358.628 178.136C358.396 177.824 358.268 177.468 358.244 177.068H359.372C359.404 177.396 359.556 177.664 359.828 177.872C360.108 178.08 360.472 178.184 360.92 178.184C361.336 178.184 361.664 178.092 361.904 177.908C362.144 177.724 362.264 177.492 362.264 177.212C362.264 176.924 362.136 176.712 361.88 176.576C361.624 176.432 361.228 176.292 360.692 176.156C360.204 176.028 359.804 175.9 359.492 175.772C359.188 175.636 358.924 175.44 358.7 175.184C358.484 174.92 358.376 174.576 358.376 174.152C358.376 173.816 358.476 173.508 358.676 173.228C358.876 172.948 359.16 172.728 359.528 172.568C359.896 172.4 360.316 172.316 360.788 172.316C361.516 172.316 362.104 172.5 362.552 172.868C363 173.236 363.24 173.74 363.272 174.38H362.18C362.156 174.036 362.016 173.76 361.76 173.552C361.512 173.344 361.176 173.24 360.752 173.24C360.36 173.24 360.048 173.324 359.816 173.492C359.584 173.66 359.468 173.88 359.468 174.152C359.468 174.368 359.536 174.548 359.672 174.692C359.816 174.828 359.992 174.94 360.2 175.028C360.416 175.108 360.712 175.2 361.088 175.304C361.56 175.432 361.944 175.56 362.24 175.688C362.536 175.808 362.788 175.992 362.996 176.24C363.212 176.488 363.324 176.812 363.332 177.212C363.332 177.572 363.232 177.896 363.032 178.184C362.832 178.472 362.548 178.7 362.18 178.868C361.82 179.028 361.404 179.108 360.932 179.108Z" fill="black"/>
<circle cx="246" cy="175" r="16" fill="#1A3EFB"/>
<path fill-rule="evenodd" clip-rule="evenodd" d="M238.5 171.265V179.5H253.5V171.265L248.904 175.444L248.89 175.457L248.875 175.469L246.687 177.219C246.285 177.54 245.715 177.54 245.313 177.219L243.125 175.469L243.11 175.457L243.096 175.444L238.5 171.265ZM252.558 170.5H239.442L243.89 174.543L246 176.232L248.11 174.543L252.558 170.5ZM237 170C237 169.448 237.448 169 238 169H254C254.552 169 255 169.448 255 170V180C255 180.552 254.552 181 254 181H238C237.448 181 237 180.552 237 180V170Z" fill="white"/>
<path d="M53.488 59.456L46.32 79H41.56L34.392 59.456H38.592L43.968 74.996L49.316 59.456H53.488ZM62.7263 79.252C61.2329 79.252 59.8889 78.9253 58.6943 78.272C57.4996 77.6 56.5569 76.6573 55.8663 75.444C55.1943 74.2307 54.8583 72.8307 54.8583 71.244C54.8583 69.6573 55.2036 68.2573 55.8943 67.044C56.6036 65.8307 57.5649 64.8973 58.7783 64.244C59.9916 63.572 61.3449 63.236 62.8383 63.236C64.3316 63.236 65.6849 63.572 66.8983 64.244C68.1116 64.8973 69.0636 65.8307 69.7543 67.044C70.4636 68.2573 70.8183 69.6573 70.8183 71.244C70.8183 72.8307 70.4543 74.2307 69.7262 75.444C69.0169 76.6573 68.0463 77.6 66.8143 78.272C65.6009 78.9253 64.2383 79.252 62.7263 79.252ZM62.7263 75.836C63.4356 75.836 64.0983 75.668 64.7143 75.332C65.3489 74.9773 65.8529 74.4547 66.2263 73.764C66.5996 73.0733 66.7863 72.2333 66.7863 71.244C66.7863 69.7693 66.3943 68.64 65.6103 67.856C64.8449 67.0533 63.9023 66.652 62.7823 66.652C61.6623 66.652 60.7196 67.0533 59.9543 67.856C59.2076 68.64 58.8343 69.7693 58.8343 71.244C58.8343 72.7187 59.1983 73.8573 59.9263 74.66C60.6729 75.444 61.6063 75.836 62.7263 75.836ZM72.6857 71.244C72.6857 69.6387 73.0124 68.2387 73.6657 67.044C74.3191 65.8307 75.2244 64.8973 76.3817 64.244C77.5391 63.572 78.8644 63.236 80.3577 63.236C82.2804 63.236 83.8671 63.7213 85.1177 64.692C86.3871 65.644 87.2364 66.988 87.6657 68.724H83.4377C83.2137 68.052 82.8311 67.5293 82.2897 67.156C81.7671 66.764 81.1137 66.568 80.3297 66.568C79.2097 66.568 78.3231 66.9787 77.6697 67.8C77.0164 68.6027 76.6897 69.7507 76.6897 71.244C76.6897 72.7187 77.0164 73.8667 77.6697 74.688C78.3231 75.4907 79.2097 75.892 80.3297 75.892C81.9164 75.892 82.9524 75.1827 83.4377 73.764H87.6657C87.2364 75.444 86.3871 76.7787 85.1177 77.768C83.8484 78.7573 82.2617 79.252 80.3577 79.252C78.8644 79.252 77.5391 78.9253 76.3817 78.272C75.2244 77.6 74.3191 76.6667 73.6657 75.472C73.0124 74.2587 72.6857 72.8493 72.6857 71.244ZM89.5295 71.244C89.5295 69.6387 89.8561 68.2387 90.5095 67.044C91.1628 65.8307 92.0681 64.8973 93.2255 64.244C94.3828 63.572 95.7081 63.236 97.2015 63.236C99.1241 63.236 100.711 63.7213 101.961 64.692C103.231 65.644 104.08 66.988 104.509 68.724H100.281C100.057 68.052 99.6748 67.5293 99.1335 67.156C98.6108 66.764 97.9575 66.568 97.1735 66.568C96.0535 66.568 95.1668 66.9787 94.5135 67.8C93.8601 68.6027 93.5335 69.7507 93.5335 71.244C93.5335 72.7187 93.8601 73.8667 94.5135 74.688C95.1668 75.4907 96.0535 75.892 97.1735 75.892C98.7601 75.892 99.7961 75.1827 100.281 73.764H104.509C104.08 75.444 103.231 76.7787 101.961 77.768C100.692 78.7573 99.1055 79.252 97.2015 79.252C95.7081 79.252 94.3828 78.9253 93.2255 78.272C92.0681 77.6 91.1628 76.6667 90.5095 75.472C89.8561 74.2587 89.5295 72.8493 89.5295 71.244ZM121.801 70.908C121.801 71.468 121.764 71.972 121.689 72.42H110.349C110.443 73.54 110.835 74.4173 111.525 75.052C112.216 75.6867 113.065 76.004 114.073 76.004C115.529 76.004 116.565 75.3787 117.181 74.128H121.409C120.961 75.6213 120.103 76.8533 118.833 77.824C117.564 78.776 116.005 79.252 114.157 79.252C112.664 79.252 111.32 78.9253 110.125 78.272C108.949 77.6 108.025 76.6573 107.353 75.444C106.7 74.2307 106.373 72.8307 106.373 71.244C106.373 69.6387 106.7 68.2293 107.353 67.016C108.007 65.8027 108.921 64.8693 110.097 64.216C111.273 63.5627 112.627 63.236 114.157 63.236C115.632 63.236 116.948 63.5533 118.105 64.188C119.281 64.8227 120.187 65.728 120.821 66.904C121.475 68.0613 121.801 69.396 121.801 70.908ZM117.741 69.788C117.723 68.78 117.359 67.9773 116.649 67.38C115.94 66.764 115.072 66.456 114.045 66.456C113.075 66.456 112.253 66.7547 111.581 67.352C110.928 67.9307 110.527 68.7427 110.377 69.788H117.741ZM130.598 79.252C129.329 79.252 128.19 79.028 127.182 78.58C126.174 78.1133 125.372 77.488 124.774 76.704C124.196 75.92 123.878 75.052 123.822 74.1H127.77C127.845 74.6973 128.134 75.192 128.638 75.584C129.161 75.976 129.805 76.172 130.57 76.172C131.317 76.172 131.896 76.0227 132.306 75.724C132.736 75.4253 132.95 75.0427 132.95 74.576C132.95 74.072 132.689 73.6987 132.166 73.456C131.662 73.1947 130.85 72.9147 129.73 72.616C128.573 72.336 127.621 72.0467 126.874 71.748C126.146 71.4493 125.512 70.992 124.97 70.376C124.448 69.76 124.186 68.9293 124.186 67.884C124.186 67.0253 124.429 66.2413 124.914 65.532C125.418 64.8227 126.128 64.2627 127.042 63.852C127.976 63.4413 129.068 63.236 130.318 63.236C132.166 63.236 133.641 63.7027 134.742 64.636C135.844 65.5507 136.45 66.792 136.562 68.36H132.81C132.754 67.744 132.493 67.2587 132.026 66.904C131.578 66.5307 130.972 66.344 130.206 66.344C129.497 66.344 128.946 66.4747 128.554 66.736C128.181 66.9973 127.994 67.3613 127.994 67.828C127.994 68.3507 128.256 68.752 128.778 69.032C129.301 69.2933 130.113 69.564 131.214 69.844C132.334 70.124 133.258 70.4133 133.986 70.712C134.714 71.0107 135.34 71.4773 135.862 72.112C136.404 72.728 136.684 73.5493 136.702 74.576C136.702 75.472 136.45 76.2747 135.946 76.984C135.461 77.6933 134.752 78.2533 133.818 78.664C132.904 79.056 131.83 79.252 130.598 79.252ZM145.856 79.252C144.587 79.252 143.448 79.028 142.44 78.58C141.432 78.1133 140.63 77.488 140.032 76.704C139.454 75.92 139.136 75.052 139.08 74.1H143.028C143.103 74.6973 143.392 75.192 143.896 75.584C144.419 75.976 145.063 76.172 145.828 76.172C146.575 76.172 147.154 76.0227 147.564 75.724C147.994 75.4253 148.208 75.0427 148.208 74.576C148.208 74.072 147.947 73.6987 147.424 73.456C146.92 73.1947 146.108 72.9147 144.988 72.616C143.831 72.336 142.879 72.0467 142.132 71.748C141.404 71.4493 140.77 70.992 140.228 70.376C139.706 69.76 139.444 68.9293 139.444 67.884C139.444 67.0253 139.687 66.2413 140.172 65.532C140.676 64.8227 141.386 64.2627 142.3 63.852C143.234 63.4413 144.326 63.236 145.576 63.236C147.424 63.236 148.899 63.7027 150 64.636C151.102 65.5507 151.708 66.792 151.82 68.36H148.068C148.012 67.744 147.751 67.2587 147.284 66.904C146.836 66.5307 146.23 66.344 145.464 66.344C144.755 66.344 144.204 66.4747 143.812 66.736C143.439 66.9973 143.252 67.3613 143.252 67.828C143.252 68.3507 143.514 68.752 144.036 69.032C144.559 69.2933 145.371 69.564 146.472 69.844C147.592 70.124 148.516 70.4133 149.244 70.712C149.972 71.0107 150.598 71.4773 151.12 72.112C151.662 72.728 151.942 73.5493 151.96 74.576C151.96 75.472 151.708 76.2747 151.204 76.984C150.719 77.6933 150.01 78.2533 149.076 78.664C148.162 79.056 147.088 79.252 145.856 79.252ZM160.842 71.244C160.842 69.6387 161.169 68.2387 161.822 67.044C162.475 65.8307 163.381 64.8973 164.538 64.244C165.695 63.572 167.021 63.236 168.514 63.236C170.437 63.236 172.023 63.7213 173.274 64.692C174.543 65.644 175.393 66.988 175.822 68.724H171.594C171.37 68.052 170.987 67.5293 170.446 67.156C169.923 66.764 169.27 66.568 168.486 66.568C167.366 66.568 166.479 66.9787 165.826 67.8C165.173 68.6027 164.846 69.7507 164.846 71.244C164.846 72.7187 165.173 73.8667 165.826 74.688C166.479 75.4907 167.366 75.892 168.486 75.892C170.073 75.892 171.109 75.1827 171.594 73.764H175.822C175.393 75.444 174.543 76.7787 173.274 77.768C172.005 78.7573 170.418 79.252 168.514 79.252C167.021 79.252 165.695 78.9253 164.538 78.272C163.381 77.6 162.475 76.6667 161.822 75.472C161.169 74.2587 160.842 72.8493 160.842 71.244ZM185.582 79.252C184.088 79.252 182.744 78.9253 181.55 78.272C180.355 77.6 179.412 76.6573 178.722 75.444C178.05 74.2307 177.714 72.8307 177.714 71.244C177.714 69.6573 178.059 68.2573 178.75 67.044C179.459 65.8307 180.42 64.8973 181.634 64.244C182.847 63.572 184.2 63.236 185.694 63.236C187.187 63.236 188.54 63.572 189.754 64.244C190.967 64.8973 191.919 65.8307 192.61 67.044C193.319 68.2573 193.674 69.6573 193.674 71.244C193.674 72.8307 193.31 74.2307 192.582 75.444C191.872 76.6573 190.902 77.6 189.67 78.272C188.456 78.9253 187.094 79.252 185.582 79.252ZM185.582 75.836C186.291 75.836 186.954 75.668 187.57 75.332C188.204 74.9773 188.708 74.4547 189.082 73.764C189.455 73.0733 189.642 72.2333 189.642 71.244C189.642 69.7693 189.25 68.64 188.466 67.856C187.7 67.0533 186.758 66.652 185.638 66.652C184.518 66.652 183.575 67.0533 182.81 67.856C182.063 68.64 181.69 69.7693 181.69 71.244C181.69 72.7187 182.054 73.8573 182.782 74.66C183.528 75.444 184.462 75.836 185.582 75.836ZM200.469 65.896C200.973 65.0747 201.627 64.4307 202.429 63.964C203.251 63.4973 204.184 63.264 205.229 63.264V67.38H204.193C202.961 67.38 202.028 67.6693 201.393 68.248C200.777 68.8267 200.469 69.8347 200.469 71.272V79H196.549V63.488H200.469V65.896ZM211.79 65.728C212.294 65.0187 212.984 64.4307 213.862 63.964C214.758 63.4787 215.775 63.236 216.914 63.236C218.239 63.236 219.434 63.5627 220.498 64.216C221.58 64.8693 222.43 65.8027 223.046 67.016C223.68 68.2107 223.998 69.6013 223.998 71.188C223.998 72.7747 223.68 74.184 223.046 75.416C222.43 76.6293 221.58 77.572 220.498 78.244C219.434 78.916 218.239 79.252 216.914 79.252C215.775 79.252 214.767 79.0187 213.89 78.552C213.031 78.0853 212.331 77.4973 211.79 76.788V86.392H207.87V63.488H211.79V65.728ZM219.994 71.188C219.994 70.2547 219.798 69.452 219.406 68.78C219.032 68.0893 218.528 67.5667 217.894 67.212C217.278 66.8573 216.606 66.68 215.878 66.68C215.168 66.68 214.496 66.8667 213.862 67.24C213.246 67.5947 212.742 68.1173 212.35 68.808C211.976 69.4987 211.79 70.3107 211.79 71.244C211.79 72.1773 211.976 72.9893 212.35 73.68C212.742 74.3707 213.246 74.9027 213.862 75.276C214.496 75.6307 215.168 75.808 215.878 75.808C216.606 75.808 217.278 75.6213 217.894 75.248C218.528 74.8747 219.032 74.3427 219.406 73.652C219.798 72.9613 219.994 72.14 219.994 71.188ZM233.734 79.252C232.241 79.252 230.897 78.9253 229.702 78.272C228.507 77.6 227.565 76.6573 226.874 75.444C226.202 74.2307 225.866 72.8307 225.866 71.244C225.866 69.6573 226.211 68.2573 226.902 67.044C227.611 65.8307 228.573 64.8973 229.786 64.244C230.999 63.572 232.353 63.236 233.846 63.236C235.339 63.236 236.693 63.572 237.906 64.244C239.119 64.8973 240.071 65.8307 240.762 67.044C241.471 68.2573 241.826 69.6573 241.826 71.244C241.826 72.8307 241.462 74.2307 240.734 75.444C240.025 76.6573 239.054 77.6 237.822 78.272C236.609 78.9253 235.246 79.252 233.734 79.252ZM233.734 75.836C234.443 75.836 235.106 75.668 235.722 75.332C236.357 74.9773 236.861 74.4547 237.234 73.764C237.607 73.0733 237.794 72.2333 237.794 71.244C237.794 69.7693 237.402 68.64 236.618 67.856C235.853 67.0533 234.91 66.652 233.79 66.652C232.67 66.652 231.727 67.0533 230.962 67.856C230.215 68.64 229.842 69.7693 229.842 71.244C229.842 72.7187 230.206 73.8573 230.934 74.66C231.681 75.444 232.614 75.836 233.734 75.836ZM248.622 65.896C249.126 65.0747 249.779 64.4307 250.582 63.964C251.403 63.4973 252.336 63.264 253.382 63.264V67.38H252.346C251.114 67.38 250.18 67.6693 249.546 68.248C248.93 68.8267 248.622 69.8347 248.622 71.272V79H244.702V63.488H248.622V65.896ZM255.014 71.188C255.014 69.62 255.322 68.2293 255.938 67.016C256.573 65.8027 257.422 64.8693 258.486 64.216C259.569 63.5627 260.773 63.236 262.098 63.236C263.255 63.236 264.263 63.4693 265.122 63.936C265.999 64.4027 266.699 64.9907 267.222 65.7V63.488H271.17V79H267.222V76.732C266.718 77.46 266.018 78.0667 265.122 78.552C264.245 79.0187 263.227 79.252 262.07 79.252C260.763 79.252 259.569 78.916 258.486 78.244C257.422 77.572 256.573 76.6293 255.938 75.416C255.322 74.184 255.014 72.7747 255.014 71.188ZM267.222 71.244C267.222 70.292 267.035 69.48 266.662 68.808C266.289 68.1173 265.785 67.5947 265.15 67.24C264.515 66.8667 263.834 66.68 263.106 66.68C262.378 66.68 261.706 66.8573 261.09 67.212C260.474 67.5667 259.97 68.0893 259.578 68.78C259.205 69.452 259.018 70.2547 259.018 71.188C259.018 72.1213 259.205 72.9427 259.578 73.652C259.97 74.3427 260.474 74.8747 261.09 75.248C261.725 75.6213 262.397 75.808 263.106 75.808C263.834 75.808 264.515 75.6307 265.15 75.276C265.785 74.9027 266.289 74.38 266.662 73.708C267.035 73.0173 267.222 72.196 267.222 71.244ZM279.562 66.708V74.212C279.562 74.7347 279.684 75.1173 279.926 75.36C280.188 75.584 280.617 75.696 281.214 75.696H283.034V79H280.57C277.266 79 275.614 77.3947 275.614 74.184V66.708H273.766V63.488H275.614V59.652H279.562V63.488H283.034V66.708H279.562ZM300.274 70.908C300.274 71.468 300.237 71.972 300.162 72.42H288.822C288.915 73.54 289.307 74.4173 289.998 75.052C290.689 75.6867 291.538 76.004 292.546 76.004C294.002 76.004 295.038 75.3787 295.654 74.128H299.882C299.434 75.6213 298.575 76.8533 297.306 77.824C296.037 78.776 294.478 79.252 292.63 79.252C291.137 79.252 289.793 78.9253 288.598 78.272C287.422 77.6 286.498 76.6573 285.826 75.444C285.173 74.2307 284.846 72.8307 284.846 71.244C284.846 69.6387 285.173 68.2293 285.826 67.016C286.479 65.8027 287.394 64.8693 288.57 64.216C289.746 63.5627 291.099 63.236 292.63 63.236C294.105 63.236 295.421 63.5533 296.578 64.188C297.754 64.8227 298.659 65.728 299.294 66.904C299.947 68.0613 300.274 69.396 300.274 70.908ZM296.214 69.788C296.195 68.78 295.831 67.9773 295.122 67.38C294.413 66.764 293.545 66.456 292.518 66.456C291.547 66.456 290.726 66.7547 290.054 67.352C289.401 67.9307 288.999 68.7427 288.85 69.788H296.214Z" fill="black"/>
<path d="M50.14 101.04L46.72 112H44.84L42.2 103.3L39.56 112H37.68L34.24 101.04H36.1L38.62 110.24L41.34 101.04H43.2L45.86 110.26L48.34 101.04H50.14ZM66.5463 101.04L63.1263 112H61.2463L58.6063 103.3L55.9663 112H54.0863L50.6463 101.04H52.5063L55.0263 110.24L57.7463 101.04H59.6063L62.2663 110.26L64.7463 101.04H66.5463ZM82.9525 101.04L79.5325 112H77.6525L75.0125 103.3L72.3725 112H70.4925L67.0525 101.04H68.9125L71.4325 110.24L74.1525 101.04H76.0125L78.6725 110.26L81.1525 101.04H82.9525ZM85.3388 112.12C84.9921 112.12 84.6988 112 84.4588 111.76C84.2188 111.52 84.0988 111.227 84.0988 110.88C84.0988 110.533 84.2188 110.24 84.4588 110C84.6988 109.76 84.9921 109.64 85.3388 109.64C85.6721 109.64 85.9521 109.76 86.1788 110C86.4188 110.24 86.5388 110.533 86.5388 110.88C86.5388 111.227 86.4188 111.52 86.1788 111.76C85.9521 112 85.6721 112.12 85.3388 112.12ZM93.038 110.32L96.438 101.04H98.378L94.078 112H91.958L87.658 101.04H89.618L93.038 110.32ZM104.949 112.18C103.922 112.18 102.989 111.947 102.149 111.48C101.322 111.013 100.669 110.353 100.189 109.5C99.7222 108.633 99.4889 107.633 99.4889 106.5C99.4889 105.38 99.7289 104.393 100.209 103.54C100.702 102.673 101.369 102.013 102.209 101.56C103.049 101.093 103.989 100.86 105.029 100.86C106.069 100.86 107.009 101.093 107.849 101.56C108.689 102.013 109.349 102.667 109.829 103.52C110.322 104.373 110.569 105.367 110.569 106.5C110.569 107.633 110.316 108.633 109.809 109.5C109.316 110.353 108.642 111.013 107.789 111.48C106.936 111.947 105.989 112.18 104.949 112.18ZM104.949 110.58C105.602 110.58 106.216 110.427 106.789 110.12C107.362 109.813 107.822 109.353 108.169 108.74C108.529 108.127 108.709 107.38 108.709 106.5C108.709 105.62 108.536 104.873 108.189 104.26C107.842 103.647 107.389 103.193 106.829 102.9C106.269 102.593 105.662 102.44 105.009 102.44C104.342 102.44 103.729 102.593 103.169 102.9C102.622 103.193 102.182 103.647 101.849 104.26C101.516 104.873 101.349 105.62 101.349 106.5C101.349 107.393 101.509 108.147 101.829 108.76C102.162 109.373 102.602 109.833 103.149 110.14C103.696 110.433 104.296 110.58 104.949 110.58ZM112.282 106.5C112.282 105.367 112.509 104.38 112.962 103.54C113.415 102.687 114.042 102.027 114.842 101.56C115.655 101.093 116.582 100.86 117.622 100.86C118.969 100.86 120.075 101.187 120.942 101.84C121.822 102.493 122.402 103.4 122.682 104.56H120.722C120.535 103.893 120.169 103.367 119.622 102.98C119.089 102.593 118.422 102.4 117.622 102.4C116.582 102.4 115.742 102.76 115.102 103.48C114.462 104.187 114.142 105.193 114.142 106.5C114.142 107.82 114.462 108.84 115.102 109.56C115.742 110.28 116.582 110.64 117.622 110.64C118.422 110.64 119.089 110.453 119.622 110.08C120.155 109.707 120.522 109.173 120.722 108.48H122.682C122.389 109.6 121.802 110.5 120.922 111.18C120.042 111.847 118.942 112.18 117.622 112.18C116.582 112.18 115.655 111.947 114.842 111.48C114.042 111.013 113.415 110.353 112.962 109.5C112.509 108.647 112.282 107.647 112.282 106.5ZM124.43 106.5C124.43 105.367 124.657 104.38 125.11 103.54C125.564 102.687 126.19 102.027 126.99 101.56C127.804 101.093 128.73 100.86 129.77 100.86C131.117 100.86 132.224 101.187 133.09 101.84C133.97 102.493 134.55 103.4 134.83 104.56H132.87C132.684 103.893 132.317 103.367 131.77 102.98C131.237 102.593 130.57 102.4 129.77 102.4C128.73 102.4 127.89 102.76 127.25 103.48C126.61 104.187 126.29 105.193 126.29 106.5C126.29 107.82 126.61 108.84 127.25 109.56C127.89 110.28 128.73 110.64 129.77 110.64C130.57 110.64 131.237 110.453 131.77 110.08C132.304 109.707 132.67 109.173 132.87 108.48H134.83C134.537 109.6 133.95 110.5 133.07 111.18C132.19 111.847 131.09 112.18 129.77 112.18C128.73 112.18 127.804 111.947 126.99 111.48C126.19 111.013 125.564 110.353 125.11 109.5C124.657 108.647 124.43 107.647 124.43 106.5ZM147.259 106.1C147.259 106.447 147.239 106.813 147.199 107.2H138.439C138.505 108.28 138.872 109.127 139.539 109.74C140.219 110.34 141.039 110.64 141.999 110.64C142.785 110.64 143.439 110.46 143.959 110.1C144.492 109.727 144.865 109.233 145.079 108.62H147.039C146.745 109.673 146.159 110.533 145.279 111.2C144.399 111.853 143.305 112.18 141.999 112.18C140.959 112.18 140.025 111.947 139.199 111.48C138.385 111.013 137.745 110.353 137.279 109.5C136.812 108.633 136.579 107.633 136.579 106.5C136.579 105.367 136.805 104.373 137.259 103.52C137.712 102.667 138.345 102.013 139.159 101.56C139.985 101.093 140.932 100.86 141.999 100.86C143.039 100.86 143.959 101.087 144.759 101.54C145.559 101.993 146.172 102.62 146.599 103.42C147.039 104.207 147.259 105.1 147.259 106.1ZM145.379 105.72C145.379 105.027 145.225 104.433 144.919 103.94C144.612 103.433 144.192 103.053 143.659 102.8C143.139 102.533 142.559 102.4 141.919 102.4C140.999 102.4 140.212 102.693 139.559 103.28C138.919 103.867 138.552 104.68 138.459 105.72H145.379ZM153.541 112.18C152.701 112.18 151.948 112.04 151.281 111.76C150.614 111.467 150.088 111.067 149.701 110.56C149.314 110.04 149.101 109.447 149.061 108.78H150.941C150.994 109.327 151.248 109.773 151.701 110.12C152.168 110.467 152.774 110.64 153.521 110.64C154.214 110.64 154.761 110.487 155.161 110.18C155.561 109.873 155.761 109.487 155.761 109.02C155.761 108.54 155.548 108.187 155.121 107.96C154.694 107.72 154.034 107.487 153.141 107.26C152.328 107.047 151.661 106.833 151.141 106.62C150.634 106.393 150.194 106.067 149.821 105.64C149.461 105.2 149.281 104.627 149.281 103.92C149.281 103.36 149.448 102.847 149.781 102.38C150.114 101.913 150.588 101.547 151.201 101.28C151.814 101 152.514 100.86 153.301 100.86C154.514 100.86 155.494 101.167 156.241 101.78C156.988 102.393 157.388 103.233 157.441 104.3H155.621C155.581 103.727 155.348 103.267 154.921 102.92C154.508 102.573 153.948 102.4 153.241 102.4C152.588 102.4 152.068 102.54 151.681 102.82C151.294 103.1 151.101 103.467 151.101 103.92C151.101 104.28 151.214 104.58 151.441 104.82C151.681 105.047 151.974 105.233 152.321 105.38C152.681 105.513 153.174 105.667 153.801 105.84C154.588 106.053 155.228 106.267 155.721 106.48C156.214 106.68 156.634 106.987 156.981 107.4C157.341 107.813 157.528 108.353 157.541 109.02C157.541 109.62 157.374 110.16 157.041 110.64C156.708 111.12 156.234 111.5 155.621 111.78C155.021 112.047 154.328 112.18 153.541 112.18ZM163.99 112.18C163.15 112.18 162.397 112.04 161.73 111.76C161.064 111.467 160.537 111.067 160.15 110.56C159.764 110.04 159.55 109.447 159.51 108.78H161.39C161.444 109.327 161.697 109.773 162.15 110.12C162.617 110.467 163.224 110.64 163.97 110.64C164.664 110.64 165.21 110.487 165.61 110.18C166.01 109.873 166.21 109.487 166.21 109.02C166.21 108.54 165.997 108.187 165.57 107.96C165.144 107.72 164.484 107.487 163.59 107.26C162.777 107.047 162.11 106.833 161.59 106.62C161.084 106.393 160.644 106.067 160.27 105.64C159.91 105.2 159.73 104.627 159.73 103.92C159.73 103.36 159.897 102.847 160.23 102.38C160.564 101.913 161.037 101.547 161.65 101.28C162.264 101 162.964 100.86 163.75 100.86C164.964 100.86 165.944 101.167 166.69 101.78C167.437 102.393 167.837 103.233 167.89 104.3H166.07C166.03 103.727 165.797 103.267 165.37 102.92C164.957 102.573 164.397 102.4 163.69 102.4C163.037 102.4 162.517 102.54 162.13 102.82C161.744 103.1 161.55 103.467 161.55 103.92C161.55 104.28 161.664 104.58 161.89 104.82C162.13 105.047 162.424 105.233 162.77 105.38C163.13 105.513 163.624 105.667 164.25 105.84C165.037 106.053 165.677 106.267 166.17 106.48C166.664 106.68 167.084 106.987 167.43 107.4C167.79 107.813 167.977 108.353 167.99 109.02C167.99 109.62 167.824 110.16 167.49 110.64C167.157 111.12 166.684 111.5 166.07 111.78C165.47 112.047 164.777 112.18 163.99 112.18ZM171.14 112.12C170.793 112.12 170.5 112 170.26 111.76C170.02 111.52 169.9 111.227 169.9 110.88C169.9 110.533 170.02 110.24 170.26 110C170.5 109.76 170.793 109.64 171.14 109.64C171.473 109.64 171.753 109.76 171.98 110C172.22 110.24 172.34 110.533 172.34 110.88C172.34 111.227 172.22 111.52 171.98 111.76C171.753 112 171.473 112.12 171.14 112.12ZM174.079 106.5C174.079 105.367 174.305 104.38 174.759 103.54C175.212 102.687 175.839 102.027 176.639 101.56C177.452 101.093 178.379 100.86 179.419 100.86C180.765 100.86 181.872 101.187 182.739 101.84C183.619 102.493 184.199 103.4 184.479 104.56H182.519C182.332 103.893 181.965 103.367 181.419 102.98C180.885 102.593 180.219 102.4 179.419 102.4C178.379 102.4 177.539 102.76 176.899 103.48C176.259 104.187 175.939 105.193 175.939 106.5C175.939 107.82 176.259 108.84 176.899 109.56C177.539 110.28 178.379 110.64 179.419 110.64C180.219 110.64 180.885 110.453 181.419 110.08C181.952 109.707 182.319 109.173 182.519 108.48H184.479C184.185 109.6 183.599 110.5 182.719 111.18C181.839 111.847 180.739 112.18 179.419 112.18C178.379 112.18 177.452 111.947 176.639 111.48C175.839 111.013 175.212 110.353 174.759 109.5C174.305 108.647 174.079 107.647 174.079 106.5ZM191.687 112.18C190.661 112.18 189.727 111.947 188.887 111.48C188.061 111.013 187.407 110.353 186.927 109.5C186.461 108.633 186.227 107.633 186.227 106.5C186.227 105.38 186.467 104.393 186.947 103.54C187.441 102.673 188.107 102.013 188.947 101.56C189.787 101.093 190.727 100.86 191.767 100.86C192.807 100.86 193.747 101.093 194.587 101.56C195.427 102.013 196.087 102.667 196.567 103.52C197.061 104.373 197.307 105.367 197.307 106.5C197.307 107.633 197.054 108.633 196.547 109.5C196.054 110.353 195.381 111.013 194.527 111.48C193.674 111.947 192.727 112.18 191.687 112.18ZM191.687 110.58C192.341 110.58 192.954 110.427 193.527 110.12C194.101 109.813 194.561 109.353 194.907 108.74C195.267 108.127 195.447 107.38 195.447 106.5C195.447 105.62 195.274 104.873 194.927 104.26C194.581 103.647 194.127 103.193 193.567 102.9C193.007 102.593 192.401 102.44 191.747 102.44C191.081 102.44 190.467 102.593 189.907 102.9C189.361 103.193 188.921 103.647 188.587 104.26C188.254 104.873 188.087 105.62 188.087 106.5C188.087 107.393 188.247 108.147 188.567 108.76C188.901 109.373 189.341 109.833 189.887 110.14C190.434 110.433 191.034 110.58 191.687 110.58ZM212.88 100.84C213.733 100.84 214.493 101.02 215.16 101.38C215.827 101.727 216.353 102.253 216.74 102.96C217.127 103.667 217.32 104.527 217.32 105.54V112H215.52V105.8C215.52 104.707 215.247 103.873 214.7 103.3C214.167 102.713 213.44 102.42 212.52 102.42C211.573 102.42 210.82 102.727 210.26 103.34C209.7 103.94 209.42 104.813 209.42 105.96V112H207.62V105.8C207.62 104.707 207.347 103.873 206.8 103.3C206.267 102.713 205.54 102.42 204.62 102.42C203.673 102.42 202.92 102.727 202.36 103.34C201.8 103.94 201.52 104.813 201.52 105.96V112H199.7V101.04H201.52V102.62C201.88 102.047 202.36 101.607 202.96 101.3C203.573 100.993 204.247 100.84 204.98 100.84C205.9 100.84 206.713 101.047 207.42 101.46C208.127 101.873 208.653 102.48 209 103.28C209.307 102.507 209.813 101.907 210.52 101.48C211.227 101.053 212.013 100.84 212.88 100.84Z" fill="black"/>
</svg>
