<svg width="457" height="220" viewBox="0 0 457 220" fill="none" xmlns="http://www.w3.org/2000/svg">
<rect x="1" y="1" width="455" height="218" rx="15" fill="white" stroke="#1A3EFB" stroke-width="2"/>
<path d="M80.516 173.084C80.516 173.78 80.276 174.36 79.796 174.824C79.324 175.28 78.6 175.508 77.624 175.508H76.016V179H74.924V170.636H77.624C78.568 170.636 79.284 170.864 79.772 171.32C80.268 171.776 80.516 172.364 80.516 173.084ZM77.624 174.608C78.232 174.608 78.68 174.476 78.968 174.212C79.256 173.948 79.4 173.572 79.4 173.084C79.4 172.052 78.808 171.536 77.624 171.536H76.016V174.608H77.624ZM81.4652 175.688C81.4652 175.016 81.6012 174.428 81.8732 173.924C82.1452 173.412 82.5172 173.016 82.9892 172.736C83.4692 172.456 84.0012 172.316 84.5852 172.316C85.1612 172.316 85.6612 172.44 86.0852 172.688C86.5092 172.936 86.8252 173.248 87.0332 173.624V172.424H88.1372V179H87.0332V177.776C86.8172 178.16 86.4932 178.48 86.0612 178.736C85.6372 178.984 85.1412 179.108 84.5732 179.108C83.9892 179.108 83.4612 178.964 82.9892 178.676C82.5172 178.388 82.1452 177.984 81.8732 177.464C81.6012 176.944 81.4652 176.352 81.4652 175.688ZM87.0332 175.7C87.0332 175.204 86.9332 174.772 86.7332 174.404C86.5332 174.036 86.2612 173.756 85.9172 173.564C85.5812 173.364 85.2092 173.264 84.8012 173.264C84.3932 173.264 84.0212 173.36 83.6852 173.552C83.3492 173.744 83.0812 174.024 82.8812 174.392C82.6812 174.76 82.5812 175.192 82.5812 175.688C82.5812 176.192 82.6812 176.632 82.8812 177.008C83.0812 177.376 83.3492 177.66 83.6852 177.86C84.0212 178.052 84.3932 178.148 84.8012 178.148C85.2092 178.148 85.5812 178.052 85.9172 177.86C86.2612 177.66 86.5332 177.376 86.7332 177.008C86.9332 176.632 87.0332 176.196 87.0332 175.7ZM89.5746 175.7C89.5746 175.02 89.7106 174.428 89.9826 173.924C90.2546 173.412 90.6306 173.016 91.1106 172.736C91.5986 172.456 92.1546 172.316 92.7786 172.316C93.5866 172.316 94.2506 172.512 94.7706 172.904C95.2986 173.296 95.6466 173.84 95.8146 174.536H94.6386C94.5266 174.136 94.3066 173.82 93.9786 173.588C93.6586 173.356 93.2586 173.24 92.7786 173.24C92.1546 173.24 91.6506 173.456 91.2666 173.888C90.8826 174.312 90.6906 174.916 90.6906 175.7C90.6906 176.492 90.8826 177.104 91.2666 177.536C91.6506 177.968 92.1546 178.184 92.7786 178.184C93.2586 178.184 93.6586 178.072 93.9786 177.848C94.2986 177.624 94.5186 177.304 94.6386 176.888H95.8146C95.6386 177.56 95.2866 178.1 94.7586 178.508C94.2306 178.908 93.5706 179.108 92.7786 179.108C92.1546 179.108 91.5986 178.968 91.1106 178.688C90.6306 178.408 90.2546 178.012 89.9826 177.5C89.7106 176.988 89.5746 176.388 89.5746 175.7ZM100.944 179L98.3637 176.096V179H97.2717V170.12H98.3637V175.34L100.896 172.424H102.42L99.3237 175.7L102.432 179H100.944ZM103.039 175.688C103.039 175.016 103.175 174.428 103.447 173.924C103.719 173.412 104.091 173.016 104.563 172.736C105.043 172.456 105.575 172.316 106.159 172.316C106.735 172.316 107.235 172.44 107.659 172.688C108.083 172.936 108.399 173.248 108.607 173.624V172.424H109.711V179H108.607V177.776C108.391 178.16 108.067 178.48 107.635 178.736C107.211 178.984 106.715 179.108 106.147 179.108C105.563 179.108 105.035 178.964 104.563 178.676C104.091 178.388 103.719 177.984 103.447 177.464C103.175 176.944 103.039 176.352 103.039 175.688ZM108.607 175.7C108.607 175.204 108.507 174.772 108.307 174.404C108.107 174.036 107.835 173.756 107.491 173.564C107.155 173.364 106.783 173.264 106.375 173.264C105.967 173.264 105.595 173.36 105.259 173.552C104.923 173.744 104.655 174.024 104.455 174.392C104.255 174.76 104.155 175.192 104.155 175.688C104.155 176.192 104.255 176.632 104.455 177.008C104.655 177.376 104.923 177.66 105.259 177.86C105.595 178.052 105.967 178.148 106.375 178.148C106.783 178.148 107.155 178.052 107.491 177.86C107.835 177.66 108.107 177.376 108.307 177.008C108.507 176.632 108.607 176.196 108.607 175.7ZM114.269 172.316C114.837 172.316 115.333 172.44 115.757 172.688C116.189 172.936 116.509 173.248 116.717 173.624V172.424H117.821V179.144C117.821 179.744 117.693 180.276 117.437 180.74C117.181 181.212 116.813 181.58 116.333 181.844C115.861 182.108 115.309 182.24 114.677 182.24C113.813 182.24 113.093 182.036 112.517 181.628C111.941 181.22 111.601 180.664 111.497 179.96H112.577C112.697 180.36 112.945 180.68 113.321 180.92C113.697 181.168 114.149 181.292 114.677 181.292C115.277 181.292 115.765 181.104 116.141 180.728C116.525 180.352 116.717 179.824 116.717 179.144V177.764C116.501 178.148 116.181 178.468 115.757 178.724C115.333 178.98 114.837 179.108 114.269 179.108C113.685 179.108 113.153 178.964 112.673 178.676C112.201 178.388 111.829 177.984 111.557 177.464C111.285 176.944 111.149 176.352 111.149 175.688C111.149 175.016 111.285 174.428 111.557 173.924C111.829 173.412 112.201 173.016 112.673 172.736C113.153 172.456 113.685 172.316 114.269 172.316ZM116.717 175.7C116.717 175.204 116.617 174.772 116.417 174.404C116.217 174.036 115.945 173.756 115.601 173.564C115.265 173.364 114.893 173.264 114.485 173.264C114.077 173.264 113.705 173.36 113.369 173.552C113.033 173.744 112.765 174.024 112.565 174.392C112.365 174.76 112.265 175.192 112.265 175.688C112.265 176.192 112.365 176.632 112.565 177.008C112.765 177.376 113.033 177.66 113.369 177.86C113.705 178.052 114.077 178.148 114.485 178.148C114.893 178.148 115.265 178.052 115.601 177.86C115.945 177.66 116.217 177.376 116.417 177.008C116.617 176.632 116.717 176.196 116.717 175.7ZM120.23 171.356C120.022 171.356 119.846 171.284 119.702 171.14C119.558 170.996 119.486 170.82 119.486 170.612C119.486 170.404 119.558 170.228 119.702 170.084C119.846 169.94 120.022 169.868 120.23 169.868C120.43 169.868 120.598 169.94 120.734 170.084C120.878 170.228 120.95 170.404 120.95 170.612C120.95 170.82 120.878 170.996 120.734 171.14C120.598 171.284 120.43 171.356 120.23 171.356ZM120.758 172.424V179H119.666V172.424H120.758ZM125.823 172.304C126.623 172.304 127.271 172.548 127.767 173.036C128.263 173.516 128.511 174.212 128.511 175.124V179H127.431V175.28C127.431 174.624 127.267 174.124 126.939 173.78C126.611 173.428 126.163 173.252 125.595 173.252C125.019 173.252 124.559 173.432 124.215 173.792C123.879 174.152 123.711 174.676 123.711 175.364V179H122.619V172.424H123.711V173.36C123.927 173.024 124.219 172.764 124.587 172.58C124.963 172.396 125.375 172.304 125.823 172.304ZM133.007 172.316C133.575 172.316 134.071 172.44 134.495 172.688C134.927 172.936 135.247 173.248 135.455 173.624V172.424H136.559V179.144C136.559 179.744 136.431 180.276 136.175 180.74C135.919 181.212 135.551 181.58 135.071 181.844C134.599 182.108 134.047 182.24 133.415 182.24C132.551 182.24 131.831 182.036 131.255 181.628C130.679 181.22 130.339 180.664 130.235 179.96H131.315C131.435 180.36 131.683 180.68 132.059 180.92C132.435 181.168 132.887 181.292 133.415 181.292C134.015 181.292 134.503 181.104 134.879 180.728C135.263 180.352 135.455 179.824 135.455 179.144V177.764C135.239 178.148 134.919 178.468 134.495 178.724C134.071 178.98 133.575 179.108 133.007 179.108C132.423 179.108 131.891 178.964 131.411 178.676C130.939 178.388 130.567 177.984 130.295 177.464C130.023 176.944 129.887 176.352 129.887 175.688C129.887 175.016 130.023 174.428 130.295 173.924C130.567 173.412 130.939 173.016 131.411 172.736C131.891 172.456 132.423 172.316 133.007 172.316ZM135.455 175.7C135.455 175.204 135.355 174.772 135.155 174.404C134.955 174.036 134.683 173.756 134.339 173.564C134.003 173.364 133.631 173.264 133.223 173.264C132.815 173.264 132.443 173.36 132.107 173.552C131.771 173.744 131.503 174.024 131.303 174.392C131.103 174.76 131.003 175.192 131.003 175.688C131.003 176.192 131.103 176.632 131.303 177.008C131.503 177.376 131.771 177.66 132.107 177.86C132.443 178.052 132.815 178.148 133.223 178.148C133.631 178.148 134.003 178.052 134.339 177.86C134.683 177.66 134.955 177.376 135.155 177.008C135.355 176.632 135.455 176.196 135.455 175.7Z" fill="black"/>
<circle cx="50" cy="175" r="16" fill="#1A3EFB"/>
<path d="M44.5 179.301C44.5 180.383 45.0064 181.306 46.0193 182.068C46.8297 182.653 47.7758 182.963 48.8578 182.997C48.9682 183 49.0578 182.91 49.0578 182.8V181.335C49.0578 181.225 48.9678 181.136 48.8574 181.132C47.4305 181.086 46.58 180.536 46.3059 179.481C46.2486 179.261 46.2199 179.04 46.2199 178.82V177.857C46.239 177.396 46.3537 177.055 46.5639 176.835C46.8506 176.534 47.9876 176.143 49.9751 175.662C51.5803 175.261 52.6505 174.92 53.1856 174.639V178.429C53.1856 180.093 52.3925 180.985 50.8064 181.105C50.7468 181.114 50.6892 181.121 50.6334 181.126C50.5234 181.136 50.4337 181.225 50.4337 181.335V182.8C50.4337 182.91 50.5235 183 50.6339 182.997C51.8953 182.965 52.8892 182.625 53.6156 181.977C53.6347 181.957 53.6538 181.937 53.6729 181.917C54.1668 182.584 54.8072 182.942 55.5941 182.994C55.7044 183.001 55.7941 182.91 55.7941 182.8V181.289C55.7941 181.185 55.7132 181.102 55.6132 181.073C55.2535 180.971 55.0654 180.65 55.0488 180.113V175.902V171.692C55.0488 170.348 54.5711 169.206 53.6156 168.263C52.8015 167.466 51.8075 167.046 50.6338 167.004C50.5234 167 50.4337 167.09 50.4337 167.2V168.605C50.4337 168.715 50.5235 168.804 50.6337 168.811C51.4585 168.866 52.1276 169.265 52.6409 170.008C52.9849 170.509 53.1569 171.08 53.1569 171.722V172.263C53.176 172.764 52.0199 173.326 49.6884 173.947C47.5099 174.529 46.2581 174.91 45.9333 175.09C44.9969 175.652 44.5191 176.584 44.5 177.887V179.301ZM44.7004 170.869C44.6991 170.948 44.7484 171.02 44.8222 171.05L46.1162 171.579C46.2478 171.633 46.3922 171.536 46.403 171.394C46.4789 170.403 46.9434 169.67 47.7965 169.195C48.139 169.007 48.5024 168.899 48.8866 168.872C48.9968 168.864 49.0864 168.775 49.0864 168.665V167.2C49.0864 167.09 48.9967 167 48.8864 167.004C47.6728 167.051 46.6311 167.531 45.7613 168.444C45.069 169.17 44.7154 169.978 44.7004 170.869Z" fill="white"/>
<path d="M199.016 170.636V179H197.924V170.636H199.016ZM201.969 170.12V179H200.877V170.12H201.969ZM204.922 170.12V179H203.83V170.12H204.922ZM212.615 172.424V179H211.523V178.028C211.315 178.364 211.023 178.628 210.647 178.82C210.279 179.004 209.871 179.096 209.423 179.096C208.911 179.096 208.451 178.992 208.043 178.784C207.635 178.568 207.311 178.248 207.071 177.824C206.839 177.4 206.723 176.884 206.723 176.276V172.424H207.803V176.132C207.803 176.78 207.967 177.28 208.295 177.632C208.623 177.976 209.071 178.148 209.639 178.148C210.223 178.148 210.683 177.968 211.019 177.608C211.355 177.248 211.523 176.724 211.523 176.036V172.424H212.615ZM216.787 179.108C216.283 179.108 215.831 179.024 215.431 178.856C215.031 178.68 214.715 178.44 214.483 178.136C214.251 177.824 214.123 177.468 214.099 177.068H215.227C215.259 177.396 215.411 177.664 215.683 177.872C215.963 178.08 216.327 178.184 216.775 178.184C217.191 178.184 217.519 178.092 217.759 177.908C217.999 177.724 218.119 177.492 218.119 177.212C218.119 176.924 217.991 176.712 217.735 176.576C217.479 176.432 217.083 176.292 216.547 176.156C216.059 176.028 215.659 175.9 215.347 175.772C215.043 175.636 214.779 175.44 214.555 175.184C214.339 174.92 214.231 174.576 214.231 174.152C214.231 173.816 214.331 173.508 214.531 173.228C214.731 172.948 215.015 172.728 215.383 172.568C215.751 172.4 216.171 172.316 216.643 172.316C217.371 172.316 217.959 172.5 218.407 172.868C218.855 173.236 219.095 173.74 219.127 174.38H218.035C218.011 174.036 217.871 173.76 217.615 173.552C217.367 173.344 217.031 173.24 216.607 173.24C216.215 173.24 215.903 173.324 215.671 173.492C215.439 173.66 215.323 173.88 215.323 174.152C215.323 174.368 215.391 174.548 215.527 174.692C215.671 174.828 215.847 174.94 216.055 175.028C216.271 175.108 216.567 175.2 216.943 175.304C217.415 175.432 217.799 175.56 218.095 175.688C218.391 175.808 218.643 175.992 218.851 176.24C219.067 176.488 219.179 176.812 219.187 177.212C219.187 177.572 219.087 177.896 218.887 178.184C218.687 178.472 218.403 178.7 218.035 178.868C217.675 179.028 217.259 179.108 216.787 179.108ZM222.061 173.324V177.2C222.061 177.52 222.129 177.748 222.265 177.884C222.401 178.012 222.637 178.076 222.973 178.076H223.777V179H222.793C222.185 179 221.729 178.86 221.425 178.58C221.121 178.3 220.969 177.84 220.969 177.2V173.324H220.117V172.424H220.969V170.768H222.061V172.424H223.777V173.324H222.061ZM226.192 173.492C226.384 173.116 226.656 172.824 227.008 172.616C227.368 172.408 227.804 172.304 228.316 172.304V173.432H228.028C226.804 173.432 226.192 174.096 226.192 175.424V179H225.1V172.424H226.192V173.492ZM229.168 175.688C229.168 175.016 229.304 174.428 229.576 173.924C229.848 173.412 230.22 173.016 230.692 172.736C231.172 172.456 231.704 172.316 232.288 172.316C232.864 172.316 233.364 172.44 233.788 172.688C234.212 172.936 234.528 173.248 234.736 173.624V172.424H235.84V179H234.736V177.776C234.52 178.16 234.196 178.48 233.764 178.736C233.34 178.984 232.844 179.108 232.276 179.108C231.692 179.108 231.164 178.964 230.692 178.676C230.22 178.388 229.848 177.984 229.576 177.464C229.304 176.944 229.168 176.352 229.168 175.688ZM234.736 175.7C234.736 175.204 234.636 174.772 234.436 174.404C234.236 174.036 233.964 173.756 233.62 173.564C233.284 173.364 232.912 173.264 232.504 173.264C232.096 173.264 231.724 173.36 231.388 173.552C231.052 173.744 230.784 174.024 230.584 174.392C230.384 174.76 230.284 175.192 230.284 175.688C230.284 176.192 230.384 176.632 230.584 177.008C230.784 177.376 231.052 177.66 231.388 177.86C231.724 178.052 232.096 178.148 232.504 178.148C232.912 178.148 233.284 178.052 233.62 177.86C233.964 177.66 234.236 177.376 234.436 177.008C234.636 176.632 234.736 176.196 234.736 175.7ZM239.018 173.324V177.2C239.018 177.52 239.086 177.748 239.222 177.884C239.358 178.012 239.594 178.076 239.93 178.076H240.734V179H239.75C239.142 179 238.686 178.86 238.382 178.58C238.078 178.3 237.926 177.84 237.926 177.2V173.324H237.074V172.424H237.926V170.768H239.018V172.424H240.734V173.324H239.018ZM242.621 171.356C242.413 171.356 242.237 171.284 242.093 171.14C241.949 170.996 241.877 170.82 241.877 170.612C241.877 170.404 241.949 170.228 242.093 170.084C242.237 169.94 242.413 169.868 242.621 169.868C242.821 169.868 242.989 169.94 243.125 170.084C243.269 170.228 243.341 170.404 243.341 170.612C243.341 170.82 243.269 170.996 243.125 171.14C242.989 171.284 242.821 171.356 242.621 171.356ZM243.149 172.424V179H242.057V172.424H243.149ZM247.878 179.108C247.262 179.108 246.702 178.968 246.198 178.688C245.702 178.408 245.31 178.012 245.022 177.5C244.742 176.98 244.602 176.38 244.602 175.7C244.602 175.028 244.746 174.436 245.034 173.924C245.33 173.404 245.73 173.008 246.234 172.736C246.738 172.456 247.302 172.316 247.926 172.316C248.55 172.316 249.114 172.456 249.618 172.736C250.122 173.008 250.518 173.4 250.806 173.912C251.102 174.424 251.25 175.02 251.25 175.7C251.25 176.38 251.098 176.98 250.794 177.5C250.498 178.012 250.094 178.408 249.582 178.688C249.07 178.968 248.502 179.108 247.878 179.108ZM247.878 178.148C248.27 178.148 248.638 178.056 248.982 177.872C249.326 177.688 249.602 177.412 249.81 177.044C250.026 176.676 250.134 176.228 250.134 175.7C250.134 175.172 250.03 174.724 249.822 174.356C249.614 173.988 249.342 173.716 249.006 173.54C248.67 173.356 248.306 173.264 247.914 173.264C247.514 173.264 247.146 173.356 246.81 173.54C246.482 173.716 246.218 173.988 246.018 174.356C245.818 174.724 245.718 175.172 245.718 175.7C245.718 176.236 245.814 176.688 246.006 177.056C246.206 177.424 246.47 177.7 246.798 177.884C247.126 178.06 247.486 178.148 247.878 178.148ZM255.89 172.304C256.69 172.304 257.338 172.548 257.834 173.036C258.33 173.516 258.578 174.212 258.578 175.124V179H257.498V175.28C257.498 174.624 257.334 174.124 257.006 173.78C256.678 173.428 256.23 173.252 255.662 173.252C255.086 173.252 254.626 173.432 254.282 173.792C253.946 174.152 253.778 174.676 253.778 175.364V179H252.686V172.424H253.778V173.36C253.994 173.024 254.286 172.764 254.654 172.58C255.03 172.396 255.442 172.304 255.89 172.304Z" fill="black"/>
<circle cx="173" cy="175" r="16" fill="#1A3EFB"/>
<path d="M176.105 177.945C176.062 177.784 176.222 177.645 176.375 177.708L182.563 180.272C182.724 180.339 182.728 180.566 182.57 180.638L180.583 181.546L182.51 183.752C182.783 184.065 182.749 184.541 182.435 184.812V184.812C182.123 185.08 181.653 185.047 181.382 184.737L179.434 182.503L178.169 184.37C178.073 184.512 177.855 184.476 177.811 184.31L176.105 177.945Z" fill="white"/>
<path fill-rule="evenodd" clip-rule="evenodd" d="M173 166.25C173.414 166.25 173.75 166.586 173.75 167V172C173.75 172.414 173.414 172.75 173 172.75C172.586 172.75 172.25 172.414 172.25 172V167C172.25 166.586 172.586 166.25 173 166.25ZM168.47 170.47C168.763 170.177 169.237 170.177 169.53 170.47L171.53 172.47C171.823 172.763 171.823 173.237 171.53 173.53C171.237 173.823 170.763 173.823 170.47 173.53L168.47 171.53C168.177 171.237 168.177 170.763 168.47 170.47ZM177.53 170.47C177.823 170.763 177.823 171.237 177.53 171.53L175.53 173.53C175.237 173.823 174.763 173.823 174.47 173.53C174.177 173.237 174.177 172.763 174.47 172.47L176.47 170.47C176.763 170.177 177.237 170.177 177.53 170.47ZM164.25 175C164.25 174.586 164.586 174.25 165 174.25H170C170.414 174.25 170.75 174.586 170.75 175C170.75 175.414 170.414 175.75 170 175.75H165C164.586 175.75 164.25 175.414 164.25 175ZM175.25 175C175.25 174.586 175.586 174.25 176 174.25H181C181.414 174.25 181.75 174.586 181.75 175C181.75 175.414 181.414 175.75 181 175.75H176C175.586 175.75 175.25 175.414 175.25 175ZM171.53 176.47C171.823 176.763 171.823 177.237 171.53 177.53L169.53 179.53C169.237 179.823 168.763 179.823 168.47 179.53C168.177 179.237 168.177 178.763 168.47 178.47L170.47 176.47C170.763 176.177 171.237 176.177 171.53 176.47ZM173 177.25C173.414 177.25 173.75 177.586 173.75 178V183C173.75 183.414 173.414 183.75 173 183.75C172.586 183.75 172.25 183.414 172.25 183V178C172.25 177.586 172.586 177.25 173 177.25Z" fill="white"/>
<path d="M42.764 59.456C44.8173 59.456 46.6187 59.8573 48.168 60.66C49.736 61.4627 50.94 62.6107 51.78 64.104C52.6387 65.5787 53.068 67.296 53.068 69.256C53.068 71.216 52.6387 72.9333 51.78 74.408C50.94 75.864 49.736 76.9933 48.168 77.796C46.6187 78.5987 44.8173 79 42.764 79H35.932V59.456H42.764ZM42.624 75.668C44.6773 75.668 46.264 75.108 47.384 73.988C48.504 72.868 49.064 71.2907 49.064 69.256C49.064 67.2213 48.504 65.6347 47.384 64.496C46.264 63.3387 44.6773 62.76 42.624 62.76H39.852V75.668H42.624ZM71.0383 79L68.9103 76.9C67.0996 78.524 64.8876 79.336 62.2743 79.336C60.837 79.336 59.5676 79.0933 58.4663 78.608C57.3836 78.104 56.5436 77.404 55.9463 76.508C55.349 75.5933 55.0503 74.5387 55.0503 73.344C55.0503 72.056 55.4143 70.8987 56.1423 69.872C56.8703 68.8453 57.9436 68.0147 59.3623 67.38C58.8583 66.764 58.4943 66.176 58.2703 65.616C58.0463 65.0373 57.9343 64.4213 57.9343 63.768C57.9343 62.872 58.1676 62.0693 58.6343 61.36C59.101 60.632 59.7636 60.0627 60.6223 59.652C61.4996 59.2413 62.517 59.036 63.6743 59.036C64.8503 59.036 65.8583 59.26 66.6983 59.708C67.5383 60.156 68.1636 60.7533 68.5743 61.5C68.985 62.2467 69.1623 63.0773 69.1063 63.992H65.2983C65.317 63.376 65.1676 62.9093 64.8503 62.592C64.533 62.256 64.1036 62.088 63.5623 62.088C63.0396 62.088 62.601 62.2467 62.2463 62.564C61.9103 62.8627 61.7423 63.2547 61.7423 63.74C61.7423 64.2067 61.8823 64.6733 62.1623 65.14C62.4423 65.588 62.8996 66.148 63.5343 66.82L68.4623 71.692C68.4996 71.6547 68.5276 71.6173 68.5463 71.58C68.565 71.5427 68.5836 71.5053 68.6023 71.468L70.1983 68.808H74.2863L72.3263 72.252C71.953 72.98 71.5516 73.6707 71.1223 74.324L75.8543 79H71.0383ZM62.3863 76.088C63.917 76.088 65.2703 75.5467 66.4463 74.464L61.6303 69.704C59.8196 70.5067 58.9143 71.6453 58.9143 73.12C58.9143 73.96 59.2316 74.6693 59.8663 75.248C60.501 75.808 61.341 76.088 62.3863 76.088ZM89.7793 75.276H81.9953L80.7073 79H76.5913L83.6193 59.428H88.1833L95.2113 79H91.0673L89.7793 75.276ZM88.7153 72.14L85.8873 63.964L83.0593 72.14H88.7153ZM104.67 59.456C106.724 59.456 108.525 59.8573 110.074 60.66C111.642 61.4627 112.846 62.6107 113.686 64.104C114.545 65.5787 114.974 67.296 114.974 69.256C114.974 71.216 114.545 72.9333 113.686 74.408C112.846 75.864 111.642 76.9933 110.074 77.796C108.525 78.5987 106.724 79 104.67 79H97.8383V59.456H104.67ZM104.53 75.668C106.584 75.668 108.17 75.108 109.29 73.988C110.41 72.868 110.97 71.2907 110.97 69.256C110.97 67.2213 110.41 65.6347 109.29 64.496C108.17 63.3387 106.584 62.76 104.53 62.76H101.758V75.668H104.53ZM131.328 79.196C129.966 79.196 128.734 78.9627 127.632 78.496C126.55 78.0293 125.691 77.3573 125.056 76.48C124.422 75.6027 124.095 74.5667 124.076 73.372H128.276C128.332 74.1747 128.612 74.8093 129.116 75.276C129.639 75.7427 130.348 75.976 131.244 75.976C132.159 75.976 132.878 75.7613 133.4 75.332C133.923 74.884 134.184 74.3053 134.184 73.596C134.184 73.0173 134.007 72.5413 133.652 72.168C133.298 71.7947 132.85 71.5053 132.308 71.3C131.786 71.076 131.058 70.8333 130.124 70.572C128.855 70.1987 127.819 69.8347 127.016 69.48C126.232 69.1067 125.551 68.556 124.972 67.828C124.412 67.0813 124.132 66.092 124.132 64.86C124.132 63.7027 124.422 62.6947 125 61.836C125.579 60.9773 126.391 60.324 127.436 59.876C128.482 59.4093 129.676 59.176 131.02 59.176C133.036 59.176 134.67 59.6707 135.92 60.66C137.19 61.6307 137.89 62.9933 138.02 64.748H133.708C133.671 64.076 133.382 63.5253 132.84 63.096C132.318 62.648 131.618 62.424 130.74 62.424C129.975 62.424 129.359 62.62 128.892 63.012C128.444 63.404 128.22 63.9733 128.22 64.72C128.22 65.2427 128.388 65.6813 128.724 66.036C129.079 66.372 129.508 66.652 130.012 66.876C130.535 67.0813 131.263 67.324 132.196 67.604C133.466 67.9773 134.502 68.3507 135.304 68.724C136.107 69.0973 136.798 69.6573 137.376 70.404C137.955 71.1507 138.244 72.1307 138.244 73.344C138.244 74.3893 137.974 75.36 137.432 76.256C136.891 77.152 136.098 77.8707 135.052 78.412C134.007 78.9347 132.766 79.196 131.328 79.196ZM146.207 66.708V74.212C146.207 74.7347 146.328 75.1173 146.571 75.36C146.832 75.584 147.262 75.696 147.859 75.696H149.679V79H147.215C143.911 79 142.259 77.3947 142.259 74.184V66.708H140.411V63.488H142.259V59.652H146.207V63.488H149.679V66.708H146.207ZM167.142 63.488V79H163.194V77.04C162.69 77.712 162.028 78.244 161.206 78.636C160.404 79.0093 159.526 79.196 158.574 79.196C157.361 79.196 156.288 78.944 155.354 78.44C154.421 77.9173 153.684 77.1613 153.142 76.172C152.62 75.164 152.358 73.9693 152.358 72.588V63.488H156.278V72.028C156.278 73.26 156.586 74.212 157.202 74.884C157.818 75.5373 158.658 75.864 159.722 75.864C160.805 75.864 161.654 75.5373 162.27 74.884C162.886 74.212 163.194 73.26 163.194 72.028V63.488H167.142ZM170.002 71.188C170.002 69.62 170.31 68.2293 170.926 67.016C171.561 65.8027 172.419 64.8693 173.502 64.216C174.585 63.5627 175.789 63.236 177.114 63.236C178.122 63.236 179.083 63.46 179.998 63.908C180.913 64.3373 181.641 64.916 182.182 65.644V58.28H186.158V79H182.182V76.704C181.697 77.4693 181.015 78.0853 180.138 78.552C179.261 79.0187 178.243 79.252 177.086 79.252C175.779 79.252 174.585 78.916 173.502 78.244C172.419 77.572 171.561 76.6293 170.926 75.416C170.31 74.184 170.002 72.7747 170.002 71.188ZM182.21 71.244C182.21 70.292 182.023 69.48 181.65 68.808C181.277 68.1173 180.773 67.5947 180.138 67.24C179.503 66.8667 178.822 66.68 178.094 66.68C177.366 66.68 176.694 66.8573 176.078 67.212C175.462 67.5667 174.958 68.0893 174.566 68.78C174.193 69.452 174.006 70.2547 174.006 71.188C174.006 72.1213 174.193 72.9427 174.566 73.652C174.958 74.3427 175.462 74.8747 176.078 75.248C176.713 75.6213 177.385 75.808 178.094 75.808C178.822 75.808 179.503 75.6307 180.138 75.276C180.773 74.9027 181.277 74.38 181.65 73.708C182.023 73.0173 182.21 72.196 182.21 71.244ZM204.407 70.908C204.407 71.468 204.369 71.972 204.295 72.42H192.955C193.048 73.54 193.44 74.4173 194.131 75.052C194.821 75.6867 195.671 76.004 196.679 76.004C198.135 76.004 199.171 75.3787 199.787 74.128H204.015C203.567 75.6213 202.708 76.8533 201.439 77.824C200.169 78.776 198.611 79.252 196.763 79.252C195.269 79.252 193.925 78.9253 192.731 78.272C191.555 77.6 190.631 76.6573 189.959 75.444C189.305 74.2307 188.979 72.8307 188.979 71.244C188.979 69.6387 189.305 68.2293 189.959 67.016C190.612 65.8027 191.527 64.8693 192.703 64.216C193.879 63.5627 195.232 63.236 196.763 63.236C198.237 63.236 199.553 63.5533 200.711 64.188C201.887 64.8227 202.792 65.728 203.427 66.904C204.08 68.0613 204.407 69.396 204.407 70.908ZM200.347 69.788C200.328 68.78 199.964 67.9773 199.255 67.38C198.545 66.764 197.677 66.456 196.651 66.456C195.68 66.456 194.859 66.7547 194.187 67.352C193.533 67.9307 193.132 68.7427 192.983 69.788H200.347ZM215.864 63.264C217.712 63.264 219.205 63.852 220.344 65.028C221.483 66.1853 222.052 67.8093 222.052 69.9V79H218.132V70.432C218.132 69.2 217.824 68.2573 217.208 67.604C216.592 66.932 215.752 66.596 214.688 66.596C213.605 66.596 212.747 66.932 212.112 67.604C211.496 68.2573 211.188 69.2 211.188 70.432V79H207.268V63.488H211.188V65.42C211.711 64.748 212.373 64.2253 213.176 63.852C213.997 63.46 214.893 63.264 215.864 63.264ZM230.344 66.708V74.212C230.344 74.7347 230.465 75.1173 230.708 75.36C230.969 75.584 231.398 75.696 231.996 75.696H233.816V79H231.352C228.048 79 226.396 77.3947 226.396 74.184V66.708H224.548V63.488H226.396V59.652H230.344V63.488H233.816V66.708H230.344ZM255.291 75.276H247.507L246.219 79H242.103L249.131 59.428H253.695L260.723 79H256.579L255.291 75.276ZM254.227 72.14L251.399 63.964L248.571 72.14H254.227ZM284.854 63.488L280.318 79H276.09L273.262 68.164L270.434 79H266.178L261.614 63.488H265.59L268.334 75.304L271.302 63.488H275.446L278.358 75.276L281.102 63.488H284.854ZM285.967 71.188C285.967 69.62 286.275 68.2293 286.891 67.016C287.526 65.8027 288.375 64.8693 289.439 64.216C290.522 63.5627 291.726 63.236 293.051 63.236C294.208 63.236 295.216 63.4693 296.075 63.936C296.952 64.4027 297.652 64.9907 298.175 65.7V63.488H302.123V79H298.175V76.732C297.671 77.46 296.971 78.0667 296.075 78.552C295.198 79.0187 294.18 79.252 293.023 79.252C291.716 79.252 290.522 78.916 289.439 78.244C288.375 77.572 287.526 76.6293 286.891 75.416C286.275 74.184 285.967 72.7747 285.967 71.188ZM298.175 71.244C298.175 70.292 297.988 69.48 297.615 68.808C297.242 68.1173 296.738 67.5947 296.103 67.24C295.468 66.8667 294.787 66.68 294.059 66.68C293.331 66.68 292.659 66.8573 292.043 67.212C291.427 67.5667 290.923 68.0893 290.531 68.78C290.158 69.452 289.971 70.2547 289.971 71.188C289.971 72.1213 290.158 72.9427 290.531 73.652C290.923 74.3427 291.427 74.8747 292.043 75.248C292.678 75.6213 293.35 75.808 294.059 75.808C294.787 75.808 295.468 75.6307 296.103 75.276C296.738 74.9027 297.242 74.38 297.615 73.708C297.988 73.0173 298.175 72.196 298.175 71.244ZM309.872 65.896C310.376 65.0747 311.029 64.4307 311.832 63.964C312.653 63.4973 313.586 63.264 314.632 63.264V67.38H313.596C312.364 67.38 311.43 67.6693 310.796 68.248C310.18 68.8267 309.872 69.8347 309.872 71.272V79H305.952V63.488H309.872V65.896ZM316.264 71.188C316.264 69.62 316.572 68.2293 317.188 67.016C317.823 65.8027 318.681 64.8693 319.764 64.216C320.847 63.5627 322.051 63.236 323.376 63.236C324.384 63.236 325.345 63.46 326.26 63.908C327.175 64.3373 327.903 64.916 328.444 65.644V58.28H332.42V79H328.444V76.704C327.959 77.4693 327.277 78.0853 326.4 78.552C325.523 79.0187 324.505 79.252 323.348 79.252C322.041 79.252 320.847 78.916 319.764 78.244C318.681 77.572 317.823 76.6293 317.188 75.416C316.572 74.184 316.264 72.7747 316.264 71.188ZM328.472 71.244C328.472 70.292 328.285 69.48 327.912 68.808C327.539 68.1173 327.035 67.5947 326.4 67.24C325.765 66.8667 325.084 66.68 324.356 66.68C323.628 66.68 322.956 66.8573 322.34 67.212C321.724 67.5667 321.22 68.0893 320.828 68.78C320.455 69.452 320.268 70.2547 320.268 71.188C320.268 72.1213 320.455 72.9427 320.828 73.652C321.22 74.3427 321.724 74.8747 322.34 75.248C322.975 75.6213 323.647 75.808 324.356 75.808C325.084 75.808 325.765 75.6307 326.4 75.276C327.035 74.9027 327.539 74.38 327.912 73.708C328.285 73.0173 328.472 72.196 328.472 71.244ZM342.184 79.252C340.915 79.252 339.776 79.028 338.768 78.58C337.76 78.1133 336.958 77.488 336.36 76.704C335.782 75.92 335.464 75.052 335.408 74.1H339.356C339.431 74.6973 339.72 75.192 340.224 75.584C340.747 75.976 341.391 76.172 342.156 76.172C342.903 76.172 343.482 76.0227 343.892 75.724C344.322 75.4253 344.536 75.0427 344.536 74.576C344.536 74.072 344.275 73.6987 343.752 73.456C343.248 73.1947 342.436 72.9147 341.316 72.616C340.159 72.336 339.207 72.0467 338.46 71.748C337.732 71.4493 337.098 70.992 336.556 70.376C336.034 69.76 335.772 68.9293 335.772 67.884C335.772 67.0253 336.015 66.2413 336.5 65.532C337.004 64.8227 337.714 64.2627 338.628 63.852C339.562 63.4413 340.654 63.236 341.904 63.236C343.752 63.236 345.227 63.7027 346.328 64.636C347.43 65.5507 348.036 66.792 348.148 68.36H344.396C344.34 67.744 344.079 67.2587 343.612 66.904C343.164 66.5307 342.558 66.344 341.792 66.344C341.083 66.344 340.532 66.4747 340.14 66.736C339.767 66.9973 339.58 67.3613 339.58 67.828C339.58 68.3507 339.842 68.752 340.364 69.032C340.887 69.2933 341.699 69.564 342.8 69.844C343.92 70.124 344.844 70.4133 345.572 70.712C346.3 71.0107 346.926 71.4773 347.448 72.112C347.99 72.728 348.27 73.5493 348.288 74.576C348.288 75.472 348.036 76.2747 347.532 76.984C347.047 77.6933 346.338 78.2533 345.404 78.664C344.49 79.056 343.416 79.252 342.184 79.252Z" fill="#1A3EFB"/>
<path d="M42.52 104.82C43.0267 104.9 43.4867 105.107 43.9 105.44C44.3267 105.773 44.66 106.187 44.9 106.68C45.1533 107.173 45.28 107.7 45.28 108.26C45.28 108.967 45.1 109.607 44.74 110.18C44.38 110.74 43.8533 111.187 43.16 111.52C42.48 111.84 41.6733 112 40.74 112H35.54V98.06H40.54C41.4867 98.06 42.2933 98.22 42.96 98.54C43.6267 98.8467 44.1267 99.2667 44.46 99.8C44.7933 100.333 44.96 100.933 44.96 101.6C44.96 102.427 44.7333 103.113 44.28 103.66C43.84 104.193 43.2533 104.58 42.52 104.82ZM37.36 104.08H40.42C41.2733 104.08 41.9333 103.88 42.4 103.48C42.8667 103.08 43.1 102.527 43.1 101.82C43.1 101.113 42.8667 100.56 42.4 100.16C41.9333 99.76 41.26 99.56 40.38 99.56H37.36V104.08ZM40.58 110.5C41.4867 110.5 42.1933 110.287 42.7 109.86C43.2067 109.433 43.46 108.84 43.46 108.08C43.46 107.307 43.1933 106.7 42.66 106.26C42.1267 105.807 41.4133 105.58 40.52 105.58H37.36V110.5H40.58ZM52.5856 112.18C51.559 112.18 50.6256 111.947 49.7856 111.48C48.959 111.013 48.3056 110.353 47.8256 109.5C47.359 108.633 47.1256 107.633 47.1256 106.5C47.1256 105.38 47.3656 104.393 47.8456 103.54C48.339 102.673 49.0056 102.013 49.8456 101.56C50.6856 101.093 51.6256 100.86 52.6656 100.86C53.7056 100.86 54.6456 101.093 55.4856 101.56C56.3256 102.013 56.9856 102.667 57.4656 103.52C57.959 104.373 58.2056 105.367 58.2056 106.5C58.2056 107.633 57.9523 108.633 57.4456 109.5C56.9523 110.353 56.279 111.013 55.4256 111.48C54.5723 111.947 53.6256 112.18 52.5856 112.18ZM52.5856 110.58C53.239 110.58 53.8523 110.427 54.4256 110.12C54.999 109.813 55.459 109.353 55.8056 108.74C56.1656 108.127 56.3456 107.38 56.3456 106.5C56.3456 105.62 56.1723 104.873 55.8256 104.26C55.479 103.647 55.0256 103.193 54.4656 102.9C53.9056 102.593 53.299 102.44 52.6456 102.44C51.979 102.44 51.3656 102.593 50.8056 102.9C50.259 103.193 49.819 103.647 49.4856 104.26C49.1523 104.873 48.9856 105.62 48.9856 106.5C48.9856 107.393 49.1456 108.147 49.4656 108.76C49.799 109.373 50.239 109.833 50.7856 110.14C51.3323 110.433 51.9323 110.58 52.5856 110.58ZM59.9186 106.48C59.9186 105.36 60.1453 104.38 60.5986 103.54C61.0519 102.687 61.6719 102.027 62.4586 101.56C63.2586 101.093 64.1519 100.86 65.1386 100.86C65.9919 100.86 66.7853 101.06 67.5186 101.46C68.2519 101.847 68.8119 102.36 69.1986 103V97.2H71.0386V112H69.1986V109.94C68.8386 110.593 68.3053 111.133 67.5986 111.56C66.8919 111.973 66.0653 112.18 65.1186 112.18C64.1453 112.18 63.2586 111.94 62.4586 111.46C61.6719 110.98 61.0519 110.307 60.5986 109.44C60.1453 108.573 59.9186 107.587 59.9186 106.48ZM69.1986 106.5C69.1986 105.673 69.0319 104.953 68.6986 104.34C68.3653 103.727 67.9119 103.26 67.3386 102.94C66.7786 102.607 66.1586 102.44 65.4786 102.44C64.7986 102.44 64.1786 102.6 63.6186 102.92C63.0586 103.24 62.6119 103.707 62.2786 104.32C61.9453 104.933 61.7786 105.653 61.7786 106.48C61.7786 107.32 61.9453 108.053 62.2786 108.68C62.6119 109.293 63.0586 109.767 63.6186 110.1C64.1786 110.42 64.7986 110.58 65.4786 110.58C66.1586 110.58 66.7786 110.42 67.3386 110.1C67.9119 109.767 68.3653 109.293 68.6986 108.68C69.0319 108.053 69.1986 107.327 69.1986 106.5ZM83.5542 101.04L76.9542 117.16H75.0742L77.2342 111.88L72.8142 101.04H74.8342L78.2742 109.92L81.6742 101.04H83.5542ZM89.2638 112.18C88.4238 112.18 87.6704 112.04 87.0038 111.76C86.3371 111.467 85.8104 111.067 85.4238 110.56C85.0371 110.04 84.8238 109.447 84.7838 108.78H86.6638C86.7171 109.327 86.9704 109.773 87.4238 110.12C87.8904 110.467 88.4971 110.64 89.2438 110.64C89.9371 110.64 90.4838 110.487 90.8838 110.18C91.2838 109.873 91.4838 109.487 91.4838 109.02C91.4838 108.54 91.2704 108.187 90.8438 107.96C90.4171 107.72 89.7571 107.487 88.8638 107.26C88.0504 107.047 87.3838 106.833 86.8638 106.62C86.3571 106.393 85.9171 106.067 85.5438 105.64C85.1838 105.2 85.0038 104.627 85.0038 103.92C85.0038 103.36 85.1704 102.847 85.5038 102.38C85.8371 101.913 86.3104 101.547 86.9238 101.28C87.5371 101 88.2371 100.86 89.0238 100.86C90.2371 100.86 91.2171 101.167 91.9638 101.78C92.7104 102.393 93.1104 103.233 93.1638 104.3H91.3438C91.3038 103.727 91.0704 103.267 90.6438 102.92C90.2304 102.573 89.6704 102.4 88.9638 102.4C88.3104 102.4 87.7904 102.54 87.4038 102.82C87.0171 103.1 86.8238 103.467 86.8238 103.92C86.8238 104.28 86.9371 104.58 87.1638 104.82C87.4038 105.047 87.6971 105.233 88.0438 105.38C88.4038 105.513 88.8971 105.667 89.5238 105.84C90.3104 106.053 90.9504 106.267 91.4438 106.48C91.9371 106.68 92.3571 106.987 92.7038 107.4C93.0638 107.813 93.2504 108.353 93.2638 109.02C93.2638 109.62 93.0971 110.16 92.7638 110.64C92.4304 111.12 91.9571 111.5 91.3438 111.78C90.7438 112.047 90.0504 112.18 89.2638 112.18ZM101.273 100.84C102.1 100.84 102.846 101.02 103.513 101.38C104.18 101.727 104.7 102.253 105.073 102.96C105.46 103.667 105.653 104.527 105.653 105.54V112H103.853V105.8C103.853 104.707 103.58 103.873 103.033 103.3C102.486 102.713 101.74 102.42 100.793 102.42C99.833 102.42 99.0663 102.72 98.493 103.32C97.933 103.92 97.653 104.793 97.653 105.94V112H95.833V97.2H97.653V102.6C98.013 102.04 98.5063 101.607 99.133 101.3C99.773 100.993 100.486 100.84 101.273 100.84ZM113.406 112.18C112.379 112.18 111.446 111.947 110.606 111.48C109.779 111.013 109.126 110.353 108.646 109.5C108.179 108.633 107.946 107.633 107.946 106.5C107.946 105.38 108.186 104.393 108.666 103.54C109.159 102.673 109.826 102.013 110.666 101.56C111.506 101.093 112.446 100.86 113.486 100.86C114.526 100.86 115.466 101.093 116.306 101.56C117.146 102.013 117.806 102.667 118.286 103.52C118.779 104.373 119.026 105.367 119.026 106.5C119.026 107.633 118.773 108.633 118.266 109.5C117.773 110.353 117.099 111.013 116.246 111.48C115.393 111.947 114.446 112.18 113.406 112.18ZM113.406 110.58C114.059 110.58 114.673 110.427 115.246 110.12C115.819 109.813 116.279 109.353 116.626 108.74C116.986 108.127 117.166 107.38 117.166 106.5C117.166 105.62 116.993 104.873 116.646 104.26C116.299 103.647 115.846 103.193 115.286 102.9C114.726 102.593 114.119 102.44 113.466 102.44C112.799 102.44 112.186 102.593 111.626 102.9C111.079 103.193 110.639 103.647 110.306 104.26C109.973 104.873 109.806 105.62 109.806 106.5C109.806 107.393 109.966 108.147 110.286 108.76C110.619 109.373 111.059 109.833 111.606 110.14C112.153 110.433 112.753 110.58 113.406 110.58ZM123.239 103.06C123.599 102.433 124.132 101.913 124.839 101.5C125.559 101.073 126.392 100.86 127.339 100.86C128.312 100.86 129.192 101.093 129.979 101.56C130.779 102.027 131.406 102.687 131.859 103.54C132.312 104.38 132.539 105.36 132.539 106.48C132.539 107.587 132.312 108.573 131.859 109.44C131.406 110.307 130.779 110.98 129.979 111.46C129.192 111.94 128.312 112.18 127.339 112.18C126.406 112.18 125.579 111.973 124.859 111.56C124.152 111.133 123.612 110.607 123.239 109.98V117.2H121.419V101.04H123.239V103.06ZM130.679 106.48C130.679 105.653 130.512 104.933 130.179 104.32C129.846 103.707 129.392 103.24 128.819 102.92C128.259 102.6 127.639 102.44 126.959 102.44C126.292 102.44 125.672 102.607 125.099 102.94C124.539 103.26 124.086 103.733 123.739 104.36C123.406 104.973 123.239 105.687 123.239 106.5C123.239 107.327 123.406 108.053 123.739 108.68C124.086 109.293 124.539 109.767 125.099 110.1C125.672 110.42 126.292 110.58 126.959 110.58C127.639 110.58 128.259 110.42 128.819 110.1C129.392 109.767 129.846 109.293 130.179 108.68C130.512 108.053 130.679 107.32 130.679 106.48ZM142.087 103.06C142.447 102.433 142.98 101.913 143.687 101.5C144.407 101.073 145.24 100.86 146.187 100.86C147.16 100.86 148.04 101.093 148.827 101.56C149.627 102.027 150.253 102.687 150.707 103.54C151.16 104.38 151.387 105.36 151.387 106.48C151.387 107.587 151.16 108.573 150.707 109.44C150.253 110.307 149.627 110.98 148.827 111.46C148.04 111.94 147.16 112.18 146.187 112.18C145.253 112.18 144.427 111.973 143.707 111.56C143 111.133 142.46 110.607 142.087 109.98V117.2H140.267V101.04H142.087V103.06ZM149.527 106.48C149.527 105.653 149.36 104.933 149.027 104.32C148.693 103.707 148.24 103.24 147.667 102.92C147.107 102.6 146.487 102.44 145.807 102.44C145.14 102.44 144.52 102.607 143.947 102.94C143.387 103.26 142.933 103.733 142.587 104.36C142.253 104.973 142.087 105.687 142.087 106.5C142.087 107.327 142.253 108.053 142.587 108.68C142.933 109.293 143.387 109.767 143.947 110.1C144.52 110.42 145.14 110.58 145.807 110.58C146.487 110.58 147.107 110.42 147.667 110.1C148.24 109.767 148.693 109.293 149.027 108.68C149.36 108.053 149.527 107.32 149.527 106.48ZM153.102 106.48C153.102 105.36 153.329 104.38 153.782 103.54C154.236 102.687 154.856 102.027 155.642 101.56C156.442 101.093 157.329 100.86 158.302 100.86C159.262 100.86 160.096 101.067 160.802 101.48C161.509 101.893 162.036 102.413 162.382 103.04V101.04H164.222V112H162.382V109.96C162.022 110.6 161.482 111.133 160.762 111.56C160.056 111.973 159.229 112.18 158.282 112.18C157.309 112.18 156.429 111.94 155.642 111.46C154.856 110.98 154.236 110.307 153.782 109.44C153.329 108.573 153.102 107.587 153.102 106.48ZM162.382 106.5C162.382 105.673 162.216 104.953 161.882 104.34C161.549 103.727 161.096 103.26 160.522 102.94C159.962 102.607 159.342 102.44 158.662 102.44C157.982 102.44 157.362 102.6 156.802 102.92C156.242 103.24 155.796 103.707 155.462 104.32C155.129 104.933 154.962 105.653 154.962 106.48C154.962 107.32 155.129 108.053 155.462 108.68C155.796 109.293 156.242 109.767 156.802 110.1C157.362 110.42 157.982 110.58 158.662 110.58C159.342 110.58 159.962 110.42 160.522 110.1C161.096 109.767 161.549 109.293 161.882 108.68C162.216 108.053 162.382 107.327 162.382 106.5ZM166.618 106.5C166.618 105.367 166.844 104.38 167.298 103.54C167.751 102.687 168.378 102.027 169.178 101.56C169.991 101.093 170.918 100.86 171.958 100.86C173.304 100.86 174.411 101.187 175.278 101.84C176.158 102.493 176.738 103.4 177.018 104.56H175.058C174.871 103.893 174.504 103.367 173.958 102.98C173.424 102.593 172.758 102.4 171.958 102.4C170.918 102.4 170.078 102.76 169.438 103.48C168.798 104.187 168.478 105.193 168.478 106.5C168.478 107.82 168.798 108.84 169.438 109.56C170.078 110.28 170.918 110.64 171.958 110.64C172.758 110.64 173.424 110.453 173.958 110.08C174.491 109.707 174.858 109.173 175.058 108.48H177.018C176.724 109.6 176.138 110.5 175.258 111.18C174.378 111.847 173.278 112.18 171.958 112.18C170.918 112.18 169.991 111.947 169.178 111.48C168.378 111.013 167.751 110.353 167.298 109.5C166.844 108.647 166.618 107.647 166.618 106.5ZM185.566 112L181.266 107.16V112H179.446V97.2H181.266V105.9L185.486 101.04H188.026L182.866 106.5L188.046 112H185.566ZM189.059 106.48C189.059 105.36 189.286 104.38 189.739 103.54C190.193 102.687 190.813 102.027 191.599 101.56C192.399 101.093 193.286 100.86 194.259 100.86C195.219 100.86 196.053 101.067 196.759 101.48C197.466 101.893 197.993 102.413 198.339 103.04V101.04H200.179V112H198.339V109.96C197.979 110.6 197.439 111.133 196.719 111.56C196.013 111.973 195.186 112.18 194.239 112.18C193.266 112.18 192.386 111.94 191.599 111.46C190.813 110.98 190.193 110.307 189.739 109.44C189.286 108.573 189.059 107.587 189.059 106.48ZM198.339 106.5C198.339 105.673 198.173 104.953 197.839 104.34C197.506 103.727 197.053 103.26 196.479 102.94C195.919 102.607 195.299 102.44 194.619 102.44C193.939 102.44 193.319 102.6 192.759 102.92C192.199 103.24 191.753 103.707 191.419 104.32C191.086 104.933 190.919 105.653 190.919 106.48C190.919 107.32 191.086 108.053 191.419 108.68C191.753 109.293 192.199 109.767 192.759 110.1C193.319 110.42 193.939 110.58 194.619 110.58C195.299 110.58 195.919 110.42 196.479 110.1C197.053 109.767 197.506 109.293 197.839 108.68C198.173 108.053 198.339 107.327 198.339 106.5ZM207.775 100.86C208.722 100.86 209.548 101.067 210.255 101.48C210.975 101.893 211.508 102.413 211.855 103.04V101.04H213.695V112.24C213.695 113.24 213.482 114.127 213.055 114.9C212.628 115.687 212.015 116.3 211.215 116.74C210.428 117.18 209.508 117.4 208.455 117.4C207.015 117.4 205.815 117.06 204.855 116.38C203.895 115.7 203.328 114.773 203.155 113.6H204.955C205.155 114.267 205.568 114.8 206.195 115.2C206.822 115.613 207.575 115.82 208.455 115.82C209.455 115.82 210.268 115.507 210.895 114.88C211.535 114.253 211.855 113.373 211.855 112.24V109.94C211.495 110.58 210.962 111.113 210.255 111.54C209.548 111.967 208.722 112.18 207.775 112.18C206.802 112.18 205.915 111.94 205.115 111.46C204.328 110.98 203.708 110.307 203.255 109.44C202.802 108.573 202.575 107.587 202.575 106.48C202.575 105.36 202.802 104.38 203.255 103.54C203.708 102.687 204.328 102.027 205.115 101.56C205.915 101.093 206.802 100.86 207.775 100.86ZM211.855 106.5C211.855 105.673 211.688 104.953 211.355 104.34C211.022 103.727 210.568 103.26 209.995 102.94C209.435 102.607 208.815 102.44 208.135 102.44C207.455 102.44 206.835 102.6 206.275 102.92C205.715 103.24 205.268 103.707 204.935 104.32C204.602 104.933 204.435 105.653 204.435 106.48C204.435 107.32 204.602 108.053 204.935 108.68C205.268 109.293 205.715 109.767 206.275 110.1C206.835 110.42 207.455 110.58 208.135 110.58C208.815 110.58 209.435 110.42 209.995 110.1C210.568 109.767 211.022 109.293 211.355 108.68C211.688 108.053 211.855 107.327 211.855 106.5ZM217.71 99.26C217.364 99.26 217.07 99.14 216.83 98.9C216.59 98.66 216.47 98.3667 216.47 98.02C216.47 97.6733 216.59 97.38 216.83 97.14C217.07 96.9 217.364 96.78 217.71 96.78C218.044 96.78 218.324 96.9 218.55 97.14C218.79 97.38 218.91 97.6733 218.91 98.02C218.91 98.3667 218.79 98.66 218.55 98.9C218.324 99.14 218.044 99.26 217.71 99.26ZM218.59 101.04V112H216.77V101.04H218.59ZM227.032 100.84C228.366 100.84 229.446 101.247 230.272 102.06C231.099 102.86 231.512 104.02 231.512 105.54V112H229.712V105.8C229.712 104.707 229.439 103.873 228.892 103.3C228.346 102.713 227.599 102.42 226.652 102.42C225.692 102.42 224.926 102.72 224.352 103.32C223.792 103.92 223.512 104.793 223.512 105.94V112H221.692V101.04H223.512V102.6C223.872 102.04 224.359 101.607 224.972 101.3C225.599 100.993 226.286 100.84 227.032 100.84ZM239.005 100.86C239.952 100.86 240.779 101.067 241.485 101.48C242.205 101.893 242.739 102.413 243.085 103.04V101.04H244.925V112.24C244.925 113.24 244.712 114.127 244.285 114.9C243.859 115.687 243.245 116.3 242.445 116.74C241.659 117.18 240.739 117.4 239.685 117.4C238.245 117.4 237.045 117.06 236.085 116.38C235.125 115.7 234.559 114.773 234.385 113.6H236.185C236.385 114.267 236.799 114.8 237.425 115.2C238.052 115.613 238.805 115.82 239.685 115.82C240.685 115.82 241.499 115.507 242.125 114.88C242.765 114.253 243.085 113.373 243.085 112.24V109.94C242.725 110.58 242.192 111.113 241.485 111.54C240.779 111.967 239.952 112.18 239.005 112.18C238.032 112.18 237.145 111.94 236.345 111.46C235.559 110.98 234.939 110.307 234.485 109.44C234.032 108.573 233.805 107.587 233.805 106.48C233.805 105.36 234.032 104.38 234.485 103.54C234.939 102.687 235.559 102.027 236.345 101.56C237.145 101.093 238.032 100.86 239.005 100.86ZM243.085 106.5C243.085 105.673 242.919 104.953 242.585 104.34C242.252 103.727 241.799 103.26 241.225 102.94C240.665 102.607 240.045 102.44 239.365 102.44C238.685 102.44 238.065 102.6 237.505 102.92C236.945 103.24 236.499 103.707 236.165 104.32C235.832 104.933 235.665 105.653 235.665 106.48C235.665 107.32 235.832 108.053 236.165 108.68C236.499 109.293 236.945 109.767 237.505 110.1C238.065 110.42 238.685 110.58 239.365 110.58C240.045 110.58 240.665 110.42 241.225 110.1C241.799 109.767 242.252 109.293 242.585 108.68C242.919 108.053 243.085 107.327 243.085 106.5ZM252.653 106.5C252.653 105.367 252.88 104.38 253.333 103.54C253.786 102.687 254.413 102.027 255.213 101.56C256.026 101.093 256.953 100.86 257.993 100.86C259.34 100.86 260.446 101.187 261.313 101.84C262.193 102.493 262.773 103.4 263.053 104.56H261.093C260.906 103.893 260.54 103.367 259.993 102.98C259.46 102.593 258.793 102.4 257.993 102.4C256.953 102.4 256.113 102.76 255.473 103.48C254.833 104.187 254.513 105.193 254.513 106.5C254.513 107.82 254.833 108.84 255.473 109.56C256.113 110.28 256.953 110.64 257.993 110.64C258.793 110.64 259.46 110.453 259.993 110.08C260.526 109.707 260.893 109.173 261.093 108.48H263.053C262.76 109.6 262.173 110.5 261.293 111.18C260.413 111.847 259.313 112.18 257.993 112.18C256.953 112.18 256.026 111.947 255.213 111.48C254.413 111.013 253.786 110.353 253.333 109.5C252.88 108.647 252.653 107.647 252.653 106.5ZM270.261 112.18C269.235 112.18 268.301 111.947 267.461 111.48C266.635 111.013 265.981 110.353 265.501 109.5C265.035 108.633 264.801 107.633 264.801 106.5C264.801 105.38 265.041 104.393 265.521 103.54C266.015 102.673 266.681 102.013 267.521 101.56C268.361 101.093 269.301 100.86 270.341 100.86C271.381 100.86 272.321 101.093 273.161 101.56C274.001 102.013 274.661 102.667 275.141 103.52C275.635 104.373 275.881 105.367 275.881 106.5C275.881 107.633 275.628 108.633 275.121 109.5C274.628 110.353 273.955 111.013 273.101 111.48C272.248 111.947 271.301 112.18 270.261 112.18ZM270.261 110.58C270.915 110.58 271.528 110.427 272.101 110.12C272.675 109.813 273.135 109.353 273.481 108.74C273.841 108.127 274.021 107.38 274.021 106.5C274.021 105.62 273.848 104.873 273.501 104.26C273.155 103.647 272.701 103.193 272.141 102.9C271.581 102.593 270.975 102.44 270.321 102.44C269.655 102.44 269.041 102.593 268.481 102.9C267.935 103.193 267.495 103.647 267.161 104.26C266.828 104.873 266.661 105.62 266.661 106.5C266.661 107.393 266.821 108.147 267.141 108.76C267.475 109.373 267.915 109.833 268.461 110.14C269.008 110.433 269.608 110.58 270.261 110.58ZM291.454 100.84C292.308 100.84 293.068 101.02 293.734 101.38C294.401 101.727 294.928 102.253 295.314 102.96C295.701 103.667 295.894 104.527 295.894 105.54V112H294.094V105.8C294.094 104.707 293.821 103.873 293.274 103.3C292.741 102.713 292.014 102.42 291.094 102.42C290.148 102.42 289.394 102.727 288.834 103.34C288.274 103.94 287.994 104.813 287.994 105.96V112H286.194V105.8C286.194 104.707 285.921 103.873 285.374 103.3C284.841 102.713 284.114 102.42 283.194 102.42C282.248 102.42 281.494 102.727 280.934 103.34C280.374 103.94 280.094 104.813 280.094 105.96V112H278.274V101.04H280.094V102.62C280.454 102.047 280.934 101.607 281.534 101.3C282.148 100.993 282.821 100.84 283.554 100.84C284.474 100.84 285.288 101.047 285.994 101.46C286.701 101.873 287.228 102.48 287.574 103.28C287.881 102.507 288.388 101.907 289.094 101.48C289.801 101.053 290.588 100.84 291.454 100.84ZM300.7 103.06C301.06 102.433 301.593 101.913 302.3 101.5C303.02 101.073 303.853 100.86 304.8 100.86C305.773 100.86 306.653 101.093 307.44 101.56C308.24 102.027 308.867 102.687 309.32 103.54C309.773 104.38 310 105.36 310 106.48C310 107.587 309.773 108.573 309.32 109.44C308.867 110.307 308.24 110.98 307.44 111.46C306.653 111.94 305.773 112.18 304.8 112.18C303.867 112.18 303.04 111.973 302.32 111.56C301.613 111.133 301.073 110.607 300.7 109.98V117.2H298.88V101.04H300.7V103.06ZM308.14 106.48C308.14 105.653 307.973 104.933 307.64 104.32C307.307 103.707 306.853 103.24 306.28 102.92C305.72 102.6 305.1 102.44 304.42 102.44C303.753 102.44 303.133 102.607 302.56 102.94C302 103.26 301.547 103.733 301.2 104.36C300.867 104.973 300.7 105.687 300.7 106.5C300.7 107.327 300.867 108.053 301.2 108.68C301.547 109.293 302 109.767 302.56 110.1C303.133 110.42 303.753 110.58 304.42 110.58C305.1 110.58 305.72 110.42 306.28 110.1C306.853 109.767 307.307 109.293 307.64 108.68C307.973 108.053 308.14 107.32 308.14 106.48ZM322.395 106.1C322.395 106.447 322.375 106.813 322.335 107.2H313.575C313.642 108.28 314.009 109.127 314.675 109.74C315.355 110.34 316.175 110.64 317.135 110.64C317.922 110.64 318.575 110.46 319.095 110.1C319.629 109.727 320.002 109.233 320.215 108.62H322.175C321.882 109.673 321.295 110.533 320.415 111.2C319.535 111.853 318.442 112.18 317.135 112.18C316.095 112.18 315.162 111.947 314.335 111.48C313.522 111.013 312.882 110.353 312.415 109.5C311.949 108.633 311.715 107.633 311.715 106.5C311.715 105.367 311.942 104.373 312.395 103.52C312.849 102.667 313.482 102.013 314.295 101.56C315.122 101.093 316.069 100.86 317.135 100.86C318.175 100.86 319.095 101.087 319.895 101.54C320.695 101.993 321.309 102.62 321.735 103.42C322.175 104.207 322.395 105.1 322.395 106.1ZM320.515 105.72C320.515 105.027 320.362 104.433 320.055 103.94C319.749 103.433 319.329 103.053 318.795 102.8C318.275 102.533 317.695 102.4 317.055 102.4C316.135 102.4 315.349 102.693 314.695 103.28C314.055 103.867 313.689 104.68 313.595 105.72H320.515ZM327.018 102.54V109C327.018 109.533 327.131 109.913 327.358 110.14C327.584 110.353 327.978 110.46 328.538 110.46H329.878V112H328.238C327.224 112 326.464 111.767 325.958 111.3C325.451 110.833 325.198 110.067 325.198 109V102.54H323.778V101.04H325.198V98.28H327.018V101.04H329.878V102.54H327.018ZM333.023 99.26C332.676 99.26 332.383 99.14 332.143 98.9C331.903 98.66 331.783 98.3667 331.783 98.02C331.783 97.6733 331.903 97.38 332.143 97.14C332.383 96.9 332.676 96.78 333.023 96.78C333.356 96.78 333.636 96.9 333.863 97.14C334.103 97.38 334.223 97.6733 334.223 98.02C334.223 98.3667 334.103 98.66 333.863 98.9C333.636 99.14 333.356 99.26 333.023 99.26ZM333.903 101.04V112H332.083V101.04H333.903ZM339.225 102.54V109C339.225 109.533 339.338 109.913 339.565 110.14C339.792 110.353 340.185 110.46 340.745 110.46H342.085V112H340.445C339.432 112 338.672 111.767 338.165 111.3C337.658 110.833 337.405 110.067 337.405 109V102.54H335.985V101.04H337.405V98.28H339.225V101.04H342.085V102.54H339.225ZM345.23 99.26C344.883 99.26 344.59 99.14 344.35 98.9C344.11 98.66 343.99 98.3667 343.99 98.02C343.99 97.6733 344.11 97.38 344.35 97.14C344.59 96.9 344.883 96.78 345.23 96.78C345.563 96.78 345.843 96.9 346.07 97.14C346.31 97.38 346.43 97.6733 346.43 98.02C346.43 98.3667 346.31 98.66 346.07 98.9C345.843 99.14 345.563 99.26 345.23 99.26ZM346.11 101.04V112H344.29V101.04H346.11ZM353.992 112.18C352.965 112.18 352.032 111.947 351.192 111.48C350.365 111.013 349.712 110.353 349.232 109.5C348.765 108.633 348.532 107.633 348.532 106.5C348.532 105.38 348.772 104.393 349.252 103.54C349.745 102.673 350.412 102.013 351.252 101.56C352.092 101.093 353.032 100.86 354.072 100.86C355.112 100.86 356.052 101.093 356.892 101.56C357.732 102.013 358.392 102.667 358.872 103.52C359.365 104.373 359.612 105.367 359.612 106.5C359.612 107.633 359.359 108.633 358.852 109.5C358.359 110.353 357.685 111.013 356.832 111.48C355.979 111.947 355.032 112.18 353.992 112.18ZM353.992 110.58C354.645 110.58 355.259 110.427 355.832 110.12C356.405 109.813 356.865 109.353 357.212 108.74C357.572 108.127 357.752 107.38 357.752 106.5C357.752 105.62 357.579 104.873 357.232 104.26C356.885 103.647 356.432 103.193 355.872 102.9C355.312 102.593 354.705 102.44 354.052 102.44C353.385 102.44 352.772 102.593 352.212 102.9C351.665 103.193 351.225 103.647 350.892 104.26C350.559 104.873 350.392 105.62 350.392 106.5C350.392 107.393 350.552 108.147 350.872 108.76C351.205 109.373 351.645 109.833 352.192 110.14C352.739 110.433 353.339 110.58 353.992 110.58ZM367.345 100.84C368.678 100.84 369.758 101.247 370.585 102.06C371.412 102.86 371.825 104.02 371.825 105.54V112H370.025V105.8C370.025 104.707 369.752 103.873 369.205 103.3C368.658 102.713 367.912 102.42 366.965 102.42C366.005 102.42 365.238 102.72 364.665 103.32C364.105 103.92 363.825 104.793 363.825 105.94V112H362.005V101.04H363.825V102.6C364.185 102.04 364.672 101.607 365.285 101.3C365.912 100.993 366.598 100.84 367.345 100.84Z" fill="#1A3EFB"/>
</svg>
