<svg width="457" height="220" viewBox="0 0 457 220" fill="none" xmlns="http://www.w3.org/2000/svg">
<rect x="1" y="1" width="455" height="218" rx="15" fill="white" stroke="#E9E9E9" stroke-width="2"/>
<path d="M76.016 178.112H78.944V179H74.924V170.636H76.016V178.112ZM82.9717 179.108C82.3557 179.108 81.7957 178.968 81.2917 178.688C80.7957 178.408 80.4037 178.012 80.1157 177.5C79.8357 176.98 79.6957 176.38 79.6957 175.7C79.6957 175.028 79.8397 174.436 80.1277 173.924C80.4237 173.404 80.8237 173.008 81.3277 172.736C81.8317 172.456 82.3957 172.316 83.0197 172.316C83.6437 172.316 84.2077 172.456 84.7117 172.736C85.2157 173.008 85.6117 173.4 85.8997 173.912C86.1957 174.424 86.3437 175.02 86.3437 175.7C86.3437 176.38 86.1917 176.98 85.8877 177.5C85.5917 178.012 85.1877 178.408 84.6757 178.688C84.1637 178.968 83.5957 179.108 82.9717 179.108ZM82.9717 178.148C83.3637 178.148 83.7317 178.056 84.0757 177.872C84.4197 177.688 84.6957 177.412 84.9037 177.044C85.1197 176.676 85.2277 176.228 85.2277 175.7C85.2277 175.172 85.1237 174.724 84.9157 174.356C84.7077 173.988 84.4357 173.716 84.0997 173.54C83.7637 173.356 83.3997 173.264 83.0077 173.264C82.6077 173.264 82.2397 173.356 81.9037 173.54C81.5757 173.716 81.3117 173.988 81.1117 174.356C80.9117 174.724 80.8117 175.172 80.8117 175.7C80.8117 176.236 80.9077 176.688 81.0997 177.056C81.2997 177.424 81.5637 177.7 81.8917 177.884C82.2197 178.06 82.5797 178.148 82.9717 178.148ZM90.4915 172.316C91.0595 172.316 91.5555 172.44 91.9795 172.688C92.4115 172.936 92.7315 173.248 92.9395 173.624V172.424H94.0435V179.144C94.0435 179.744 93.9155 180.276 93.6595 180.74C93.4035 181.212 93.0355 181.58 92.5555 181.844C92.0835 182.108 91.5315 182.24 90.8995 182.24C90.0355 182.24 89.3155 182.036 88.7395 181.628C88.1635 181.22 87.8235 180.664 87.7195 179.96H88.7995C88.9195 180.36 89.1675 180.68 89.5435 180.92C89.9195 181.168 90.3715 181.292 90.8995 181.292C91.4995 181.292 91.9875 181.104 92.3635 180.728C92.7475 180.352 92.9395 179.824 92.9395 179.144V177.764C92.7235 178.148 92.4035 178.468 91.9795 178.724C91.5555 178.98 91.0595 179.108 90.4915 179.108C89.9075 179.108 89.3755 178.964 88.8955 178.676C88.4235 178.388 88.0515 177.984 87.7795 177.464C87.5075 176.944 87.3715 176.352 87.3715 175.688C87.3715 175.016 87.5075 174.428 87.7795 173.924C88.0515 173.412 88.4235 173.016 88.8955 172.736C89.3755 172.456 89.9075 172.316 90.4915 172.316ZM92.9395 175.7C92.9395 175.204 92.8395 174.772 92.6395 174.404C92.4395 174.036 92.1675 173.756 91.8235 173.564C91.4875 173.364 91.1155 173.264 90.7075 173.264C90.2995 173.264 89.9275 173.36 89.5915 173.552C89.2555 173.744 88.9875 174.024 88.7875 174.392C88.5875 174.76 88.4875 175.192 88.4875 175.688C88.4875 176.192 88.5875 176.632 88.7875 177.008C88.9875 177.376 89.2555 177.66 89.5915 177.86C89.9275 178.052 90.2995 178.148 90.7075 178.148C91.1155 178.148 91.4875 178.052 91.8235 177.86C92.1675 177.66 92.4395 177.376 92.6395 177.008C92.8395 176.632 92.9395 176.196 92.9395 175.7ZM98.7568 179.108C98.1408 179.108 97.5808 178.968 97.0768 178.688C96.5808 178.408 96.1888 178.012 95.9008 177.5C95.6208 176.98 95.4808 176.38 95.4808 175.7C95.4808 175.028 95.6248 174.436 95.9128 173.924C96.2088 173.404 96.6088 173.008 97.1128 172.736C97.6168 172.456 98.1808 172.316 98.8048 172.316C99.4288 172.316 99.9928 172.456 100.497 172.736C101.001 173.008 101.397 173.4 101.685 173.912C101.981 174.424 102.129 175.02 102.129 175.7C102.129 176.38 101.977 176.98 101.673 177.5C101.377 178.012 100.973 178.408 100.461 178.688C99.9488 178.968 99.3808 179.108 98.7568 179.108ZM98.7568 178.148C99.1488 178.148 99.5168 178.056 99.8608 177.872C100.205 177.688 100.481 177.412 100.689 177.044C100.905 176.676 101.013 176.228 101.013 175.7C101.013 175.172 100.909 174.724 100.701 174.356C100.493 173.988 100.221 173.716 99.8848 173.54C99.5488 173.356 99.1848 173.264 98.7928 173.264C98.3928 173.264 98.0248 173.356 97.6888 173.54C97.3608 173.716 97.0968 173.988 96.8968 174.356C96.6968 174.724 96.5968 175.172 96.5968 175.7C96.5968 176.236 96.6928 176.688 96.8848 177.056C97.0848 177.424 97.3488 177.7 97.6768 177.884C98.0048 178.06 98.3648 178.148 98.7568 178.148Z" fill="black"/>
<circle cx="50" cy="175" r="16" fill="#1A3EFB"/>
<path d="M44.5 179.301C44.5 180.383 45.0064 181.306 46.0193 182.068C46.8297 182.653 47.7758 182.963 48.8578 182.997C48.9682 183 49.0578 182.91 49.0578 182.8V181.335C49.0578 181.225 48.9678 181.136 48.8574 181.132C47.4305 181.086 46.58 180.536 46.3059 179.481C46.2486 179.261 46.2199 179.04 46.2199 178.82V177.857C46.239 177.396 46.3537 177.055 46.5639 176.835C46.8506 176.534 47.9876 176.143 49.9751 175.662C51.5803 175.261 52.6505 174.92 53.1856 174.639V178.429C53.1856 180.093 52.3925 180.985 50.8064 181.105C50.7468 181.114 50.6892 181.121 50.6334 181.126C50.5234 181.136 50.4337 181.225 50.4337 181.335V182.8C50.4337 182.91 50.5235 183 50.6339 182.997C51.8953 182.965 52.8892 182.625 53.6156 181.977C53.6347 181.957 53.6538 181.937 53.6729 181.917C54.1668 182.584 54.8072 182.942 55.5941 182.994C55.7044 183.001 55.7941 182.91 55.7941 182.8V181.289C55.7941 181.185 55.7132 181.102 55.6132 181.073C55.2535 180.971 55.0654 180.65 55.0488 180.113V175.902V171.692C55.0488 170.348 54.5711 169.206 53.6156 168.263C52.8015 167.466 51.8075 167.046 50.6338 167.004C50.5234 167 50.4337 167.09 50.4337 167.2V168.605C50.4337 168.715 50.5235 168.804 50.6337 168.811C51.4585 168.866 52.1276 169.265 52.6409 170.008C52.9849 170.509 53.1569 171.08 53.1569 171.722V172.263C53.176 172.764 52.0199 173.326 49.6884 173.947C47.5099 174.529 46.2581 174.91 45.9333 175.09C44.9969 175.652 44.5191 176.584 44.5 177.887V179.301ZM44.7004 170.869C44.6991 170.948 44.7484 171.02 44.8222 171.05L46.1162 171.579C46.2478 171.633 46.3922 171.536 46.403 171.394C46.4789 170.403 46.9434 169.67 47.7965 169.195C48.139 169.007 48.5024 168.899 48.8866 168.872C48.9968 168.864 49.0864 168.775 49.0864 168.665V167.2C49.0864 167.09 48.9967 167 48.8864 167.004C47.6728 167.051 46.6311 167.531 45.7613 168.444C45.069 169.17 44.7154 169.978 44.7004 170.869Z" fill="white"/>
<path d="M173.436 170.636L171.012 179H169.788L167.844 172.268L165.828 179L164.616 179.012L162.276 170.636H163.44L165.264 177.728L167.28 170.636H168.504L170.424 177.704L172.26 170.636H173.436ZM180.631 175.46C180.631 175.668 180.619 175.888 180.595 176.12H175.339C175.379 176.768 175.599 177.276 175.999 177.644C176.407 178.004 176.899 178.184 177.475 178.184C177.947 178.184 178.339 178.076 178.651 177.86C178.971 177.636 179.195 177.34 179.323 176.972H180.499C180.323 177.604 179.971 178.12 179.443 178.52C178.915 178.912 178.259 179.108 177.475 179.108C176.851 179.108 176.291 178.968 175.795 178.688C175.307 178.408 174.923 178.012 174.643 177.5C174.363 176.98 174.223 176.38 174.223 175.7C174.223 175.02 174.359 174.424 174.631 173.912C174.903 173.4 175.283 173.008 175.771 172.736C176.267 172.456 176.835 172.316 177.475 172.316C178.099 172.316 178.651 172.452 179.131 172.724C179.611 172.996 179.979 173.372 180.235 173.852C180.499 174.324 180.631 174.86 180.631 175.46ZM179.503 175.232C179.503 174.816 179.411 174.46 179.227 174.164C179.043 173.86 178.791 173.632 178.471 173.48C178.159 173.32 177.811 173.24 177.427 173.24C176.875 173.24 176.403 173.416 176.011 173.768C175.627 174.12 175.407 174.608 175.351 175.232H179.503ZM183.164 173.648C183.388 173.256 183.716 172.936 184.148 172.688C184.58 172.44 185.072 172.316 185.624 172.316C186.216 172.316 186.748 172.456 187.22 172.736C187.692 173.016 188.064 173.412 188.336 173.924C188.608 174.428 188.744 175.016 188.744 175.688C188.744 176.352 188.608 176.944 188.336 177.464C188.064 177.984 187.688 178.388 187.208 178.676C186.736 178.964 186.208 179.108 185.624 179.108C185.056 179.108 184.556 178.984 184.124 178.736C183.7 178.488 183.38 178.172 183.164 177.788V179H182.072V170.12H183.164V173.648ZM187.628 175.688C187.628 175.192 187.528 174.76 187.328 174.392C187.128 174.024 186.856 173.744 186.512 173.552C186.176 173.36 185.804 173.264 185.396 173.264C184.996 173.264 184.624 173.364 184.28 173.564C183.944 173.756 183.672 174.04 183.464 174.416C183.264 174.784 183.164 175.212 183.164 175.7C183.164 176.196 183.264 176.632 183.464 177.008C183.672 177.376 183.944 177.66 184.28 177.86C184.624 178.052 184.996 178.148 185.396 178.148C185.804 178.148 186.176 178.052 186.512 177.86C186.856 177.66 187.128 177.376 187.328 177.008C187.528 176.632 187.628 176.192 187.628 175.688ZM192.51 179.108C192.006 179.108 191.554 179.024 191.154 178.856C190.754 178.68 190.438 178.44 190.206 178.136C189.974 177.824 189.846 177.468 189.822 177.068H190.95C190.982 177.396 191.134 177.664 191.406 177.872C191.686 178.08 192.05 178.184 192.498 178.184C192.914 178.184 193.242 178.092 193.482 177.908C193.722 177.724 193.842 177.492 193.842 177.212C193.842 176.924 193.714 176.712 193.458 176.576C193.202 176.432 192.806 176.292 192.27 176.156C191.782 176.028 191.382 175.9 191.07 175.772C190.766 175.636 190.502 175.44 190.278 175.184C190.062 174.92 189.954 174.576 189.954 174.152C189.954 173.816 190.054 173.508 190.254 173.228C190.454 172.948 190.738 172.728 191.106 172.568C191.474 172.4 191.894 172.316 192.366 172.316C193.094 172.316 193.682 172.5 194.13 172.868C194.578 173.236 194.818 173.74 194.85 174.38H193.758C193.734 174.036 193.594 173.76 193.338 173.552C193.09 173.344 192.754 173.24 192.33 173.24C191.938 173.24 191.626 173.324 191.394 173.492C191.162 173.66 191.046 173.88 191.046 174.152C191.046 174.368 191.114 174.548 191.25 174.692C191.394 174.828 191.57 174.94 191.778 175.028C191.994 175.108 192.29 175.2 192.666 175.304C193.138 175.432 193.522 175.56 193.818 175.688C194.114 175.808 194.366 175.992 194.574 176.24C194.79 176.488 194.902 176.812 194.91 177.212C194.91 177.572 194.81 177.896 194.61 178.184C194.41 178.472 194.126 178.7 193.758 178.868C193.398 179.028 192.982 179.108 192.51 179.108ZM197.015 171.356C196.807 171.356 196.631 171.284 196.487 171.14C196.343 170.996 196.271 170.82 196.271 170.612C196.271 170.404 196.343 170.228 196.487 170.084C196.631 169.94 196.807 169.868 197.015 169.868C197.215 169.868 197.383 169.94 197.519 170.084C197.663 170.228 197.735 170.404 197.735 170.612C197.735 170.82 197.663 170.996 197.519 171.14C197.383 171.284 197.215 171.356 197.015 171.356ZM197.543 172.424V179H196.451V172.424H197.543ZM200.736 173.324V177.2C200.736 177.52 200.804 177.748 200.94 177.884C201.076 178.012 201.312 178.076 201.648 178.076H202.452V179H201.468C200.86 179 200.404 178.86 200.1 178.58C199.796 178.3 199.644 177.84 199.644 177.2V173.324H198.792V172.424H199.644V170.768H200.736V172.424H202.452V173.324H200.736ZM209.776 175.46C209.776 175.668 209.764 175.888 209.74 176.12H204.484C204.524 176.768 204.744 177.276 205.144 177.644C205.552 178.004 206.044 178.184 206.62 178.184C207.092 178.184 207.484 178.076 207.796 177.86C208.116 177.636 208.34 177.34 208.468 176.972H209.644C209.468 177.604 209.116 178.12 208.588 178.52C208.06 178.912 207.404 179.108 206.62 179.108C205.996 179.108 205.436 178.968 204.94 178.688C204.452 178.408 204.068 178.012 203.788 177.5C203.508 176.98 203.368 176.38 203.368 175.7C203.368 175.02 203.504 174.424 203.776 173.912C204.048 173.4 204.428 173.008 204.916 172.736C205.412 172.456 205.98 172.316 206.62 172.316C207.244 172.316 207.796 172.452 208.276 172.724C208.756 172.996 209.124 173.372 209.38 173.852C209.644 174.324 209.776 174.86 209.776 175.46ZM208.648 175.232C208.648 174.816 208.556 174.46 208.372 174.164C208.188 173.86 207.936 173.632 207.616 173.48C207.304 173.32 206.956 173.24 206.572 173.24C206.02 173.24 205.548 173.416 205.156 173.768C204.772 174.12 204.552 174.608 204.496 175.232H208.648Z" fill="black"/>
<circle cx="138" cy="175" r="16" fill="#1A3EFB"/>
<path d="M141.105 177.945C141.062 177.784 141.222 177.645 141.375 177.708L147.563 180.272C147.724 180.339 147.728 180.566 147.57 180.638L145.583 181.546L147.51 183.752C147.783 184.065 147.749 184.541 147.435 184.812V184.812C147.123 185.08 146.653 185.047 146.382 184.737L144.434 182.503L143.169 184.37C143.073 184.512 142.855 184.476 142.811 184.31L141.105 177.945Z" fill="white"/>
<path fill-rule="evenodd" clip-rule="evenodd" d="M138 166.25C138.414 166.25 138.75 166.586 138.75 167V172C138.75 172.414 138.414 172.75 138 172.75C137.586 172.75 137.25 172.414 137.25 172V167C137.25 166.586 137.586 166.25 138 166.25ZM133.47 170.47C133.763 170.177 134.237 170.177 134.53 170.47L136.53 172.47C136.823 172.763 136.823 173.237 136.53 173.53C136.237 173.823 135.763 173.823 135.47 173.53L133.47 171.53C133.177 171.237 133.177 170.763 133.47 170.47ZM142.53 170.47C142.823 170.763 142.823 171.237 142.53 171.53L140.53 173.53C140.237 173.823 139.763 173.823 139.47 173.53C139.177 173.237 139.177 172.763 139.47 172.47L141.47 170.47C141.763 170.177 142.237 170.177 142.53 170.47ZM129.25 175C129.25 174.586 129.586 174.25 130 174.25H135C135.414 174.25 135.75 174.586 135.75 175C135.75 175.414 135.414 175.75 135 175.75H130C129.586 175.75 129.25 175.414 129.25 175ZM140.25 175C140.25 174.586 140.586 174.25 141 174.25H146C146.414 174.25 146.75 174.586 146.75 175C146.75 175.414 146.414 175.75 146 175.75H141C140.586 175.75 140.25 175.414 140.25 175ZM136.53 176.47C136.823 176.763 136.823 177.237 136.53 177.53L134.53 179.53C134.237 179.823 133.763 179.823 133.47 179.53C133.177 179.237 133.177 178.763 133.47 178.47L135.47 176.47C135.763 176.177 136.237 176.177 136.53 176.47ZM138 177.25C138.414 177.25 138.75 177.586 138.75 178V183C138.75 183.414 138.414 183.75 138 183.75C137.586 183.75 137.25 183.414 137.25 183V178C137.25 177.586 137.586 177.25 138 177.25Z" fill="white"/>
<path d="M275.112 174.692C275.416 174.74 275.692 174.864 275.94 175.064C276.196 175.264 276.396 175.512 276.54 175.808C276.692 176.104 276.768 176.42 276.768 176.756C276.768 177.18 276.66 177.564 276.444 177.908C276.228 178.244 275.912 178.512 275.496 178.712C275.088 178.904 274.604 179 274.044 179H270.924V170.636H273.924C274.492 170.636 274.976 170.732 275.376 170.924C275.776 171.108 276.076 171.36 276.276 171.68C276.476 172 276.576 172.36 276.576 172.76C276.576 173.256 276.44 173.668 276.168 173.996C275.904 174.316 275.552 174.548 275.112 174.692ZM272.016 174.248H273.852C274.364 174.248 274.76 174.128 275.04 173.888C275.32 173.648 275.46 173.316 275.46 172.892C275.46 172.468 275.32 172.136 275.04 171.896C274.76 171.656 274.356 171.536 273.828 171.536H272.016V174.248ZM273.948 178.1C274.492 178.1 274.916 177.972 275.22 177.716C275.524 177.46 275.676 177.104 275.676 176.648C275.676 176.184 275.516 175.82 275.196 175.556C274.876 175.284 274.448 175.148 273.912 175.148H272.016V178.1H273.948ZM279.375 173.492C279.567 173.116 279.839 172.824 280.191 172.616C280.551 172.408 280.987 172.304 281.499 172.304V173.432H281.211C279.987 173.432 279.375 174.096 279.375 175.424V179H278.283V172.424H279.375V173.492ZM282.352 175.688C282.352 175.016 282.488 174.428 282.76 173.924C283.032 173.412 283.404 173.016 283.876 172.736C284.356 172.456 284.888 172.316 285.472 172.316C286.048 172.316 286.548 172.44 286.972 172.688C287.396 172.936 287.712 173.248 287.92 173.624V172.424H289.024V179H287.92V177.776C287.704 178.16 287.38 178.48 286.948 178.736C286.524 178.984 286.028 179.108 285.46 179.108C284.876 179.108 284.348 178.964 283.876 178.676C283.404 178.388 283.032 177.984 282.76 177.464C282.488 176.944 282.352 176.352 282.352 175.688ZM287.92 175.7C287.92 175.204 287.82 174.772 287.62 174.404C287.42 174.036 287.148 173.756 286.804 173.564C286.468 173.364 286.096 173.264 285.688 173.264C285.28 173.264 284.908 173.36 284.572 173.552C284.236 173.744 283.968 174.024 283.768 174.392C283.568 174.76 283.468 175.192 283.468 175.688C283.468 176.192 283.568 176.632 283.768 177.008C283.968 177.376 284.236 177.66 284.572 177.86C284.908 178.052 285.28 178.148 285.688 178.148C286.096 178.148 286.468 178.052 286.804 177.86C287.148 177.66 287.42 177.376 287.62 177.008C287.82 176.632 287.92 176.196 287.92 175.7ZM294.073 172.304C294.873 172.304 295.521 172.548 296.017 173.036C296.513 173.516 296.761 174.212 296.761 175.124V179H295.681V175.28C295.681 174.624 295.517 174.124 295.189 173.78C294.861 173.428 294.413 173.252 293.845 173.252C293.269 173.252 292.809 173.432 292.465 173.792C292.129 174.152 291.961 174.676 291.961 175.364V179H290.869V172.424H291.961V173.36C292.177 173.024 292.469 172.764 292.837 172.58C293.213 172.396 293.625 172.304 294.073 172.304ZM298.137 175.688C298.137 175.016 298.273 174.428 298.545 173.924C298.817 173.412 299.189 173.016 299.661 172.736C300.141 172.456 300.677 172.316 301.269 172.316C301.781 172.316 302.257 172.436 302.697 172.676C303.137 172.908 303.473 173.216 303.705 173.6V170.12H304.809V179H303.705V177.764C303.489 178.156 303.169 178.48 302.745 178.736C302.321 178.984 301.825 179.108 301.257 179.108C300.673 179.108 300.141 178.964 299.661 178.676C299.189 178.388 298.817 177.984 298.545 177.464C298.273 176.944 298.137 176.352 298.137 175.688ZM303.705 175.7C303.705 175.204 303.605 174.772 303.405 174.404C303.205 174.036 302.933 173.756 302.589 173.564C302.253 173.364 301.881 173.264 301.473 173.264C301.065 173.264 300.693 173.36 300.357 173.552C300.021 173.744 299.753 174.024 299.553 174.392C299.353 174.76 299.253 175.192 299.253 175.688C299.253 176.192 299.353 176.632 299.553 177.008C299.753 177.376 300.021 177.66 300.357 177.86C300.693 178.052 301.065 178.148 301.473 178.148C301.881 178.148 302.253 178.052 302.589 177.86C302.933 177.66 303.205 177.376 303.405 177.008C303.605 176.632 303.705 176.196 303.705 175.7ZM318.338 170.696V179H317.246V172.808L314.486 179H313.718L310.946 172.796V179H309.854V170.696H311.03L314.102 177.56L317.174 170.696H318.338ZM319.782 175.688C319.782 175.016 319.918 174.428 320.19 173.924C320.462 173.412 320.834 173.016 321.306 172.736C321.786 172.456 322.318 172.316 322.902 172.316C323.478 172.316 323.978 172.44 324.402 172.688C324.826 172.936 325.142 173.248 325.35 173.624V172.424H326.454V179H325.35V177.776C325.134 178.16 324.81 178.48 324.378 178.736C323.954 178.984 323.458 179.108 322.89 179.108C322.306 179.108 321.778 178.964 321.306 178.676C320.834 178.388 320.462 177.984 320.19 177.464C319.918 176.944 319.782 176.352 319.782 175.688ZM325.35 175.7C325.35 175.204 325.25 174.772 325.05 174.404C324.85 174.036 324.578 173.756 324.234 173.564C323.898 173.364 323.526 173.264 323.118 173.264C322.71 173.264 322.338 173.36 322.002 173.552C321.666 173.744 321.398 174.024 321.198 174.392C320.998 174.76 320.898 175.192 320.898 175.688C320.898 176.192 320.998 176.632 321.198 177.008C321.398 177.376 321.666 177.66 322.002 177.86C322.338 178.052 322.71 178.148 323.118 178.148C323.526 178.148 323.898 178.052 324.234 177.86C324.578 177.66 324.85 177.376 325.05 177.008C325.25 176.632 325.35 176.196 325.35 175.7ZM329.631 173.324V177.2C329.631 177.52 329.699 177.748 329.835 177.884C329.971 178.012 330.207 178.076 330.543 178.076H331.347V179H330.363C329.755 179 329.299 178.86 328.995 178.58C328.691 178.3 328.539 177.84 328.539 177.2V173.324H327.687V172.424H328.539V170.768H329.631V172.424H331.347V173.324H329.631ZM338.67 175.46C338.67 175.668 338.658 175.888 338.634 176.12H333.378C333.418 176.768 333.638 177.276 334.038 177.644C334.446 178.004 334.938 178.184 335.514 178.184C335.986 178.184 336.378 178.076 336.69 177.86C337.01 177.636 337.234 177.34 337.362 176.972H338.538C338.362 177.604 338.01 178.12 337.482 178.52C336.954 178.912 336.298 179.108 335.514 179.108C334.89 179.108 334.33 178.968 333.834 178.688C333.346 178.408 332.962 178.012 332.682 177.5C332.402 176.98 332.262 176.38 332.262 175.7C332.262 175.02 332.398 174.424 332.67 173.912C332.942 173.4 333.322 173.008 333.81 172.736C334.306 172.456 334.874 172.316 335.514 172.316C336.138 172.316 336.69 172.452 337.17 172.724C337.65 172.996 338.018 173.372 338.274 173.852C338.538 174.324 338.67 174.86 338.67 175.46ZM337.542 175.232C337.542 174.816 337.45 174.46 337.266 174.164C337.082 173.86 336.83 173.632 336.51 173.48C336.198 173.32 335.85 173.24 335.466 173.24C334.914 173.24 334.442 173.416 334.05 173.768C333.666 174.12 333.446 174.608 333.39 175.232H337.542ZM341.204 173.492C341.396 173.116 341.668 172.824 342.02 172.616C342.38 172.408 342.816 172.304 343.328 172.304V173.432H343.04C341.816 173.432 341.204 174.096 341.204 175.424V179H340.112V172.424H341.204V173.492ZM345.152 171.356C344.944 171.356 344.768 171.284 344.624 171.14C344.48 170.996 344.408 170.82 344.408 170.612C344.408 170.404 344.48 170.228 344.624 170.084C344.768 169.94 344.944 169.868 345.152 169.868C345.352 169.868 345.52 169.94 345.656 170.084C345.8 170.228 345.872 170.404 345.872 170.612C345.872 170.82 345.8 170.996 345.656 171.14C345.52 171.284 345.352 171.356 345.152 171.356ZM345.68 172.424V179H344.588V172.424H345.68ZM347.133 175.688C347.133 175.016 347.269 174.428 347.541 173.924C347.813 173.412 348.185 173.016 348.657 172.736C349.137 172.456 349.669 172.316 350.253 172.316C350.829 172.316 351.329 172.44 351.753 172.688C352.177 172.936 352.493 173.248 352.701 173.624V172.424H353.805V179H352.701V177.776C352.485 178.16 352.161 178.48 351.729 178.736C351.305 178.984 350.809 179.108 350.241 179.108C349.657 179.108 349.129 178.964 348.657 178.676C348.185 178.388 347.813 177.984 347.541 177.464C347.269 176.944 347.133 176.352 347.133 175.688ZM352.701 175.7C352.701 175.204 352.601 174.772 352.401 174.404C352.201 174.036 351.929 173.756 351.585 173.564C351.249 173.364 350.877 173.264 350.469 173.264C350.061 173.264 349.689 173.36 349.353 173.552C349.017 173.744 348.749 174.024 348.549 174.392C348.349 174.76 348.249 175.192 348.249 175.688C348.249 176.192 348.349 176.632 348.549 177.008C348.749 177.376 349.017 177.66 349.353 177.86C349.689 178.052 350.061 178.148 350.469 178.148C350.877 178.148 351.249 178.052 351.585 177.86C351.929 177.66 352.201 177.376 352.401 177.008C352.601 176.632 352.701 176.196 352.701 175.7ZM356.743 170.12V179H355.651V170.12H356.743ZM360.932 179.108C360.428 179.108 359.976 179.024 359.576 178.856C359.176 178.68 358.86 178.44 358.628 178.136C358.396 177.824 358.268 177.468 358.244 177.068H359.372C359.404 177.396 359.556 177.664 359.828 177.872C360.108 178.08 360.472 178.184 360.92 178.184C361.336 178.184 361.664 178.092 361.904 177.908C362.144 177.724 362.264 177.492 362.264 177.212C362.264 176.924 362.136 176.712 361.88 176.576C361.624 176.432 361.228 176.292 360.692 176.156C360.204 176.028 359.804 175.9 359.492 175.772C359.188 175.636 358.924 175.44 358.7 175.184C358.484 174.92 358.376 174.576 358.376 174.152C358.376 173.816 358.476 173.508 358.676 173.228C358.876 172.948 359.16 172.728 359.528 172.568C359.896 172.4 360.316 172.316 360.788 172.316C361.516 172.316 362.104 172.5 362.552 172.868C363 173.236 363.24 173.74 363.272 174.38H362.18C362.156 174.036 362.016 173.76 361.76 173.552C361.512 173.344 361.176 173.24 360.752 173.24C360.36 173.24 360.048 173.324 359.816 173.492C359.584 173.66 359.468 173.88 359.468 174.152C359.468 174.368 359.536 174.548 359.672 174.692C359.816 174.828 359.992 174.94 360.2 175.028C360.416 175.108 360.712 175.2 361.088 175.304C361.56 175.432 361.944 175.56 362.24 175.688C362.536 175.808 362.788 175.992 362.996 176.24C363.212 176.488 363.324 176.812 363.332 177.212C363.332 177.572 363.232 177.896 363.032 178.184C362.832 178.472 362.548 178.7 362.18 178.868C361.82 179.028 361.404 179.108 360.932 179.108Z" fill="black"/>
<circle cx="246" cy="175" r="16" fill="#1A3EFB"/>
<path fill-rule="evenodd" clip-rule="evenodd" d="M238.5 171.265V179.5H253.5V171.265L248.904 175.444L248.89 175.457L248.875 175.469L246.687 177.219C246.285 177.54 245.715 177.54 245.313 177.219L243.125 175.469L243.11 175.457L243.096 175.444L238.5 171.265ZM252.558 170.5H239.442L243.89 174.543L246 176.232L248.11 174.543L252.558 170.5ZM237 170C237 169.448 237.448 169 238 169H254C254.552 169 255 169.448 255 170V180C255 180.552 254.552 181 254 181H238C237.448 181 237 180.552 237 180V170Z" fill="white"/>
<path d="M39.852 62.62V67.52H46.432V70.628H39.852V75.808H47.272V79H35.932V59.428H47.272V62.62H39.852ZM49.8263 71.188C49.8263 69.62 50.1343 68.2293 50.7503 67.016C51.385 65.8027 52.2437 64.8693 53.3263 64.216C54.409 63.5627 55.613 63.236 56.9383 63.236C57.9463 63.236 58.9077 63.46 59.8223 63.908C60.737 64.3373 61.465 64.916 62.0063 65.644V58.28H65.9823V79H62.0063V76.704C61.521 77.4693 60.8397 78.0853 59.9623 78.552C59.085 79.0187 58.0677 79.252 56.9103 79.252C55.6037 79.252 54.409 78.916 53.3263 78.244C52.2437 77.572 51.385 76.6293 50.7503 75.416C50.1343 74.184 49.8263 72.7747 49.8263 71.188ZM62.0343 71.244C62.0343 70.292 61.8477 69.48 61.4743 68.808C61.101 68.1173 60.597 67.5947 59.9623 67.24C59.3277 66.8667 58.6463 66.68 57.9183 66.68C57.1903 66.68 56.5183 66.8573 55.9023 67.212C55.2863 67.5667 54.7823 68.0893 54.3903 68.78C54.017 69.452 53.8303 70.2547 53.8303 71.188C53.8303 72.1213 54.017 72.9427 54.3903 73.652C54.7823 74.3427 55.2863 74.8747 55.9023 75.248C56.537 75.6213 57.209 75.808 57.9183 75.808C58.6463 75.808 59.3277 75.6307 59.9623 75.276C60.597 74.9027 61.101 74.38 61.4743 73.708C61.8477 73.0173 62.0343 72.196 62.0343 71.244ZM84.4549 63.488V79H80.5069V77.04C80.0029 77.712 79.3402 78.244 78.5189 78.636C77.7162 79.0093 76.8389 79.196 75.8869 79.196C74.6736 79.196 73.6002 78.944 72.6669 78.44C71.7336 77.9173 70.9962 77.1613 70.4549 76.172C69.9322 75.164 69.6709 73.9693 69.6709 72.588V63.488H73.5909V72.028C73.5909 73.26 73.8989 74.212 74.5149 74.884C75.1309 75.5373 75.9709 75.864 77.0349 75.864C78.1176 75.864 78.9669 75.5373 79.5829 74.884C80.1989 74.212 80.5069 73.26 80.5069 72.028V63.488H84.4549ZM87.3146 71.244C87.3146 69.6387 87.6413 68.2387 88.2946 67.044C88.948 65.8307 89.8533 64.8973 91.0106 64.244C92.168 63.572 93.4933 63.236 94.9866 63.236C96.9093 63.236 98.496 63.7213 99.7466 64.692C101.016 65.644 101.865 66.988 102.295 68.724H98.0666C97.8426 68.052 97.46 67.5293 96.9186 67.156C96.396 66.764 95.7426 66.568 94.9586 66.568C93.8386 66.568 92.952 66.9787 92.2986 67.8C91.6453 68.6027 91.3186 69.7507 91.3186 71.244C91.3186 72.7187 91.6453 73.8667 92.2986 74.688C92.952 75.4907 93.8386 75.892 94.9586 75.892C96.5453 75.892 97.5813 75.1827 98.0666 73.764H102.295C101.865 75.444 101.016 76.7787 99.7466 77.768C98.4773 78.7573 96.8906 79.252 94.9866 79.252C93.4933 79.252 92.168 78.9253 91.0106 78.272C89.8533 77.6 88.948 76.6667 88.2946 75.472C87.6413 74.2587 87.3146 72.8493 87.3146 71.244ZM112.054 79.252C110.561 79.252 109.217 78.9253 108.022 78.272C106.828 77.6 105.885 76.6573 105.194 75.444C104.522 74.2307 104.186 72.8307 104.186 71.244C104.186 69.6573 104.532 68.2573 105.222 67.044C105.932 65.8307 106.893 64.8973 108.106 64.244C109.32 63.572 110.673 63.236 112.166 63.236C113.66 63.236 115.013 63.572 116.226 64.244C117.44 64.8973 118.392 65.8307 119.082 67.044C119.792 68.2573 120.146 69.6573 120.146 71.244C120.146 72.8307 119.782 74.2307 119.054 75.444C118.345 76.6573 117.374 77.6 116.142 78.272C114.929 78.9253 113.566 79.252 112.054 79.252ZM112.054 75.836C112.764 75.836 113.426 75.668 114.042 75.332C114.677 74.9773 115.181 74.4547 115.554 73.764C115.928 73.0733 116.114 72.2333 116.114 71.244C116.114 69.7693 115.722 68.64 114.938 67.856C114.173 67.0533 113.23 66.652 112.11 66.652C110.99 66.652 110.048 67.0533 109.282 67.856C108.536 68.64 108.162 69.7693 108.162 71.244C108.162 72.7187 108.526 73.8573 109.254 74.66C110.001 75.444 110.934 75.836 112.054 75.836ZM142.286 63.264C144.19 63.264 145.721 63.852 146.878 65.028C148.054 66.1853 148.642 67.8093 148.642 69.9V79H144.722V70.432C144.722 69.2187 144.414 68.2947 143.798 67.66C143.182 67.0067 142.342 66.68 141.278 66.68C140.214 66.68 139.365 67.0067 138.73 67.66C138.114 68.2947 137.806 69.2187 137.806 70.432V79H133.886V70.432C133.886 69.2187 133.578 68.2947 132.962 67.66C132.346 67.0067 131.506 66.68 130.442 66.68C129.359 66.68 128.501 67.0067 127.866 67.66C127.25 68.2947 126.942 69.2187 126.942 70.432V79H123.022V63.488H126.942V65.364C127.446 64.7107 128.09 64.1973 128.874 63.824C129.677 63.4507 130.554 63.264 131.506 63.264C132.719 63.264 133.802 63.5253 134.754 64.048C135.706 64.552 136.443 65.28 136.966 66.232C137.47 65.336 138.198 64.6173 139.15 64.076C140.121 63.5347 141.166 63.264 142.286 63.264ZM156.282 65.728C156.786 65.0187 157.476 64.4307 158.354 63.964C159.25 63.4787 160.267 63.236 161.406 63.236C162.731 63.236 163.926 63.5627 164.99 64.216C166.072 64.8693 166.922 65.8027 167.538 67.016C168.172 68.2107 168.49 69.6013 168.49 71.188C168.49 72.7747 168.172 74.184 167.538 75.416C166.922 76.6293 166.072 77.572 164.99 78.244C163.926 78.916 162.731 79.252 161.406 79.252C160.267 79.252 159.259 79.0187 158.382 78.552C157.523 78.0853 156.823 77.4973 156.282 76.788V86.392H152.362V63.488H156.282V65.728ZM164.486 71.188C164.486 70.2547 164.29 69.452 163.898 68.78C163.524 68.0893 163.02 67.5667 162.386 67.212C161.77 66.8573 161.098 66.68 160.37 66.68C159.66 66.68 158.988 66.8667 158.354 67.24C157.738 67.5947 157.234 68.1173 156.842 68.808C156.468 69.4987 156.282 70.3107 156.282 71.244C156.282 72.1773 156.468 72.9893 156.842 73.68C157.234 74.3707 157.738 74.9027 158.354 75.276C158.988 75.6307 159.66 75.808 160.37 75.808C161.098 75.808 161.77 75.6213 162.386 75.248C163.02 74.8747 163.524 74.3427 163.898 73.652C164.29 72.9613 164.486 72.14 164.486 71.188ZM170.33 71.188C170.33 69.62 170.638 68.2293 171.254 67.016C171.889 65.8027 172.738 64.8693 173.802 64.216C174.885 63.5627 176.089 63.236 177.414 63.236C178.572 63.236 179.58 63.4693 180.438 63.936C181.316 64.4027 182.016 64.9907 182.538 65.7V63.488H186.486V79H182.538V76.732C182.034 77.46 181.334 78.0667 180.438 78.552C179.561 79.0187 178.544 79.252 177.386 79.252C176.08 79.252 174.885 78.916 173.802 78.244C172.738 77.572 171.889 76.6293 171.254 75.416C170.638 74.184 170.33 72.7747 170.33 71.188ZM182.538 71.244C182.538 70.292 182.352 69.48 181.978 68.808C181.605 68.1173 181.101 67.5947 180.466 67.24C179.832 66.8667 179.15 66.68 178.422 66.68C177.694 66.68 177.022 66.8573 176.406 67.212C175.79 67.5667 175.286 68.0893 174.894 68.78C174.521 69.452 174.334 70.2547 174.334 71.188C174.334 72.1213 174.521 72.9427 174.894 73.652C175.286 74.3427 175.79 74.8747 176.406 75.248C177.041 75.6213 177.713 75.808 178.422 75.808C179.15 75.808 179.832 75.6307 180.466 75.276C181.101 74.9027 181.605 74.38 181.978 73.708C182.352 73.0173 182.538 72.196 182.538 71.244ZM196.251 79.252C194.981 79.252 193.843 79.028 192.835 78.58C191.827 78.1133 191.024 77.488 190.427 76.704C189.848 75.92 189.531 75.052 189.475 74.1H193.423C193.497 74.6973 193.787 75.192 194.291 75.584C194.813 75.976 195.457 76.172 196.223 76.172C196.969 76.172 197.548 76.0227 197.959 75.724C198.388 75.4253 198.603 75.0427 198.603 74.576C198.603 74.072 198.341 73.6987 197.819 73.456C197.315 73.1947 196.503 72.9147 195.383 72.616C194.225 72.336 193.273 72.0467 192.527 71.748C191.799 71.4493 191.164 70.992 190.623 70.376C190.1 69.76 189.839 68.9293 189.839 67.884C189.839 67.0253 190.081 66.2413 190.567 65.532C191.071 64.8227 191.78 64.2627 192.695 63.852C193.628 63.4413 194.72 63.236 195.971 63.236C197.819 63.236 199.293 63.7027 200.395 64.636C201.496 65.5507 202.103 66.792 202.215 68.36H198.463C198.407 67.744 198.145 67.2587 197.679 66.904C197.231 66.5307 196.624 66.344 195.859 66.344C195.149 66.344 194.599 66.4747 194.207 66.736C193.833 66.9973 193.647 67.3613 193.647 67.828C193.647 68.3507 193.908 68.752 194.431 69.032C194.953 69.2933 195.765 69.564 196.867 69.844C197.987 70.124 198.911 70.4133 199.639 70.712C200.367 71.0107 200.992 71.4773 201.515 72.112C202.056 72.728 202.336 73.5493 202.355 74.576C202.355 75.472 202.103 76.2747 201.599 76.984C201.113 77.6933 200.404 78.2533 199.471 78.664C198.556 79.056 197.483 79.252 196.251 79.252ZM211.509 79.252C210.239 79.252 209.101 79.028 208.093 78.58C207.085 78.1133 206.282 77.488 205.685 76.704C205.106 75.92 204.789 75.052 204.733 74.1H208.681C208.755 74.6973 209.045 75.192 209.549 75.584C210.071 75.976 210.715 76.172 211.481 76.172C212.227 76.172 212.806 76.0227 213.217 75.724C213.646 75.4253 213.861 75.0427 213.861 74.576C213.861 74.072 213.599 73.6987 213.077 73.456C212.573 73.1947 211.761 72.9147 210.641 72.616C209.483 72.336 208.531 72.0467 207.785 71.748C207.057 71.4493 206.422 70.992 205.881 70.376C205.358 69.76 205.097 68.9293 205.097 67.884C205.097 67.0253 205.339 66.2413 205.825 65.532C206.329 64.8227 207.038 64.2627 207.953 63.852C208.886 63.4413 209.978 63.236 211.229 63.236C213.077 63.236 214.551 63.7027 215.653 64.636C216.754 65.5507 217.361 66.792 217.473 68.36H213.721C213.665 67.744 213.403 67.2587 212.937 66.904C212.489 66.5307 211.882 66.344 211.117 66.344C210.407 66.344 209.857 66.4747 209.465 66.736C209.091 66.9973 208.905 67.3613 208.905 67.828C208.905 68.3507 209.166 68.752 209.689 69.032C210.211 69.2933 211.023 69.564 212.125 69.844C213.245 70.124 214.169 70.4133 214.897 70.712C215.625 71.0107 216.25 71.4773 216.773 72.112C217.314 72.728 217.594 73.5493 217.613 74.576C217.613 75.472 217.361 76.2747 216.857 76.984C216.371 77.6933 215.662 78.2533 214.729 78.664C213.814 79.056 212.741 79.252 211.509 79.252ZM239.57 59.456V62.62H231.422V67.632H237.666V70.74H231.422V79H227.502V59.456H239.57ZM249.238 79.252C247.745 79.252 246.401 78.9253 245.206 78.272C244.011 77.6 243.069 76.6573 242.378 75.444C241.706 74.2307 241.37 72.8307 241.37 71.244C241.37 69.6573 241.715 68.2573 242.406 67.044C243.115 65.8307 244.077 64.8973 245.29 64.244C246.503 63.572 247.857 63.236 249.35 63.236C250.843 63.236 252.197 63.572 253.41 64.244C254.623 64.8973 255.575 65.8307 256.266 67.044C256.975 68.2573 257.33 69.6573 257.33 71.244C257.33 72.8307 256.966 74.2307 256.238 75.444C255.529 76.6573 254.558 77.6 253.326 78.272C252.113 78.9253 250.75 79.252 249.238 79.252ZM249.238 75.836C249.947 75.836 250.61 75.668 251.226 75.332C251.861 74.9773 252.365 74.4547 252.738 73.764C253.111 73.0733 253.298 72.2333 253.298 71.244C253.298 69.7693 252.906 68.64 252.122 67.856C251.357 67.0533 250.414 66.652 249.294 66.652C248.174 66.652 247.231 67.0533 246.466 67.856C245.719 68.64 245.346 69.7693 245.346 71.244C245.346 72.7187 245.71 73.8573 246.438 74.66C247.185 75.444 248.118 75.836 249.238 75.836ZM274.849 63.488V79H270.901V77.04C270.397 77.712 269.735 78.244 268.913 78.636C268.111 79.0093 267.233 79.196 266.281 79.196C265.068 79.196 263.995 78.944 263.061 78.44C262.128 77.9173 261.391 77.1613 260.849 76.172C260.327 75.164 260.065 73.9693 260.065 72.588V63.488H263.985V72.028C263.985 73.26 264.293 74.212 264.909 74.884C265.525 75.5373 266.365 75.864 267.429 75.864C268.512 75.864 269.361 75.5373 269.977 74.884C270.593 74.212 270.901 73.26 270.901 72.028V63.488H274.849ZM287.313 63.264C289.161 63.264 290.654 63.852 291.793 65.028C292.932 66.1853 293.501 67.8093 293.501 69.9V79H289.581V70.432C289.581 69.2 289.273 68.2573 288.657 67.604C288.041 66.932 287.201 66.596 286.137 66.596C285.054 66.596 284.196 66.932 283.561 67.604C282.945 68.2573 282.637 69.2 282.637 70.432V79H278.717V63.488H282.637V65.42C283.16 64.748 283.822 64.2253 284.625 63.852C285.446 63.46 286.342 63.264 287.313 63.264ZM296.221 71.188C296.221 69.62 296.529 68.2293 297.145 67.016C297.78 65.8027 298.638 64.8693 299.721 64.216C300.804 63.5627 302.008 63.236 303.333 63.236C304.341 63.236 305.302 63.46 306.217 63.908C307.132 64.3373 307.86 64.916 308.401 65.644V58.28H312.377V79H308.401V76.704C307.916 77.4693 307.234 78.0853 306.357 78.552C305.48 79.0187 304.462 79.252 303.305 79.252C301.998 79.252 300.804 78.916 299.721 78.244C298.638 77.572 297.78 76.6293 297.145 75.416C296.529 74.184 296.221 72.7747 296.221 71.188ZM308.429 71.244C308.429 70.292 308.242 69.48 307.869 68.808C307.496 68.1173 306.992 67.5947 306.357 67.24C305.722 66.8667 305.041 66.68 304.313 66.68C303.585 66.68 302.913 66.8573 302.297 67.212C301.681 67.5667 301.177 68.0893 300.785 68.78C300.412 69.452 300.225 70.2547 300.225 71.188C300.225 72.1213 300.412 72.9427 300.785 73.652C301.177 74.3427 301.681 74.8747 302.297 75.248C302.932 75.6213 303.604 75.808 304.313 75.808C305.041 75.808 305.722 75.6307 306.357 75.276C306.992 74.9027 307.496 74.38 307.869 73.708C308.242 73.0173 308.429 72.196 308.429 71.244ZM315.197 71.188C315.197 69.62 315.505 68.2293 316.121 67.016C316.756 65.8027 317.605 64.8693 318.669 64.216C319.752 63.5627 320.956 63.236 322.281 63.236C323.439 63.236 324.447 63.4693 325.305 63.936C326.183 64.4027 326.883 64.9907 327.405 65.7V63.488H331.353V79H327.405V76.732C326.901 77.46 326.201 78.0667 325.305 78.552C324.428 79.0187 323.411 79.252 322.253 79.252C320.947 79.252 319.752 78.916 318.669 78.244C317.605 77.572 316.756 76.6293 316.121 75.416C315.505 74.184 315.197 72.7747 315.197 71.188ZM327.405 71.244C327.405 70.292 327.219 69.48 326.845 68.808C326.472 68.1173 325.968 67.5947 325.333 67.24C324.699 66.8667 324.017 66.68 323.289 66.68C322.561 66.68 321.889 66.8573 321.273 67.212C320.657 67.5667 320.153 68.0893 319.761 68.78C319.388 69.452 319.201 70.2547 319.201 71.188C319.201 72.1213 319.388 72.9427 319.761 73.652C320.153 74.3427 320.657 74.8747 321.273 75.248C321.908 75.6213 322.58 75.808 323.289 75.808C324.017 75.808 324.699 75.6307 325.333 75.276C325.968 74.9027 326.472 74.38 326.845 73.708C327.219 73.0173 327.405 72.196 327.405 71.244ZM339.746 66.708V74.212C339.746 74.7347 339.867 75.1173 340.11 75.36C340.371 75.584 340.801 75.696 341.398 75.696H343.218V79H340.754C337.45 79 335.798 77.3947 335.798 74.184V66.708H333.95V63.488H335.798V59.652H339.746V63.488H343.218V66.708H339.746ZM348.025 61.64C347.335 61.64 346.756 61.4253 346.289 60.996C345.841 60.548 345.617 59.9973 345.617 59.344C345.617 58.6907 345.841 58.1493 346.289 57.72C346.756 57.272 347.335 57.048 348.025 57.048C348.716 57.048 349.285 57.272 349.733 57.72C350.2 58.1493 350.433 58.6907 350.433 59.344C350.433 59.9973 350.2 60.548 349.733 60.996C349.285 61.4253 348.716 61.64 348.025 61.64ZM349.957 63.488V79H346.037V63.488H349.957ZM360.718 79.252C359.225 79.252 357.881 78.9253 356.686 78.272C355.492 77.6 354.549 76.6573 353.858 75.444C353.186 74.2307 352.85 72.8307 352.85 71.244C352.85 69.6573 353.196 68.2573 353.886 67.044C354.596 65.8307 355.557 64.8973 356.77 64.244C357.984 63.572 359.337 63.236 360.83 63.236C362.324 63.236 363.677 63.572 364.89 64.244C366.104 64.8973 367.056 65.8307 367.746 67.044C368.456 68.2573 368.81 69.6573 368.81 71.244C368.81 72.8307 368.446 74.2307 367.718 75.444C367.009 76.6573 366.038 77.6 364.806 78.272C363.593 78.9253 362.23 79.252 360.718 79.252ZM360.718 75.836C361.428 75.836 362.09 75.668 362.706 75.332C363.341 74.9773 363.845 74.4547 364.218 73.764C364.592 73.0733 364.778 72.2333 364.778 71.244C364.778 69.7693 364.386 68.64 363.602 67.856C362.837 67.0533 361.894 66.652 360.774 66.652C359.654 66.652 358.712 67.0533 357.946 67.856C357.2 68.64 356.826 69.7693 356.826 71.244C356.826 72.7187 357.19 73.8573 357.918 74.66C358.665 75.444 359.598 75.836 360.718 75.836ZM380.282 63.264C382.13 63.264 383.623 63.852 384.762 65.028C385.901 66.1853 386.47 67.8093 386.47 69.9V79H382.55V70.432C382.55 69.2 382.242 68.2573 381.626 67.604C381.01 66.932 380.17 66.596 379.106 66.596C378.023 66.596 377.165 66.932 376.53 67.604C375.914 68.2573 375.606 69.2 375.606 70.432V79H371.686V63.488H375.606V65.42C376.129 64.748 376.791 64.2253 377.594 63.852C378.415 63.46 379.311 63.264 380.282 63.264Z" fill="black"/>
<path d="M50.14 101.04L46.72 112H44.84L42.2 103.3L39.56 112H37.68L34.24 101.04H36.1L38.62 110.24L41.34 101.04H43.2L45.86 110.26L48.34 101.04H50.14ZM66.5463 101.04L63.1263 112H61.2463L58.6063 103.3L55.9663 112H54.0863L50.6463 101.04H52.5063L55.0263 110.24L57.7463 101.04H59.6063L62.2663 110.26L64.7463 101.04H66.5463ZM82.9525 101.04L79.5325 112H77.6525L75.0125 103.3L72.3725 112H70.4925L67.0525 101.04H68.9125L71.4325 110.24L74.1525 101.04H76.0125L78.6725 110.26L81.1525 101.04H82.9525ZM85.3388 112.12C84.9921 112.12 84.6988 112 84.4588 111.76C84.2188 111.52 84.0988 111.227 84.0988 110.88C84.0988 110.533 84.2188 110.24 84.4588 110C84.6988 109.76 84.9921 109.64 85.3388 109.64C85.6721 109.64 85.9521 109.76 86.1788 110C86.4188 110.24 86.5388 110.533 86.5388 110.88C86.5388 111.227 86.4188 111.52 86.1788 111.76C85.9521 112 85.6721 112.12 85.3388 112.12ZM98.958 106.1C98.958 106.447 98.938 106.813 98.898 107.2H90.138C90.2046 108.28 90.5713 109.127 91.238 109.74C91.918 110.34 92.738 110.64 93.698 110.64C94.4846 110.64 95.138 110.46 95.658 110.1C96.1913 109.727 96.5646 109.233 96.778 108.62H98.738C98.4446 109.673 97.858 110.533 96.978 111.2C96.098 111.853 95.0046 112.18 93.698 112.18C92.658 112.18 91.7246 111.947 90.898 111.48C90.0846 111.013 89.4446 110.353 88.978 109.5C88.5113 108.633 88.278 107.633 88.278 106.5C88.278 105.367 88.5046 104.373 88.958 103.52C89.4113 102.667 90.0446 102.013 90.858 101.56C91.6846 101.093 92.6313 100.86 93.698 100.86C94.738 100.86 95.658 101.087 96.458 101.54C97.258 101.993 97.8713 102.62 98.298 103.42C98.738 104.207 98.958 105.1 98.958 106.1ZM97.078 105.72C97.078 105.027 96.9246 104.433 96.618 103.94C96.3113 103.433 95.8913 103.053 95.358 102.8C94.838 102.533 94.258 102.4 93.618 102.4C92.698 102.4 91.9113 102.693 91.258 103.28C90.618 103.867 90.2513 104.68 90.158 105.72H97.078ZM100.68 106.48C100.68 105.36 100.907 104.38 101.36 103.54C101.814 102.687 102.434 102.027 103.22 101.56C104.02 101.093 104.914 100.86 105.9 100.86C106.754 100.86 107.547 101.06 108.28 101.46C109.014 101.847 109.574 102.36 109.96 103V97.2H111.8V112H109.96V109.94C109.6 110.593 109.067 111.133 108.36 111.56C107.654 111.973 106.827 112.18 105.88 112.18C104.907 112.18 104.02 111.94 103.22 111.46C102.434 110.98 101.814 110.307 101.36 109.44C100.907 108.573 100.68 107.587 100.68 106.48ZM109.96 106.5C109.96 105.673 109.794 104.953 109.46 104.34C109.127 103.727 108.674 103.26 108.1 102.94C107.54 102.607 106.92 102.44 106.24 102.44C105.56 102.44 104.94 102.6 104.38 102.92C103.82 103.24 103.374 103.707 103.04 104.32C102.707 104.933 102.54 105.653 102.54 106.48C102.54 107.32 102.707 108.053 103.04 108.68C103.374 109.293 103.82 109.767 104.38 110.1C104.94 110.42 105.56 110.58 106.24 110.58C106.92 110.58 107.54 110.42 108.1 110.1C108.674 109.767 109.127 109.293 109.46 108.68C109.794 108.053 109.96 107.327 109.96 106.5ZM124.596 101.04V112H122.776V110.38C122.429 110.94 121.943 111.38 121.316 111.7C120.703 112.007 120.023 112.16 119.276 112.16C118.423 112.16 117.656 111.987 116.976 111.64C116.296 111.28 115.756 110.747 115.356 110.04C114.969 109.333 114.776 108.473 114.776 107.46V101.04H116.576V107.22C116.576 108.3 116.849 109.133 117.396 109.72C117.943 110.293 118.689 110.58 119.636 110.58C120.609 110.58 121.376 110.28 121.936 109.68C122.496 109.08 122.776 108.207 122.776 107.06V101.04H124.596ZM135.269 103.9V105.44H127.289V103.9H135.269ZM138.005 106.5C138.005 105.367 138.231 104.38 138.685 103.54C139.138 102.687 139.765 102.027 140.565 101.56C141.378 101.093 142.305 100.86 143.345 100.86C144.691 100.86 145.798 101.187 146.665 101.84C147.545 102.493 148.125 103.4 148.405 104.56H146.445C146.258 103.893 145.891 103.367 145.345 102.98C144.811 102.593 144.145 102.4 143.345 102.4C142.305 102.4 141.465 102.76 140.825 103.48C140.185 104.187 139.865 105.193 139.865 106.5C139.865 107.82 140.185 108.84 140.825 109.56C141.465 110.28 142.305 110.64 143.345 110.64C144.145 110.64 144.811 110.453 145.345 110.08C145.878 109.707 146.245 109.173 146.445 108.48H148.405C148.111 109.6 147.525 110.5 146.645 111.18C145.765 111.847 144.665 112.18 143.345 112.18C142.305 112.18 141.378 111.947 140.565 111.48C139.765 111.013 139.138 110.353 138.685 109.5C138.231 108.647 138.005 107.647 138.005 106.5ZM155.613 112.18C154.586 112.18 153.653 111.947 152.813 111.48C151.986 111.013 151.333 110.353 150.853 109.5C150.386 108.633 150.153 107.633 150.153 106.5C150.153 105.38 150.393 104.393 150.873 103.54C151.366 102.673 152.033 102.013 152.873 101.56C153.713 101.093 154.653 100.86 155.693 100.86C156.733 100.86 157.673 101.093 158.513 101.56C159.353 102.013 160.013 102.667 160.493 103.52C160.986 104.373 161.233 105.367 161.233 106.5C161.233 107.633 160.98 108.633 160.473 109.5C159.98 110.353 159.306 111.013 158.453 111.48C157.6 111.947 156.653 112.18 155.613 112.18ZM155.613 110.58C156.266 110.58 156.88 110.427 157.453 110.12C158.026 109.813 158.486 109.353 158.833 108.74C159.193 108.127 159.373 107.38 159.373 106.5C159.373 105.62 159.2 104.873 158.853 104.26C158.506 103.647 158.053 103.193 157.493 102.9C156.933 102.593 156.326 102.44 155.673 102.44C155.006 102.44 154.393 102.593 153.833 102.9C153.286 103.193 152.846 103.647 152.513 104.26C152.18 104.873 152.013 105.62 152.013 106.5C152.013 107.393 152.173 108.147 152.493 108.76C152.826 109.373 153.266 109.833 153.813 110.14C154.36 110.433 154.96 110.58 155.613 110.58ZM176.806 100.84C177.659 100.84 178.419 101.02 179.086 101.38C179.753 101.727 180.279 102.253 180.666 102.96C181.053 103.667 181.246 104.527 181.246 105.54V112H179.446V105.8C179.446 104.707 179.173 103.873 178.626 103.3C178.093 102.713 177.366 102.42 176.446 102.42C175.499 102.42 174.746 102.727 174.186 103.34C173.626 103.94 173.346 104.813 173.346 105.96V112H171.546V105.8C171.546 104.707 171.273 103.873 170.726 103.3C170.193 102.713 169.466 102.42 168.546 102.42C167.599 102.42 166.846 102.727 166.286 103.34C165.726 103.94 165.446 104.813 165.446 105.96V112H163.626V101.04H165.446V102.62C165.806 102.047 166.286 101.607 166.886 101.3C167.499 100.993 168.173 100.84 168.906 100.84C169.826 100.84 170.639 101.047 171.346 101.46C172.053 101.873 172.579 102.48 172.926 103.28C173.233 102.507 173.739 101.907 174.446 101.48C175.153 101.053 175.939 100.84 176.806 100.84ZM186.051 103.06C186.411 102.433 186.945 101.913 187.651 101.5C188.371 101.073 189.205 100.86 190.151 100.86C191.125 100.86 192.005 101.093 192.791 101.56C193.591 102.027 194.218 102.687 194.671 103.54C195.125 104.38 195.351 105.36 195.351 106.48C195.351 107.587 195.125 108.573 194.671 109.44C194.218 110.307 193.591 110.98 192.791 111.46C192.005 111.94 191.125 112.18 190.151 112.18C189.218 112.18 188.391 111.973 187.671 111.56C186.965 111.133 186.425 110.607 186.051 109.98V117.2H184.231V101.04H186.051V103.06ZM193.491 106.48C193.491 105.653 193.325 104.933 192.991 104.32C192.658 103.707 192.205 103.24 191.631 102.92C191.071 102.6 190.451 102.44 189.771 102.44C189.105 102.44 188.485 102.607 187.911 102.94C187.351 103.26 186.898 103.733 186.551 104.36C186.218 104.973 186.051 105.687 186.051 106.5C186.051 107.327 186.218 108.053 186.551 108.68C186.898 109.293 187.351 109.767 187.911 110.1C188.485 110.42 189.105 110.58 189.771 110.58C190.451 110.58 191.071 110.42 191.631 110.1C192.205 109.767 192.658 109.293 192.991 108.68C193.325 108.053 193.491 107.32 193.491 106.48ZM197.067 106.48C197.067 105.36 197.294 104.38 197.747 103.54C198.2 102.687 198.82 102.027 199.607 101.56C200.407 101.093 201.294 100.86 202.267 100.86C203.227 100.86 204.06 101.067 204.767 101.48C205.474 101.893 206 102.413 206.347 103.04V101.04H208.187V112H206.347V109.96C205.987 110.6 205.447 111.133 204.727 111.56C204.02 111.973 203.194 112.18 202.247 112.18C201.274 112.18 200.394 111.94 199.607 111.46C198.82 110.98 198.2 110.307 197.747 109.44C197.294 108.573 197.067 107.587 197.067 106.48ZM206.347 106.5C206.347 105.673 206.18 104.953 205.847 104.34C205.514 103.727 205.06 103.26 204.487 102.94C203.927 102.607 203.307 102.44 202.627 102.44C201.947 102.44 201.327 102.6 200.767 102.92C200.207 103.24 199.76 103.707 199.427 104.32C199.094 104.933 198.927 105.653 198.927 106.48C198.927 107.32 199.094 108.053 199.427 108.68C199.76 109.293 200.207 109.767 200.767 110.1C201.327 110.42 201.947 110.58 202.627 110.58C203.307 110.58 203.927 110.42 204.487 110.1C205.06 109.767 205.514 109.293 205.847 108.68C206.18 108.053 206.347 107.327 206.347 106.5ZM215.143 112.18C214.303 112.18 213.549 112.04 212.883 111.76C212.216 111.467 211.689 111.067 211.303 110.56C210.916 110.04 210.703 109.447 210.663 108.78H212.543C212.596 109.327 212.849 109.773 213.303 110.12C213.769 110.467 214.376 110.64 215.123 110.64C215.816 110.64 216.363 110.487 216.763 110.18C217.163 109.873 217.363 109.487 217.363 109.02C217.363 108.54 217.149 108.187 216.723 107.96C216.296 107.72 215.636 107.487 214.743 107.26C213.929 107.047 213.263 106.833 212.743 106.62C212.236 106.393 211.796 106.067 211.423 105.64C211.063 105.2 210.883 104.627 210.883 103.92C210.883 103.36 211.049 102.847 211.383 102.38C211.716 101.913 212.189 101.547 212.803 101.28C213.416 101 214.116 100.86 214.903 100.86C216.116 100.86 217.096 101.167 217.843 101.78C218.589 102.393 218.989 103.233 219.043 104.3H217.223C217.183 103.727 216.949 103.267 216.523 102.92C216.109 102.573 215.549 102.4 214.843 102.4C214.189 102.4 213.669 102.54 213.283 102.82C212.896 103.1 212.703 103.467 212.703 103.92C212.703 104.28 212.816 104.58 213.043 104.82C213.283 105.047 213.576 105.233 213.923 105.38C214.283 105.513 214.776 105.667 215.403 105.84C216.189 106.053 216.829 106.267 217.323 106.48C217.816 106.68 218.236 106.987 218.583 107.4C218.943 107.813 219.129 108.353 219.143 109.02C219.143 109.62 218.976 110.16 218.643 110.64C218.309 111.12 217.836 111.5 217.223 111.78C216.623 112.047 215.929 112.18 215.143 112.18ZM225.592 112.18C224.752 112.18 223.999 112.04 223.332 111.76C222.665 111.467 222.139 111.067 221.752 110.56C221.365 110.04 221.152 109.447 221.112 108.78H222.992C223.045 109.327 223.299 109.773 223.752 110.12C224.219 110.467 224.825 110.64 225.572 110.64C226.265 110.64 226.812 110.487 227.212 110.18C227.612 109.873 227.812 109.487 227.812 109.02C227.812 108.54 227.599 108.187 227.172 107.96C226.745 107.72 226.085 107.487 225.192 107.26C224.379 107.047 223.712 106.833 223.192 106.62C222.685 106.393 222.245 106.067 221.872 105.64C221.512 105.2 221.332 104.627 221.332 103.92C221.332 103.36 221.499 102.847 221.832 102.38C222.165 101.913 222.639 101.547 223.252 101.28C223.865 101 224.565 100.86 225.352 100.86C226.565 100.86 227.545 101.167 228.292 101.78C229.039 102.393 229.439 103.233 229.492 104.3H227.672C227.632 103.727 227.399 103.267 226.972 102.92C226.559 102.573 225.999 102.4 225.292 102.4C224.639 102.4 224.119 102.54 223.732 102.82C223.345 103.1 223.152 103.467 223.152 103.92C223.152 104.28 223.265 104.58 223.492 104.82C223.732 105.047 224.025 105.233 224.372 105.38C224.732 105.513 225.225 105.667 225.852 105.84C226.639 106.053 227.279 106.267 227.772 106.48C228.265 106.68 228.685 106.987 229.032 107.4C229.392 107.813 229.579 108.353 229.592 109.02C229.592 109.62 229.425 110.16 229.092 110.64C228.759 111.12 228.285 111.5 227.672 111.78C227.072 112.047 226.379 112.18 225.592 112.18ZM232.741 112.12C232.394 112.12 232.101 112 231.861 111.76C231.621 111.52 231.501 111.227 231.501 110.88C231.501 110.533 231.621 110.24 231.861 110C232.101 109.76 232.394 109.64 232.741 109.64C233.074 109.64 233.354 109.76 233.581 110C233.821 110.24 233.941 110.533 233.941 110.88C233.941 111.227 233.821 111.52 233.581 111.76C233.354 112 233.074 112.12 232.741 112.12ZM235.68 106.5C235.68 105.367 235.907 104.38 236.36 103.54C236.814 102.687 237.44 102.027 238.24 101.56C239.054 101.093 239.98 100.86 241.02 100.86C242.367 100.86 243.474 101.187 244.34 101.84C245.22 102.493 245.8 103.4 246.08 104.56H244.12C243.934 103.893 243.567 103.367 243.02 102.98C242.487 102.593 241.82 102.4 241.02 102.4C239.98 102.4 239.14 102.76 238.5 103.48C237.86 104.187 237.54 105.193 237.54 106.5C237.54 107.82 237.86 108.84 238.5 109.56C239.14 110.28 239.98 110.64 241.02 110.64C241.82 110.64 242.487 110.453 243.02 110.08C243.554 109.707 243.92 109.173 244.12 108.48H246.08C245.787 109.6 245.2 110.5 244.32 111.18C243.44 111.847 242.34 112.18 241.02 112.18C239.98 112.18 239.054 111.947 238.24 111.48C237.44 111.013 236.814 110.353 236.36 109.5C235.907 108.647 235.68 107.647 235.68 106.5ZM253.289 112.18C252.262 112.18 251.329 111.947 250.489 111.48C249.662 111.013 249.009 110.353 248.529 109.5C248.062 108.633 247.829 107.633 247.829 106.5C247.829 105.38 248.069 104.393 248.549 103.54C249.042 102.673 249.709 102.013 250.549 101.56C251.389 101.093 252.329 100.86 253.369 100.86C254.409 100.86 255.349 101.093 256.189 101.56C257.029 102.013 257.689 102.667 258.169 103.52C258.662 104.373 258.909 105.367 258.909 106.5C258.909 107.633 258.655 108.633 258.149 109.5C257.655 110.353 256.982 111.013 256.129 111.48C255.275 111.947 254.329 112.18 253.289 112.18ZM253.289 110.58C253.942 110.58 254.555 110.427 255.129 110.12C255.702 109.813 256.162 109.353 256.509 108.74C256.869 108.127 257.049 107.38 257.049 106.5C257.049 105.62 256.875 104.873 256.529 104.26C256.182 103.647 255.729 103.193 255.169 102.9C254.609 102.593 254.002 102.44 253.349 102.44C252.682 102.44 252.069 102.593 251.509 102.9C250.962 103.193 250.522 103.647 250.189 104.26C249.855 104.873 249.689 105.62 249.689 106.5C249.689 107.393 249.849 108.147 250.169 108.76C250.502 109.373 250.942 109.833 251.489 110.14C252.035 110.433 252.635 110.58 253.289 110.58ZM274.482 100.84C275.335 100.84 276.095 101.02 276.762 101.38C277.428 101.727 277.955 102.253 278.342 102.96C278.728 103.667 278.922 104.527 278.922 105.54V112H277.122V105.8C277.122 104.707 276.848 103.873 276.302 103.3C275.768 102.713 275.042 102.42 274.122 102.42C273.175 102.42 272.422 102.727 271.862 103.34C271.302 103.94 271.022 104.813 271.022 105.96V112H269.222V105.8C269.222 104.707 268.948 103.873 268.402 103.3C267.868 102.713 267.142 102.42 266.222 102.42C265.275 102.42 264.522 102.727 263.962 103.34C263.402 103.94 263.122 104.813 263.122 105.96V112H261.302V101.04H263.122V102.62C263.482 102.047 263.962 101.607 264.562 101.3C265.175 100.993 265.848 100.84 266.582 100.84C267.502 100.84 268.315 101.047 269.022 101.46C269.728 101.873 270.255 102.48 270.602 103.28C270.908 102.507 271.415 101.907 272.122 101.48C272.828 101.053 273.615 100.84 274.482 100.84Z" fill="black"/>
</svg>
