<svg width="457" height="220" viewBox="0 0 457 220" fill="none" xmlns="http://www.w3.org/2000/svg">
<rect x="1" y="1" width="455" height="218" rx="15" fill="white" stroke="#1A3EFB" stroke-width="2"/>
<path d="M76.016 178.112H78.944V179H74.924V170.636H76.016V178.112ZM82.9717 179.108C82.3557 179.108 81.7957 178.968 81.2917 178.688C80.7957 178.408 80.4037 178.012 80.1157 177.5C79.8357 176.98 79.6957 176.38 79.6957 175.7C79.6957 175.028 79.8397 174.436 80.1277 173.924C80.4237 173.404 80.8237 173.008 81.3277 172.736C81.8317 172.456 82.3957 172.316 83.0197 172.316C83.6437 172.316 84.2077 172.456 84.7117 172.736C85.2157 173.008 85.6117 173.4 85.8997 173.912C86.1957 174.424 86.3437 175.02 86.3437 175.7C86.3437 176.38 86.1917 176.98 85.8877 177.5C85.5917 178.012 85.1877 178.408 84.6757 178.688C84.1637 178.968 83.5957 179.108 82.9717 179.108ZM82.9717 178.148C83.3637 178.148 83.7317 178.056 84.0757 177.872C84.4197 177.688 84.6957 177.412 84.9037 177.044C85.1197 176.676 85.2277 176.228 85.2277 175.7C85.2277 175.172 85.1237 174.724 84.9157 174.356C84.7077 173.988 84.4357 173.716 84.0997 173.54C83.7637 173.356 83.3997 173.264 83.0077 173.264C82.6077 173.264 82.2397 173.356 81.9037 173.54C81.5757 173.716 81.3117 173.988 81.1117 174.356C80.9117 174.724 80.8117 175.172 80.8117 175.7C80.8117 176.236 80.9077 176.688 81.0997 177.056C81.2997 177.424 81.5637 177.7 81.8917 177.884C82.2197 178.06 82.5797 178.148 82.9717 178.148ZM90.4915 172.316C91.0595 172.316 91.5555 172.44 91.9795 172.688C92.4115 172.936 92.7315 173.248 92.9395 173.624V172.424H94.0435V179.144C94.0435 179.744 93.9155 180.276 93.6595 180.74C93.4035 181.212 93.0355 181.58 92.5555 181.844C92.0835 182.108 91.5315 182.24 90.8995 182.24C90.0355 182.24 89.3155 182.036 88.7395 181.628C88.1635 181.22 87.8235 180.664 87.7195 179.96H88.7995C88.9195 180.36 89.1675 180.68 89.5435 180.92C89.9195 181.168 90.3715 181.292 90.8995 181.292C91.4995 181.292 91.9875 181.104 92.3635 180.728C92.7475 180.352 92.9395 179.824 92.9395 179.144V177.764C92.7235 178.148 92.4035 178.468 91.9795 178.724C91.5555 178.98 91.0595 179.108 90.4915 179.108C89.9075 179.108 89.3755 178.964 88.8955 178.676C88.4235 178.388 88.0515 177.984 87.7795 177.464C87.5075 176.944 87.3715 176.352 87.3715 175.688C87.3715 175.016 87.5075 174.428 87.7795 173.924C88.0515 173.412 88.4235 173.016 88.8955 172.736C89.3755 172.456 89.9075 172.316 90.4915 172.316ZM92.9395 175.7C92.9395 175.204 92.8395 174.772 92.6395 174.404C92.4395 174.036 92.1675 173.756 91.8235 173.564C91.4875 173.364 91.1155 173.264 90.7075 173.264C90.2995 173.264 89.9275 173.36 89.5915 173.552C89.2555 173.744 88.9875 174.024 88.7875 174.392C88.5875 174.76 88.4875 175.192 88.4875 175.688C88.4875 176.192 88.5875 176.632 88.7875 177.008C88.9875 177.376 89.2555 177.66 89.5915 177.86C89.9275 178.052 90.2995 178.148 90.7075 178.148C91.1155 178.148 91.4875 178.052 91.8235 177.86C92.1675 177.66 92.4395 177.376 92.6395 177.008C92.8395 176.632 92.9395 176.196 92.9395 175.7ZM98.7568 179.108C98.1408 179.108 97.5808 178.968 97.0768 178.688C96.5808 178.408 96.1888 178.012 95.9008 177.5C95.6208 176.98 95.4808 176.38 95.4808 175.7C95.4808 175.028 95.6248 174.436 95.9128 173.924C96.2088 173.404 96.6088 173.008 97.1128 172.736C97.6168 172.456 98.1808 172.316 98.8048 172.316C99.4288 172.316 99.9928 172.456 100.497 172.736C101.001 173.008 101.397 173.4 101.685 173.912C101.981 174.424 102.129 175.02 102.129 175.7C102.129 176.38 101.977 176.98 101.673 177.5C101.377 178.012 100.973 178.408 100.461 178.688C99.9488 178.968 99.3808 179.108 98.7568 179.108ZM98.7568 178.148C99.1488 178.148 99.5168 178.056 99.8608 177.872C100.205 177.688 100.481 177.412 100.689 177.044C100.905 176.676 101.013 176.228 101.013 175.7C101.013 175.172 100.909 174.724 100.701 174.356C100.493 173.988 100.221 173.716 99.8848 173.54C99.5488 173.356 99.1848 173.264 98.7928 173.264C98.3928 173.264 98.0248 173.356 97.6888 173.54C97.3608 173.716 97.0968 173.988 96.8968 174.356C96.6968 174.724 96.5968 175.172 96.5968 175.7C96.5968 176.236 96.6928 176.688 96.8848 177.056C97.0848 177.424 97.3488 177.7 97.6768 177.884C98.0048 178.06 98.3648 178.148 98.7568 178.148Z" fill="black"/>
<circle cx="50" cy="175" r="16" fill="#1A3EFB"/>
<path d="M44.5 179.301C44.5 180.383 45.0064 181.306 46.0193 182.068C46.8297 182.653 47.7758 182.963 48.8578 182.997C48.9682 183 49.0578 182.91 49.0578 182.8V181.335C49.0578 181.225 48.9678 181.136 48.8574 181.132C47.4305 181.086 46.58 180.536 46.3059 179.481C46.2486 179.261 46.2199 179.04 46.2199 178.82V177.857C46.239 177.396 46.3537 177.055 46.5639 176.835C46.8506 176.534 47.9876 176.143 49.9751 175.662C51.5803 175.261 52.6505 174.92 53.1856 174.639V178.429C53.1856 180.093 52.3925 180.985 50.8064 181.105C50.7468 181.114 50.6892 181.121 50.6334 181.126C50.5234 181.136 50.4337 181.225 50.4337 181.335V182.8C50.4337 182.91 50.5235 183 50.6339 182.997C51.8953 182.965 52.8892 182.625 53.6156 181.977C53.6347 181.957 53.6538 181.937 53.6729 181.917C54.1668 182.584 54.8072 182.942 55.5941 182.994C55.7044 183.001 55.7941 182.91 55.7941 182.8V181.289C55.7941 181.185 55.7132 181.102 55.6132 181.073C55.2535 180.971 55.0654 180.65 55.0488 180.113V175.902V171.692C55.0488 170.348 54.5711 169.206 53.6156 168.263C52.8015 167.466 51.8075 167.046 50.6338 167.004C50.5234 167 50.4337 167.09 50.4337 167.2V168.605C50.4337 168.715 50.5235 168.804 50.6337 168.811C51.4585 168.866 52.1276 169.265 52.6409 170.008C52.9849 170.509 53.1569 171.08 53.1569 171.722V172.263C53.176 172.764 52.0199 173.326 49.6884 173.947C47.5099 174.529 46.2581 174.91 45.9333 175.09C44.9969 175.652 44.5191 176.584 44.5 177.887V179.301ZM44.7004 170.869C44.6991 170.948 44.7484 171.02 44.8222 171.05L46.1162 171.579C46.2478 171.633 46.3922 171.536 46.403 171.394C46.4789 170.403 46.9434 169.67 47.7965 169.195C48.139 169.007 48.5024 168.899 48.8866 168.872C48.9968 168.864 49.0864 168.775 49.0864 168.665V167.2C49.0864 167.09 48.9967 167 48.8864 167.004C47.6728 167.051 46.6311 167.531 45.7613 168.444C45.069 169.17 44.7154 169.978 44.7004 170.869Z" fill="white"/>
<path d="M173.436 170.636L171.012 179H169.788L167.844 172.268L165.828 179L164.616 179.012L162.276 170.636H163.44L165.264 177.728L167.28 170.636H168.504L170.424 177.704L172.26 170.636H173.436ZM180.631 175.46C180.631 175.668 180.619 175.888 180.595 176.12H175.339C175.379 176.768 175.599 177.276 175.999 177.644C176.407 178.004 176.899 178.184 177.475 178.184C177.947 178.184 178.339 178.076 178.651 177.86C178.971 177.636 179.195 177.34 179.323 176.972H180.499C180.323 177.604 179.971 178.12 179.443 178.52C178.915 178.912 178.259 179.108 177.475 179.108C176.851 179.108 176.291 178.968 175.795 178.688C175.307 178.408 174.923 178.012 174.643 177.5C174.363 176.98 174.223 176.38 174.223 175.7C174.223 175.02 174.359 174.424 174.631 173.912C174.903 173.4 175.283 173.008 175.771 172.736C176.267 172.456 176.835 172.316 177.475 172.316C178.099 172.316 178.651 172.452 179.131 172.724C179.611 172.996 179.979 173.372 180.235 173.852C180.499 174.324 180.631 174.86 180.631 175.46ZM179.503 175.232C179.503 174.816 179.411 174.46 179.227 174.164C179.043 173.86 178.791 173.632 178.471 173.48C178.159 173.32 177.811 173.24 177.427 173.24C176.875 173.24 176.403 173.416 176.011 173.768C175.627 174.12 175.407 174.608 175.351 175.232H179.503ZM183.164 173.648C183.388 173.256 183.716 172.936 184.148 172.688C184.58 172.44 185.072 172.316 185.624 172.316C186.216 172.316 186.748 172.456 187.22 172.736C187.692 173.016 188.064 173.412 188.336 173.924C188.608 174.428 188.744 175.016 188.744 175.688C188.744 176.352 188.608 176.944 188.336 177.464C188.064 177.984 187.688 178.388 187.208 178.676C186.736 178.964 186.208 179.108 185.624 179.108C185.056 179.108 184.556 178.984 184.124 178.736C183.7 178.488 183.38 178.172 183.164 177.788V179H182.072V170.12H183.164V173.648ZM187.628 175.688C187.628 175.192 187.528 174.76 187.328 174.392C187.128 174.024 186.856 173.744 186.512 173.552C186.176 173.36 185.804 173.264 185.396 173.264C184.996 173.264 184.624 173.364 184.28 173.564C183.944 173.756 183.672 174.04 183.464 174.416C183.264 174.784 183.164 175.212 183.164 175.7C183.164 176.196 183.264 176.632 183.464 177.008C183.672 177.376 183.944 177.66 184.28 177.86C184.624 178.052 184.996 178.148 185.396 178.148C185.804 178.148 186.176 178.052 186.512 177.86C186.856 177.66 187.128 177.376 187.328 177.008C187.528 176.632 187.628 176.192 187.628 175.688ZM192.51 179.108C192.006 179.108 191.554 179.024 191.154 178.856C190.754 178.68 190.438 178.44 190.206 178.136C189.974 177.824 189.846 177.468 189.822 177.068H190.95C190.982 177.396 191.134 177.664 191.406 177.872C191.686 178.08 192.05 178.184 192.498 178.184C192.914 178.184 193.242 178.092 193.482 177.908C193.722 177.724 193.842 177.492 193.842 177.212C193.842 176.924 193.714 176.712 193.458 176.576C193.202 176.432 192.806 176.292 192.27 176.156C191.782 176.028 191.382 175.9 191.07 175.772C190.766 175.636 190.502 175.44 190.278 175.184C190.062 174.92 189.954 174.576 189.954 174.152C189.954 173.816 190.054 173.508 190.254 173.228C190.454 172.948 190.738 172.728 191.106 172.568C191.474 172.4 191.894 172.316 192.366 172.316C193.094 172.316 193.682 172.5 194.13 172.868C194.578 173.236 194.818 173.74 194.85 174.38H193.758C193.734 174.036 193.594 173.76 193.338 173.552C193.09 173.344 192.754 173.24 192.33 173.24C191.938 173.24 191.626 173.324 191.394 173.492C191.162 173.66 191.046 173.88 191.046 174.152C191.046 174.368 191.114 174.548 191.25 174.692C191.394 174.828 191.57 174.94 191.778 175.028C191.994 175.108 192.29 175.2 192.666 175.304C193.138 175.432 193.522 175.56 193.818 175.688C194.114 175.808 194.366 175.992 194.574 176.24C194.79 176.488 194.902 176.812 194.91 177.212C194.91 177.572 194.81 177.896 194.61 178.184C194.41 178.472 194.126 178.7 193.758 178.868C193.398 179.028 192.982 179.108 192.51 179.108ZM197.015 171.356C196.807 171.356 196.631 171.284 196.487 171.14C196.343 170.996 196.271 170.82 196.271 170.612C196.271 170.404 196.343 170.228 196.487 170.084C196.631 169.94 196.807 169.868 197.015 169.868C197.215 169.868 197.383 169.94 197.519 170.084C197.663 170.228 197.735 170.404 197.735 170.612C197.735 170.82 197.663 170.996 197.519 171.14C197.383 171.284 197.215 171.356 197.015 171.356ZM197.543 172.424V179H196.451V172.424H197.543ZM200.736 173.324V177.2C200.736 177.52 200.804 177.748 200.94 177.884C201.076 178.012 201.312 178.076 201.648 178.076H202.452V179H201.468C200.86 179 200.404 178.86 200.1 178.58C199.796 178.3 199.644 177.84 199.644 177.2V173.324H198.792V172.424H199.644V170.768H200.736V172.424H202.452V173.324H200.736ZM209.776 175.46C209.776 175.668 209.764 175.888 209.74 176.12H204.484C204.524 176.768 204.744 177.276 205.144 177.644C205.552 178.004 206.044 178.184 206.62 178.184C207.092 178.184 207.484 178.076 207.796 177.86C208.116 177.636 208.34 177.34 208.468 176.972H209.644C209.468 177.604 209.116 178.12 208.588 178.52C208.06 178.912 207.404 179.108 206.62 179.108C205.996 179.108 205.436 178.968 204.94 178.688C204.452 178.408 204.068 178.012 203.788 177.5C203.508 176.98 203.368 176.38 203.368 175.7C203.368 175.02 203.504 174.424 203.776 173.912C204.048 173.4 204.428 173.008 204.916 172.736C205.412 172.456 205.98 172.316 206.62 172.316C207.244 172.316 207.796 172.452 208.276 172.724C208.756 172.996 209.124 173.372 209.38 173.852C209.644 174.324 209.776 174.86 209.776 175.46ZM208.648 175.232C208.648 174.816 208.556 174.46 208.372 174.164C208.188 173.86 207.936 173.632 207.616 173.48C207.304 173.32 206.956 173.24 206.572 173.24C206.02 173.24 205.548 173.416 205.156 173.768C204.772 174.12 204.552 174.608 204.496 175.232H208.648Z" fill="black"/>
<circle cx="138" cy="175" r="16" fill="#1A3EFB"/>
<path d="M141.105 177.945C141.062 177.785 141.222 177.645 141.375 177.708L147.563 180.272C147.724 180.339 147.728 180.566 147.57 180.639L145.583 181.546L147.51 183.753C147.783 184.065 147.749 184.541 147.435 184.812V184.812C147.123 185.08 146.653 185.047 146.382 184.737L144.434 182.503L143.169 184.371C143.073 184.513 142.855 184.476 142.811 184.31L141.105 177.945Z" fill="white"/>
<path fill-rule="evenodd" clip-rule="evenodd" d="M138 166.25C138.414 166.25 138.75 166.586 138.75 167V172C138.75 172.414 138.414 172.75 138 172.75C137.586 172.75 137.25 172.414 137.25 172V167C137.25 166.586 137.586 166.25 138 166.25ZM133.47 170.47C133.763 170.177 134.237 170.177 134.53 170.47L136.53 172.47C136.823 172.763 136.823 173.237 136.53 173.53C136.237 173.823 135.763 173.823 135.47 173.53L133.47 171.53C133.177 171.237 133.177 170.763 133.47 170.47ZM142.53 170.47C142.823 170.763 142.823 171.237 142.53 171.53L140.53 173.53C140.237 173.823 139.763 173.823 139.47 173.53C139.177 173.237 139.177 172.763 139.47 172.47L141.47 170.47C141.763 170.177 142.237 170.177 142.53 170.47ZM129.25 175C129.25 174.586 129.586 174.25 130 174.25H135C135.414 174.25 135.75 174.586 135.75 175C135.75 175.414 135.414 175.75 135 175.75H130C129.586 175.75 129.25 175.414 129.25 175ZM140.25 175C140.25 174.586 140.586 174.25 141 174.25H146C146.414 174.25 146.75 174.586 146.75 175C146.75 175.414 146.414 175.75 146 175.75H141C140.586 175.75 140.25 175.414 140.25 175ZM136.53 176.47C136.823 176.763 136.823 177.237 136.53 177.53L134.53 179.53C134.237 179.823 133.763 179.823 133.47 179.53C133.177 179.237 133.177 178.763 133.47 178.47L135.47 176.47C135.763 176.177 136.237 176.177 136.53 176.47ZM138 177.25C138.414 177.25 138.75 177.586 138.75 178V183C138.75 183.414 138.414 183.75 138 183.75C137.586 183.75 137.25 183.414 137.25 183V178C137.25 177.586 137.586 177.25 138 177.25Z" fill="white"/>
<path d="M275.112 174.692C275.416 174.74 275.692 174.864 275.94 175.064C276.196 175.264 276.396 175.512 276.54 175.808C276.692 176.104 276.768 176.42 276.768 176.756C276.768 177.18 276.66 177.564 276.444 177.908C276.228 178.244 275.912 178.512 275.496 178.712C275.088 178.904 274.604 179 274.044 179H270.924V170.636H273.924C274.492 170.636 274.976 170.732 275.376 170.924C275.776 171.108 276.076 171.36 276.276 171.68C276.476 172 276.576 172.36 276.576 172.76C276.576 173.256 276.44 173.668 276.168 173.996C275.904 174.316 275.552 174.548 275.112 174.692ZM272.016 174.248H273.852C274.364 174.248 274.76 174.128 275.04 173.888C275.32 173.648 275.46 173.316 275.46 172.892C275.46 172.468 275.32 172.136 275.04 171.896C274.76 171.656 274.356 171.536 273.828 171.536H272.016V174.248ZM273.948 178.1C274.492 178.1 274.916 177.972 275.22 177.716C275.524 177.46 275.676 177.104 275.676 176.648C275.676 176.184 275.516 175.82 275.196 175.556C274.876 175.284 274.448 175.148 273.912 175.148H272.016V178.1H273.948ZM279.375 173.492C279.567 173.116 279.839 172.824 280.191 172.616C280.551 172.408 280.987 172.304 281.499 172.304V173.432H281.211C279.987 173.432 279.375 174.096 279.375 175.424V179H278.283V172.424H279.375V173.492ZM282.352 175.688C282.352 175.016 282.488 174.428 282.76 173.924C283.032 173.412 283.404 173.016 283.876 172.736C284.356 172.456 284.888 172.316 285.472 172.316C286.048 172.316 286.548 172.44 286.972 172.688C287.396 172.936 287.712 173.248 287.92 173.624V172.424H289.024V179H287.92V177.776C287.704 178.16 287.38 178.48 286.948 178.736C286.524 178.984 286.028 179.108 285.46 179.108C284.876 179.108 284.348 178.964 283.876 178.676C283.404 178.388 283.032 177.984 282.76 177.464C282.488 176.944 282.352 176.352 282.352 175.688ZM287.92 175.7C287.92 175.204 287.82 174.772 287.62 174.404C287.42 174.036 287.148 173.756 286.804 173.564C286.468 173.364 286.096 173.264 285.688 173.264C285.28 173.264 284.908 173.36 284.572 173.552C284.236 173.744 283.968 174.024 283.768 174.392C283.568 174.76 283.468 175.192 283.468 175.688C283.468 176.192 283.568 176.632 283.768 177.008C283.968 177.376 284.236 177.66 284.572 177.86C284.908 178.052 285.28 178.148 285.688 178.148C286.096 178.148 286.468 178.052 286.804 177.86C287.148 177.66 287.42 177.376 287.62 177.008C287.82 176.632 287.92 176.196 287.92 175.7ZM294.073 172.304C294.873 172.304 295.521 172.548 296.017 173.036C296.513 173.516 296.761 174.212 296.761 175.124V179H295.681V175.28C295.681 174.624 295.517 174.124 295.189 173.78C294.861 173.428 294.413 173.252 293.845 173.252C293.269 173.252 292.809 173.432 292.465 173.792C292.129 174.152 291.961 174.676 291.961 175.364V179H290.869V172.424H291.961V173.36C292.177 173.024 292.469 172.764 292.837 172.58C293.213 172.396 293.625 172.304 294.073 172.304ZM298.137 175.688C298.137 175.016 298.273 174.428 298.545 173.924C298.817 173.412 299.189 173.016 299.661 172.736C300.141 172.456 300.677 172.316 301.269 172.316C301.781 172.316 302.257 172.436 302.697 172.676C303.137 172.908 303.473 173.216 303.705 173.6V170.12H304.809V179H303.705V177.764C303.489 178.156 303.169 178.48 302.745 178.736C302.321 178.984 301.825 179.108 301.257 179.108C300.673 179.108 300.141 178.964 299.661 178.676C299.189 178.388 298.817 177.984 298.545 177.464C298.273 176.944 298.137 176.352 298.137 175.688ZM303.705 175.7C303.705 175.204 303.605 174.772 303.405 174.404C303.205 174.036 302.933 173.756 302.589 173.564C302.253 173.364 301.881 173.264 301.473 173.264C301.065 173.264 300.693 173.36 300.357 173.552C300.021 173.744 299.753 174.024 299.553 174.392C299.353 174.76 299.253 175.192 299.253 175.688C299.253 176.192 299.353 176.632 299.553 177.008C299.753 177.376 300.021 177.66 300.357 177.86C300.693 178.052 301.065 178.148 301.473 178.148C301.881 178.148 302.253 178.052 302.589 177.86C302.933 177.66 303.205 177.376 303.405 177.008C303.605 176.632 303.705 176.196 303.705 175.7ZM318.338 170.696V179H317.246V172.808L314.486 179H313.718L310.946 172.796V179H309.854V170.696H311.03L314.102 177.56L317.174 170.696H318.338ZM319.782 175.688C319.782 175.016 319.918 174.428 320.19 173.924C320.462 173.412 320.834 173.016 321.306 172.736C321.786 172.456 322.318 172.316 322.902 172.316C323.478 172.316 323.978 172.44 324.402 172.688C324.826 172.936 325.142 173.248 325.35 173.624V172.424H326.454V179H325.35V177.776C325.134 178.16 324.81 178.48 324.378 178.736C323.954 178.984 323.458 179.108 322.89 179.108C322.306 179.108 321.778 178.964 321.306 178.676C320.834 178.388 320.462 177.984 320.19 177.464C319.918 176.944 319.782 176.352 319.782 175.688ZM325.35 175.7C325.35 175.204 325.25 174.772 325.05 174.404C324.85 174.036 324.578 173.756 324.234 173.564C323.898 173.364 323.526 173.264 323.118 173.264C322.71 173.264 322.338 173.36 322.002 173.552C321.666 173.744 321.398 174.024 321.198 174.392C320.998 174.76 320.898 175.192 320.898 175.688C320.898 176.192 320.998 176.632 321.198 177.008C321.398 177.376 321.666 177.66 322.002 177.86C322.338 178.052 322.71 178.148 323.118 178.148C323.526 178.148 323.898 178.052 324.234 177.86C324.578 177.66 324.85 177.376 325.05 177.008C325.25 176.632 325.35 176.196 325.35 175.7ZM329.631 173.324V177.2C329.631 177.52 329.699 177.748 329.835 177.884C329.971 178.012 330.207 178.076 330.543 178.076H331.347V179H330.363C329.755 179 329.299 178.86 328.995 178.58C328.691 178.3 328.539 177.84 328.539 177.2V173.324H327.687V172.424H328.539V170.768H329.631V172.424H331.347V173.324H329.631ZM338.67 175.46C338.67 175.668 338.658 175.888 338.634 176.12H333.378C333.418 176.768 333.638 177.276 334.038 177.644C334.446 178.004 334.938 178.184 335.514 178.184C335.986 178.184 336.378 178.076 336.69 177.86C337.01 177.636 337.234 177.34 337.362 176.972H338.538C338.362 177.604 338.01 178.12 337.482 178.52C336.954 178.912 336.298 179.108 335.514 179.108C334.89 179.108 334.33 178.968 333.834 178.688C333.346 178.408 332.962 178.012 332.682 177.5C332.402 176.98 332.262 176.38 332.262 175.7C332.262 175.02 332.398 174.424 332.67 173.912C332.942 173.4 333.322 173.008 333.81 172.736C334.306 172.456 334.874 172.316 335.514 172.316C336.138 172.316 336.69 172.452 337.17 172.724C337.65 172.996 338.018 173.372 338.274 173.852C338.538 174.324 338.67 174.86 338.67 175.46ZM337.542 175.232C337.542 174.816 337.45 174.46 337.266 174.164C337.082 173.86 336.83 173.632 336.51 173.48C336.198 173.32 335.85 173.24 335.466 173.24C334.914 173.24 334.442 173.416 334.05 173.768C333.666 174.12 333.446 174.608 333.39 175.232H337.542ZM341.204 173.492C341.396 173.116 341.668 172.824 342.02 172.616C342.38 172.408 342.816 172.304 343.328 172.304V173.432H343.04C341.816 173.432 341.204 174.096 341.204 175.424V179H340.112V172.424H341.204V173.492ZM345.152 171.356C344.944 171.356 344.768 171.284 344.624 171.14C344.48 170.996 344.408 170.82 344.408 170.612C344.408 170.404 344.48 170.228 344.624 170.084C344.768 169.94 344.944 169.868 345.152 169.868C345.352 169.868 345.52 169.94 345.656 170.084C345.8 170.228 345.872 170.404 345.872 170.612C345.872 170.82 345.8 170.996 345.656 171.14C345.52 171.284 345.352 171.356 345.152 171.356ZM345.68 172.424V179H344.588V172.424H345.68ZM347.133 175.688C347.133 175.016 347.269 174.428 347.541 173.924C347.813 173.412 348.185 173.016 348.657 172.736C349.137 172.456 349.669 172.316 350.253 172.316C350.829 172.316 351.329 172.44 351.753 172.688C352.177 172.936 352.493 173.248 352.701 173.624V172.424H353.805V179H352.701V177.776C352.485 178.16 352.161 178.48 351.729 178.736C351.305 178.984 350.809 179.108 350.241 179.108C349.657 179.108 349.129 178.964 348.657 178.676C348.185 178.388 347.813 177.984 347.541 177.464C347.269 176.944 347.133 176.352 347.133 175.688ZM352.701 175.7C352.701 175.204 352.601 174.772 352.401 174.404C352.201 174.036 351.929 173.756 351.585 173.564C351.249 173.364 350.877 173.264 350.469 173.264C350.061 173.264 349.689 173.36 349.353 173.552C349.017 173.744 348.749 174.024 348.549 174.392C348.349 174.76 348.249 175.192 348.249 175.688C348.249 176.192 348.349 176.632 348.549 177.008C348.749 177.376 349.017 177.66 349.353 177.86C349.689 178.052 350.061 178.148 350.469 178.148C350.877 178.148 351.249 178.052 351.585 177.86C351.929 177.66 352.201 177.376 352.401 177.008C352.601 176.632 352.701 176.196 352.701 175.7ZM356.743 170.12V179H355.651V170.12H356.743ZM360.932 179.108C360.428 179.108 359.976 179.024 359.576 178.856C359.176 178.68 358.86 178.44 358.628 178.136C358.396 177.824 358.268 177.468 358.244 177.068H359.372C359.404 177.396 359.556 177.664 359.828 177.872C360.108 178.08 360.472 178.184 360.92 178.184C361.336 178.184 361.664 178.092 361.904 177.908C362.144 177.724 362.264 177.492 362.264 177.212C362.264 176.924 362.136 176.712 361.88 176.576C361.624 176.432 361.228 176.292 360.692 176.156C360.204 176.028 359.804 175.9 359.492 175.772C359.188 175.636 358.924 175.44 358.7 175.184C358.484 174.92 358.376 174.576 358.376 174.152C358.376 173.816 358.476 173.508 358.676 173.228C358.876 172.948 359.16 172.728 359.528 172.568C359.896 172.4 360.316 172.316 360.788 172.316C361.516 172.316 362.104 172.5 362.552 172.868C363 173.236 363.24 173.74 363.272 174.38H362.18C362.156 174.036 362.016 173.76 361.76 173.552C361.512 173.344 361.176 173.24 360.752 173.24C360.36 173.24 360.048 173.324 359.816 173.492C359.584 173.66 359.468 173.88 359.468 174.152C359.468 174.368 359.536 174.548 359.672 174.692C359.816 174.828 359.992 174.94 360.2 175.028C360.416 175.108 360.712 175.2 361.088 175.304C361.56 175.432 361.944 175.56 362.24 175.688C362.536 175.808 362.788 175.992 362.996 176.24C363.212 176.488 363.324 176.812 363.332 177.212C363.332 177.572 363.232 177.896 363.032 178.184C362.832 178.472 362.548 178.7 362.18 178.868C361.82 179.028 361.404 179.108 360.932 179.108Z" fill="black"/>
<circle cx="246" cy="175" r="16" fill="#1A3EFB"/>
<path fill-rule="evenodd" clip-rule="evenodd" d="M238.5 171.265V179.5H253.5V171.265L248.904 175.444L248.89 175.457L248.875 175.469L246.687 177.219C246.285 177.54 245.715 177.54 245.313 177.219L243.125 175.469L243.11 175.457L243.096 175.444L238.5 171.265ZM252.558 170.5H239.442L243.89 174.543L246 176.232L248.11 174.543L252.558 170.5ZM237 170C237 169.448 237.448 169 238 169H254C254.552 169 255 169.448 255 170V180C255 180.552 254.552 181 254 181H238C237.448 181 237 180.552 237 180V170Z" fill="white"/>
<path d="M39.852 62.62V67.52H46.432V70.628H39.852V75.808H47.272V79H35.932V59.428H47.272V62.62H39.852ZM54.7543 58.28V79H50.8343V58.28H54.7543ZM60.6153 61.64C59.9246 61.64 59.346 61.4253 58.8793 60.996C58.4313 60.548 58.2073 59.9973 58.2073 59.344C58.2073 58.6907 58.4313 58.1493 58.8793 57.72C59.346 57.272 59.9246 57.048 60.6153 57.048C61.306 57.048 61.8753 57.272 62.3233 57.72C62.79 58.1493 63.0233 58.6907 63.0233 59.344C63.0233 59.9973 62.79 60.548 62.3233 60.996C61.8753 61.4253 61.306 61.64 60.6153 61.64ZM62.5473 63.488V79H58.6273V63.488H62.5473ZM70.9843 66.708V74.212C70.9843 74.7347 71.1056 75.1173 71.3483 75.36C71.6096 75.584 72.0389 75.696 72.6363 75.696H74.4563V79H71.9923C68.6883 79 67.0363 77.3947 67.0363 74.184V66.708H65.1883V63.488H67.0363V59.652H70.9843V63.488H74.4563V66.708H70.9843ZM83.2118 79.252C81.9424 79.252 80.8038 79.028 79.7958 78.58C78.7878 78.1133 77.9851 77.488 77.3878 76.704C76.8091 75.92 76.4918 75.052 76.4358 74.1H80.3838C80.4584 74.6973 80.7478 75.192 81.2518 75.584C81.7744 75.976 82.4184 76.172 83.1838 76.172C83.9304 76.172 84.5091 76.0227 84.9198 75.724C85.3491 75.4253 85.5638 75.0427 85.5638 74.576C85.5638 74.072 85.3024 73.6987 84.7798 73.456C84.2758 73.1947 83.4638 72.9147 82.3438 72.616C81.1864 72.336 80.2344 72.0467 79.4878 71.748C78.7598 71.4493 78.1251 70.992 77.5838 70.376C77.0611 69.76 76.7998 68.9293 76.7998 67.884C76.7998 67.0253 77.0424 66.2413 77.5278 65.532C78.0318 64.8227 78.7411 64.2627 79.6558 63.852C80.5891 63.4413 81.6811 63.236 82.9318 63.236C84.7798 63.236 86.2544 63.7027 87.3558 64.636C88.4571 65.5507 89.0638 66.792 89.1758 68.36H85.4238C85.3678 67.744 85.1064 67.2587 84.6398 66.904C84.1918 66.5307 83.5851 66.344 82.8198 66.344C82.1104 66.344 81.5598 66.4747 81.1678 66.736C80.7944 66.9973 80.6078 67.3613 80.6078 67.828C80.6078 68.3507 80.8691 68.752 81.3918 69.032C81.9144 69.2933 82.7264 69.564 83.8278 69.844C84.9478 70.124 85.8718 70.4133 86.5998 70.712C87.3278 71.0107 87.9531 71.4773 88.4758 72.112C89.0171 72.728 89.2971 73.5493 89.3158 74.576C89.3158 75.472 89.0638 76.2747 88.5598 76.984C88.0744 77.6933 87.3651 78.2533 86.4318 78.664C85.5171 79.056 84.4438 79.252 83.2118 79.252ZM91.5256 71.188C91.5256 69.62 91.8336 68.2293 92.4496 67.016C93.0842 65.8027 93.9336 64.8693 94.9976 64.216C96.0802 63.5627 97.2842 63.236 98.6096 63.236C99.7669 63.236 100.775 63.4693 101.634 63.936C102.511 64.4027 103.211 64.9907 103.734 65.7V63.488H107.682V79H103.734V76.732C103.23 77.46 102.53 78.0667 101.634 78.552C100.756 79.0187 99.7389 79.252 98.5816 79.252C97.2749 79.252 96.0802 78.916 94.9976 78.244C93.9336 77.572 93.0842 76.6293 92.4496 75.416C91.8336 74.184 91.5256 72.7747 91.5256 71.188ZM103.734 71.244C103.734 70.292 103.547 69.48 103.174 68.808C102.8 68.1173 102.296 67.5947 101.662 67.24C101.027 66.8667 100.346 66.68 99.6176 66.68C98.8896 66.68 98.2176 66.8573 97.6016 67.212C96.9856 67.5667 96.4816 68.0893 96.0896 68.78C95.7162 69.452 95.5296 70.2547 95.5296 71.188C95.5296 72.1213 95.7162 72.9427 96.0896 73.652C96.4816 74.3427 96.9856 74.8747 97.6016 75.248C98.2362 75.6213 98.9082 75.808 99.6176 75.808C100.346 75.808 101.027 75.6307 101.662 75.276C102.296 74.9027 102.8 74.38 103.174 73.708C103.547 73.0173 103.734 72.196 103.734 71.244ZM122.542 79L115.43 70.292V79H111.51V59.456H115.43V68.22L122.542 59.456H127.274L119.21 69.144L127.498 79H122.542ZM136.965 79.252C135.471 79.252 134.127 78.9253 132.933 78.272C131.738 77.6 130.795 76.6573 130.105 75.444C129.433 74.2307 129.097 72.8307 129.097 71.244C129.097 69.6573 129.442 68.2573 130.133 67.044C130.842 65.8307 131.803 64.8973 133.017 64.244C134.23 63.572 135.583 63.236 137.077 63.236C138.57 63.236 139.923 63.572 141.137 64.244C142.35 64.8973 143.302 65.8307 143.993 67.044C144.702 68.2573 145.057 69.6573 145.057 71.244C145.057 72.8307 144.693 74.2307 143.965 75.444C143.255 76.6573 142.285 77.6 141.053 78.272C139.839 78.9253 138.477 79.252 136.965 79.252ZM136.965 75.836C137.674 75.836 138.337 75.668 138.953 75.332C139.587 74.9773 140.091 74.4547 140.465 73.764C140.838 73.0733 141.025 72.2333 141.025 71.244C141.025 69.7693 140.633 68.64 139.849 67.856C139.083 67.0533 138.141 66.652 137.021 66.652C135.901 66.652 134.958 67.0533 134.193 67.856C133.446 68.64 133.073 69.7693 133.073 71.244C133.073 72.7187 133.437 73.8573 134.165 74.66C134.911 75.444 135.845 75.836 136.965 75.836ZM153.868 79.252C152.599 79.252 151.46 79.028 150.452 78.58C149.444 78.1133 148.641 77.488 148.044 76.704C147.465 75.92 147.148 75.052 147.092 74.1H151.04C151.115 74.6973 151.404 75.192 151.908 75.584C152.431 75.976 153.075 76.172 153.84 76.172C154.587 76.172 155.165 76.0227 155.576 75.724C156.005 75.4253 156.22 75.0427 156.22 74.576C156.22 74.072 155.959 73.6987 155.436 73.456C154.932 73.1947 154.12 72.9147 153 72.616C151.843 72.336 150.891 72.0467 150.144 71.748C149.416 71.4493 148.781 70.992 148.24 70.376C147.717 69.76 147.456 68.9293 147.456 67.884C147.456 67.0253 147.699 66.2413 148.184 65.532C148.688 64.8227 149.397 64.2627 150.312 63.852C151.245 63.4413 152.337 63.236 153.588 63.236C155.436 63.236 156.911 63.7027 158.012 64.636C159.113 65.5507 159.72 66.792 159.832 68.36H156.08C156.024 67.744 155.763 67.2587 155.296 66.904C154.848 66.5307 154.241 66.344 153.476 66.344C152.767 66.344 152.216 66.4747 151.824 66.736C151.451 66.9973 151.264 67.3613 151.264 67.828C151.264 68.3507 151.525 68.752 152.048 69.032C152.571 69.2933 153.383 69.564 154.484 69.844C155.604 70.124 156.528 70.4133 157.256 70.712C157.984 71.0107 158.609 71.4773 159.132 72.112C159.673 72.728 159.953 73.5493 159.972 74.576C159.972 75.472 159.72 76.2747 159.216 76.984C158.731 77.6933 158.021 78.2533 157.088 78.664C156.173 79.056 155.1 79.252 153.868 79.252ZM167.754 66.708V74.212C167.754 74.7347 167.875 75.1173 168.118 75.36C168.379 75.584 168.808 75.696 169.406 75.696H171.226V79H168.762C165.458 79 163.806 77.3947 163.806 74.184V66.708H161.958V63.488H163.806V59.652H167.754V63.488H171.226V66.708H167.754ZM180.933 79.252C179.44 79.252 178.096 78.9253 176.901 78.272C175.707 77.6 174.764 76.6573 174.073 75.444C173.401 74.2307 173.065 72.8307 173.065 71.244C173.065 69.6573 173.411 68.2573 174.101 67.044C174.811 65.8307 175.772 64.8973 176.985 64.244C178.199 63.572 179.552 63.236 181.045 63.236C182.539 63.236 183.892 63.572 185.105 64.244C186.319 64.8973 187.271 65.8307 187.961 67.044C188.671 68.2573 189.025 69.6573 189.025 71.244C189.025 72.8307 188.661 74.2307 187.933 75.444C187.224 76.6573 186.253 77.6 185.021 78.272C183.808 78.9253 182.445 79.252 180.933 79.252ZM180.933 75.836C181.643 75.836 182.305 75.668 182.921 75.332C183.556 74.9773 184.06 74.4547 184.433 73.764C184.807 73.0733 184.993 72.2333 184.993 71.244C184.993 69.7693 184.601 68.64 183.817 67.856C183.052 67.0533 182.109 66.652 180.989 66.652C179.869 66.652 178.927 67.0533 178.161 67.856C177.415 68.64 177.041 69.7693 177.041 71.244C177.041 72.7187 177.405 73.8573 178.133 74.66C178.88 75.444 179.813 75.836 180.933 75.836ZM198.369 75.388L202.289 63.488H206.461L200.721 79H195.961L190.249 63.488H194.449L198.369 75.388ZM207.654 71.188C207.654 69.62 207.962 68.2293 208.578 67.016C209.213 65.8027 210.062 64.8693 211.126 64.216C212.209 63.5627 213.413 63.236 214.738 63.236C215.896 63.236 216.904 63.4693 217.762 63.936C218.64 64.4027 219.34 64.9907 219.862 65.7V63.488H223.81V79H219.862V76.732C219.358 77.46 218.658 78.0667 217.762 78.552C216.885 79.0187 215.868 79.252 214.71 79.252C213.404 79.252 212.209 78.916 211.126 78.244C210.062 77.572 209.213 76.6293 208.578 75.416C207.962 74.184 207.654 72.7747 207.654 71.188ZM219.862 71.244C219.862 70.292 219.676 69.48 219.302 68.808C218.929 68.1173 218.425 67.5947 217.79 67.24C217.156 66.8667 216.474 66.68 215.746 66.68C215.018 66.68 214.346 66.8573 213.73 67.212C213.114 67.5667 212.61 68.0893 212.218 68.78C211.845 69.452 211.658 70.2547 211.658 71.188C211.658 72.1213 211.845 72.9427 212.218 73.652C212.61 74.3427 213.114 74.8747 213.73 75.248C214.365 75.6213 215.037 75.808 215.746 75.808C216.474 75.808 217.156 75.6307 217.79 75.276C218.425 74.9027 218.929 74.38 219.302 73.708C219.676 73.0173 219.862 72.196 219.862 71.244Z" fill="#1A3EFB"/>
<path d="M50.14 101.04L46.72 112H44.84L42.2 103.3L39.56 112H37.68L34.24 101.04H36.1L38.62 110.24L41.34 101.04H43.2L45.86 110.26L48.34 101.04H50.14ZM66.5463 101.04L63.1263 112H61.2463L58.6063 103.3L55.9663 112H54.0863L50.6463 101.04H52.5063L55.0263 110.24L57.7463 101.04H59.6063L62.2663 110.26L64.7463 101.04H66.5463ZM82.9525 101.04L79.5325 112H77.6525L75.0125 103.3L72.3725 112H70.4925L67.0525 101.04H68.9125L71.4325 110.24L74.1525 101.04H76.0125L78.6725 110.26L81.1525 101.04H82.9525ZM85.3388 112.12C84.9921 112.12 84.6988 112 84.4588 111.76C84.2188 111.52 84.0988 111.227 84.0988 110.88C84.0988 110.533 84.2188 110.24 84.4588 110C84.6988 109.76 84.9921 109.64 85.3388 109.64C85.6721 109.64 85.9521 109.76 86.1788 110C86.4188 110.24 86.5388 110.533 86.5388 110.88C86.5388 111.227 86.4188 111.52 86.1788 111.76C85.9521 112 85.6721 112.12 85.3388 112.12ZM98.958 106.1C98.958 106.447 98.938 106.813 98.898 107.2H90.138C90.2046 108.28 90.5713 109.127 91.238 109.74C91.918 110.34 92.738 110.64 93.698 110.64C94.4846 110.64 95.138 110.46 95.658 110.1C96.1913 109.727 96.5646 109.233 96.778 108.62H98.738C98.4446 109.673 97.858 110.533 96.978 111.2C96.098 111.853 95.0046 112.18 93.698 112.18C92.658 112.18 91.7246 111.947 90.898 111.48C90.0846 111.013 89.4446 110.353 88.978 109.5C88.5113 108.633 88.278 107.633 88.278 106.5C88.278 105.367 88.5046 104.373 88.958 103.52C89.4113 102.667 90.0446 102.013 90.858 101.56C91.6846 101.093 92.6313 100.86 93.698 100.86C94.738 100.86 95.658 101.087 96.458 101.54C97.258 101.993 97.8713 102.62 98.298 103.42C98.738 104.207 98.958 105.1 98.958 106.1ZM97.078 105.72C97.078 105.027 96.9246 104.433 96.618 103.94C96.3113 103.433 95.8913 103.053 95.358 102.8C94.838 102.533 94.258 102.4 93.618 102.4C92.698 102.4 91.9113 102.693 91.258 103.28C90.618 103.867 90.2513 104.68 90.158 105.72H97.078ZM103.18 97.2V112H101.36V97.2H103.18ZM107.222 99.26C106.876 99.26 106.582 99.14 106.342 98.9C106.102 98.66 105.982 98.3667 105.982 98.02C105.982 97.6733 106.102 97.38 106.342 97.14C106.582 96.9 106.876 96.78 107.222 96.78C107.556 96.78 107.836 96.9 108.062 97.14C108.302 97.38 108.422 97.6733 108.422 98.02C108.422 98.3667 108.302 98.66 108.062 98.9C107.836 99.14 107.556 99.26 107.222 99.26ZM108.102 101.04V112H106.282V101.04H108.102ZM113.424 102.54V109C113.424 109.533 113.537 109.913 113.764 110.14C113.991 110.353 114.384 110.46 114.944 110.46H116.284V112H114.644C113.631 112 112.871 111.767 112.364 111.3C111.857 110.833 111.604 110.067 111.604 109V102.54H110.184V101.04H111.604V98.28H113.424V101.04H116.284V102.54H113.424ZM122.369 112.18C121.529 112.18 120.776 112.04 120.109 111.76C119.443 111.467 118.916 111.067 118.529 110.56C118.143 110.04 117.929 109.447 117.889 108.78H119.769C119.823 109.327 120.076 109.773 120.529 110.12C120.996 110.467 121.603 110.64 122.349 110.64C123.043 110.64 123.589 110.487 123.989 110.18C124.389 109.873 124.589 109.487 124.589 109.02C124.589 108.54 124.376 108.187 123.949 107.96C123.523 107.72 122.863 107.487 121.969 107.26C121.156 107.047 120.489 106.833 119.969 106.62C119.463 106.393 119.023 106.067 118.649 105.64C118.289 105.2 118.109 104.627 118.109 103.92C118.109 103.36 118.276 102.847 118.609 102.38C118.943 101.913 119.416 101.547 120.029 101.28C120.643 101 121.343 100.86 122.129 100.86C123.343 100.86 124.323 101.167 125.069 101.78C125.816 102.393 126.216 103.233 126.269 104.3H124.449C124.409 103.727 124.176 103.267 123.749 102.92C123.336 102.573 122.776 102.4 122.069 102.4C121.416 102.4 120.896 102.54 120.509 102.82C120.123 103.1 119.929 103.467 119.929 103.92C119.929 104.28 120.043 104.58 120.269 104.82C120.509 105.047 120.803 105.233 121.149 105.38C121.509 105.513 122.003 105.667 122.629 105.84C123.416 106.053 124.056 106.267 124.549 106.48C125.043 106.68 125.463 106.987 125.809 107.4C126.169 107.813 126.356 108.353 126.369 109.02C126.369 109.62 126.203 110.16 125.869 110.64C125.536 111.12 125.063 111.5 124.449 111.78C123.849 112.047 123.156 112.18 122.369 112.18ZM128.258 106.48C128.258 105.36 128.485 104.38 128.938 103.54C129.392 102.687 130.012 102.027 130.798 101.56C131.598 101.093 132.485 100.86 133.458 100.86C134.418 100.86 135.252 101.067 135.958 101.48C136.665 101.893 137.192 102.413 137.538 103.04V101.04H139.378V112H137.538V109.96C137.178 110.6 136.638 111.133 135.918 111.56C135.212 111.973 134.385 112.18 133.438 112.18C132.465 112.18 131.585 111.94 130.798 111.46C130.012 110.98 129.392 110.307 128.938 109.44C128.485 108.573 128.258 107.587 128.258 106.48ZM137.538 106.5C137.538 105.673 137.372 104.953 137.038 104.34C136.705 103.727 136.252 103.26 135.678 102.94C135.118 102.607 134.498 102.44 133.818 102.44C133.138 102.44 132.518 102.6 131.958 102.92C131.398 103.24 130.952 103.707 130.618 104.32C130.285 104.933 130.118 105.653 130.118 106.48C130.118 107.32 130.285 108.053 130.618 108.68C130.952 109.293 131.398 109.767 131.958 110.1C132.518 110.42 133.138 110.58 133.818 110.58C134.498 110.58 135.118 110.42 135.678 110.1C136.252 109.767 136.705 109.293 137.038 108.68C137.372 108.053 137.538 107.327 137.538 106.5ZM148.574 112L144.274 107.16V112H142.454V97.2H144.274V105.9L148.494 101.04H151.034L145.874 106.5L151.054 112H148.574ZM157.527 112.18C156.5 112.18 155.567 111.947 154.727 111.48C153.9 111.013 153.247 110.353 152.767 109.5C152.3 108.633 152.067 107.633 152.067 106.5C152.067 105.38 152.307 104.393 152.787 103.54C153.28 102.673 153.947 102.013 154.787 101.56C155.627 101.093 156.567 100.86 157.607 100.86C158.647 100.86 159.587 101.093 160.427 101.56C161.267 102.013 161.927 102.667 162.407 103.52C162.9 104.373 163.147 105.367 163.147 106.5C163.147 107.633 162.894 108.633 162.387 109.5C161.894 110.353 161.22 111.013 160.367 111.48C159.514 111.947 158.567 112.18 157.527 112.18ZM157.527 110.58C158.18 110.58 158.794 110.427 159.367 110.12C159.94 109.813 160.4 109.353 160.747 108.74C161.107 108.127 161.287 107.38 161.287 106.5C161.287 105.62 161.114 104.873 160.767 104.26C160.42 103.647 159.967 103.193 159.407 102.9C158.847 102.593 158.24 102.44 157.587 102.44C156.92 102.44 156.307 102.593 155.747 102.9C155.2 103.193 154.76 103.647 154.427 104.26C154.094 104.873 153.927 105.62 153.927 106.5C153.927 107.393 154.087 108.147 154.407 108.76C154.74 109.373 155.18 109.833 155.727 110.14C156.274 110.433 156.874 110.58 157.527 110.58ZM169.42 112.18C168.58 112.18 167.827 112.04 167.16 111.76C166.493 111.467 165.967 111.067 165.58 110.56C165.193 110.04 164.98 109.447 164.94 108.78H166.82C166.873 109.327 167.127 109.773 167.58 110.12C168.047 110.467 168.653 110.64 169.4 110.64C170.093 110.64 170.64 110.487 171.04 110.18C171.44 109.873 171.64 109.487 171.64 109.02C171.64 108.54 171.427 108.187 171 107.96C170.573 107.72 169.913 107.487 169.02 107.26C168.207 107.047 167.54 106.833 167.02 106.62C166.513 106.393 166.073 106.067 165.7 105.64C165.34 105.2 165.16 104.627 165.16 103.92C165.16 103.36 165.327 102.847 165.66 102.38C165.993 101.913 166.467 101.547 167.08 101.28C167.693 101 168.393 100.86 169.18 100.86C170.393 100.86 171.373 101.167 172.12 101.78C172.867 102.393 173.267 103.233 173.32 104.3H171.5C171.46 103.727 171.227 103.267 170.8 102.92C170.387 102.573 169.827 102.4 169.12 102.4C168.467 102.4 167.947 102.54 167.56 102.82C167.173 103.1 166.98 103.467 166.98 103.92C166.98 104.28 167.093 104.58 167.32 104.82C167.56 105.047 167.853 105.233 168.2 105.38C168.56 105.513 169.053 105.667 169.68 105.84C170.467 106.053 171.107 106.267 171.6 106.48C172.093 106.68 172.513 106.987 172.86 107.4C173.22 107.813 173.407 108.353 173.42 109.02C173.42 109.62 173.253 110.16 172.92 110.64C172.587 111.12 172.113 111.5 171.5 111.78C170.9 112.047 170.207 112.18 169.42 112.18ZM178.209 102.54V109C178.209 109.533 178.323 109.913 178.549 110.14C178.776 110.353 179.169 110.46 179.729 110.46H181.069V112H179.429C178.416 112 177.656 111.767 177.149 111.3C176.643 110.833 176.389 110.067 176.389 109V102.54H174.969V101.04H176.389V98.28H178.209V101.04H181.069V102.54H178.209ZM188.054 112.18C187.028 112.18 186.094 111.947 185.254 111.48C184.428 111.013 183.774 110.353 183.294 109.5C182.828 108.633 182.594 107.633 182.594 106.5C182.594 105.38 182.834 104.393 183.314 103.54C183.808 102.673 184.474 102.013 185.314 101.56C186.154 101.093 187.094 100.86 188.134 100.86C189.174 100.86 190.114 101.093 190.954 101.56C191.794 102.013 192.454 102.667 192.934 103.52C193.428 104.373 193.674 105.367 193.674 106.5C193.674 107.633 193.421 108.633 192.914 109.5C192.421 110.353 191.748 111.013 190.894 111.48C190.041 111.947 189.094 112.18 188.054 112.18ZM188.054 110.58C188.708 110.58 189.321 110.427 189.894 110.12C190.468 109.813 190.928 109.353 191.274 108.74C191.634 108.127 191.814 107.38 191.814 106.5C191.814 105.62 191.641 104.873 191.294 104.26C190.948 103.647 190.494 103.193 189.934 102.9C189.374 102.593 188.768 102.44 188.114 102.44C187.448 102.44 186.834 102.593 186.274 102.9C185.728 103.193 185.288 103.647 184.954 104.26C184.621 104.873 184.454 105.62 184.454 106.5C184.454 107.393 184.614 108.147 184.934 108.76C185.268 109.373 185.708 109.833 186.254 110.14C186.801 110.433 187.401 110.58 188.054 110.58ZM200.147 110.32L203.547 101.04H205.487L201.187 112H199.067L194.767 101.04H196.727L200.147 110.32ZM206.598 106.48C206.598 105.36 206.825 104.38 207.278 103.54C207.732 102.687 208.352 102.027 209.138 101.56C209.938 101.093 210.825 100.86 211.798 100.86C212.758 100.86 213.592 101.067 214.298 101.48C215.005 101.893 215.532 102.413 215.878 103.04V101.04H217.718V112H215.878V109.96C215.518 110.6 214.978 111.133 214.258 111.56C213.552 111.973 212.725 112.18 211.778 112.18C210.805 112.18 209.925 111.94 209.138 111.46C208.352 110.98 207.732 110.307 207.278 109.44C206.825 108.573 206.598 107.587 206.598 106.48ZM215.878 106.5C215.878 105.673 215.712 104.953 215.378 104.34C215.045 103.727 214.592 103.26 214.018 102.94C213.458 102.607 212.838 102.44 212.158 102.44C211.478 102.44 210.858 102.6 210.298 102.92C209.738 103.24 209.292 103.707 208.958 104.32C208.625 104.933 208.458 105.653 208.458 106.48C208.458 107.32 208.625 108.053 208.958 108.68C209.292 109.293 209.738 109.767 210.298 110.1C210.858 110.42 211.478 110.58 212.158 110.58C212.838 110.58 213.458 110.42 214.018 110.1C214.592 109.767 215.045 109.293 215.378 108.68C215.712 108.053 215.878 107.327 215.878 106.5ZM221.374 112.12C221.027 112.12 220.734 112 220.494 111.76C220.254 111.52 220.134 111.227 220.134 110.88C220.134 110.533 220.254 110.24 220.494 110C220.734 109.76 221.027 109.64 221.374 109.64C221.707 109.64 221.987 109.76 222.214 110C222.454 110.24 222.574 110.533 222.574 110.88C222.574 111.227 222.454 111.52 222.214 111.76C221.987 112 221.707 112.12 221.374 112.12ZM224.313 106.5C224.313 105.367 224.54 104.38 224.993 103.54C225.446 102.687 226.073 102.027 226.873 101.56C227.686 101.093 228.613 100.86 229.653 100.86C231 100.86 232.106 101.187 232.973 101.84C233.853 102.493 234.433 103.4 234.713 104.56H232.753C232.566 103.893 232.2 103.367 231.653 102.98C231.12 102.593 230.453 102.4 229.653 102.4C228.613 102.4 227.773 102.76 227.133 103.48C226.493 104.187 226.173 105.193 226.173 106.5C226.173 107.82 226.493 108.84 227.133 109.56C227.773 110.28 228.613 110.64 229.653 110.64C230.453 110.64 231.12 110.453 231.653 110.08C232.186 109.707 232.553 109.173 232.753 108.48H234.713C234.42 109.6 233.833 110.5 232.953 111.18C232.073 111.847 230.973 112.18 229.653 112.18C228.613 112.18 227.686 111.947 226.873 111.48C226.073 111.013 225.446 110.353 224.993 109.5C224.54 108.647 224.313 107.647 224.313 106.5ZM241.922 112.18C240.895 112.18 239.962 111.947 239.122 111.48C238.295 111.013 237.642 110.353 237.162 109.5C236.695 108.633 236.462 107.633 236.462 106.5C236.462 105.38 236.702 104.393 237.182 103.54C237.675 102.673 238.342 102.013 239.182 101.56C240.022 101.093 240.962 100.86 242.002 100.86C243.042 100.86 243.982 101.093 244.822 101.56C245.662 102.013 246.322 102.667 246.802 103.52C247.295 104.373 247.542 105.367 247.542 106.5C247.542 107.633 247.288 108.633 246.782 109.5C246.288 110.353 245.615 111.013 244.762 111.48C243.908 111.947 242.962 112.18 241.922 112.18ZM241.922 110.58C242.575 110.58 243.188 110.427 243.762 110.12C244.335 109.813 244.795 109.353 245.142 108.74C245.502 108.127 245.682 107.38 245.682 106.5C245.682 105.62 245.508 104.873 245.162 104.26C244.815 103.647 244.362 103.193 243.802 102.9C243.242 102.593 242.635 102.44 241.982 102.44C241.315 102.44 240.702 102.593 240.142 102.9C239.595 103.193 239.155 103.647 238.822 104.26C238.488 104.873 238.322 105.62 238.322 106.5C238.322 107.393 238.482 108.147 238.802 108.76C239.135 109.373 239.575 109.833 240.122 110.14C240.668 110.433 241.268 110.58 241.922 110.58ZM263.115 100.84C263.968 100.84 264.728 101.02 265.395 101.38C266.061 101.727 266.588 102.253 266.975 102.96C267.361 103.667 267.555 104.527 267.555 105.54V112H265.755V105.8C265.755 104.707 265.481 103.873 264.935 103.3C264.401 102.713 263.675 102.42 262.755 102.42C261.808 102.42 261.055 102.727 260.495 103.34C259.935 103.94 259.655 104.813 259.655 105.96V112H257.855V105.8C257.855 104.707 257.581 103.873 257.035 103.3C256.501 102.713 255.775 102.42 254.855 102.42C253.908 102.42 253.155 102.727 252.595 103.34C252.035 103.94 251.755 104.813 251.755 105.96V112H249.935V101.04H251.755V102.62C252.115 102.047 252.595 101.607 253.195 101.3C253.808 100.993 254.481 100.84 255.215 100.84C256.135 100.84 256.948 101.047 257.655 101.46C258.361 101.873 258.888 102.48 259.235 103.28C259.541 102.507 260.048 101.907 260.755 101.48C261.461 101.053 262.248 100.84 263.115 100.84Z" fill="#1A3EFB"/>
<path d="M375 2H425V65C425 78.2548 414.255 89 401 89H399C385.745 89 375 78.2548 375 65V2Z" fill="#FFF84F"/>
<path d="M399.049 47.9268C399.348 47.0055 400.651 47.0055 400.951 47.9268L403.817 56.7465C403.95 57.1585 404.334 57.4375 404.768 57.4375H414.041C415.01 57.4375 415.413 58.6771 414.629 59.2465L407.126 64.6973C406.776 64.952 406.629 65.4033 406.763 65.8154L409.629 74.635C409.928 75.5563 408.874 76.3225 408.09 75.7531L400.588 70.3022C400.237 70.0476 399.762 70.0476 399.412 70.3022L391.91 75.7531C391.126 76.3225 390.071 75.5563 390.371 74.635L393.236 65.8154C393.37 65.4033 393.224 64.952 392.873 64.6973L385.371 59.2465C384.587 58.6771 384.99 57.4375 385.958 57.4375H395.232C395.665 57.4375 396.049 57.1585 396.183 56.7465L399.049 47.9268Z" fill="white"/>
<path fill-rule="evenodd" clip-rule="evenodd" d="M398.098 47.6178C398.697 45.7752 401.304 45.7752 401.902 47.6178L404.768 56.4375H414.042C415.979 56.4375 416.785 58.9167 415.217 60.0555L407.715 65.5063L410.58 74.326C411.179 76.1686 409.07 77.7009 407.503 76.5621L400 71.1112L392.498 76.5621C390.93 77.7009 388.821 76.1686 389.42 74.326L392.286 65.5063L384.783 60.0555C383.216 58.9167 384.021 56.4375 385.959 56.4375H395.232L398.098 47.6178ZM402.866 57.0555L400 48.2358L397.135 57.0555C396.867 57.8795 396.099 58.4375 395.232 58.4375H385.959L393.461 63.8883C394.162 64.3976 394.456 65.3003 394.188 66.1244L391.322 74.944L398.825 69.4932C399.526 68.9839 400.475 68.9839 401.176 69.4932L408.678 74.944L405.813 66.1244C405.545 65.3003 405.838 64.3976 406.539 63.8883L414.042 58.4375H404.768C403.902 58.4375 403.134 57.8795 402.866 57.0555Z" fill="#1A3EFB"/>
</svg>
