<svg width="952" height="450" viewBox="0 0 952 450" fill="none" xmlns="http://www.w3.org/2000/svg">
<path d="M952 0H0V450H952V0Z" fill="white"/>
<g filter="url(#filter0_d)">
<rect x="77" y="26" width="157" height="104.201" rx="16" fill="#2F59F5"/>
<rect x="78" y="27" width="155" height="102.201" rx="15" stroke="#2F59F5" stroke-width="2"/>
</g>
<g filter="url(#filter1_d)">
<rect x="85" y="35.9819" width="160" height="104.201" rx="16" fill="white"/>
<rect x="86" y="36.9819" width="158" height="102.201" rx="15" stroke="#2F59F5" stroke-width="2"/>
</g>
<path d="M187.246 112.274V111.561C186.319 110.848 185.535 109.066 186.604 105.643C191.025 94.734 199.652 73.8428 200.865 70.9194C202.718 66.4988 203.859 64.8588 205.428 63.0763V62.3633H182.825V63.005C185.25 64.7162 186.533 69.2795 184.394 75.1262L178.975 90.0995L167.852 62.3633H164.857L152.594 90.6699L147.103 75.1262C145.107 69.5647 146.533 64.7162 148.672 63.005V62.3633H125V63.0763C126.783 64.9301 127.424 66.784 129.563 70.9194C131.203 74.0567 139.26 94.5201 143.538 105.429C144.75 108.994 143.895 110.777 142.968 111.561V112.274H158.44V111.561C157.442 110.777 156.586 109.137 158.226 105.215L165.642 87.7465L172.273 106.641C173.2 109.565 172.344 110.919 171.488 111.561V112.274H187.246Z" fill="black"/>
<g filter="url(#filter2_d)">
<path d="M396 46.9912C396 38.1546 403.163 30.9912 412 30.9912H540C548.837 30.9912 556 38.1547 556 46.9912V119.091C556 127.928 548.837 135.091 540 135.091H412C403.163 135.091 396 127.928 396 119.091V46.9912Z" fill="white"/>
</g>
<g filter="url(#filter3_d)">
<path fill-rule="evenodd" clip-rule="evenodd" d="M412 32.2412C411.013 32.2412 410.05 32.3379 409.12 32.522C408.443 32.656 407.785 32.2156 407.651 31.5383C407.517 30.8611 407.958 30.2035 408.635 30.0695C409.724 29.854 410.85 29.7412 412 29.7412H416C416.69 29.7412 417.25 30.3009 417.25 30.9912C417.25 31.6816 416.69 32.2412 416 32.2412H412ZM422.75 30.9912C422.75 30.3009 423.31 29.7412 424 29.7412H432C432.69 29.7412 433.25 30.3009 433.25 30.9912C433.25 31.6816 432.69 32.2412 432 32.2412H424C423.31 32.2412 422.75 31.6816 422.75 30.9912ZM438.75 30.9912C438.75 30.3009 439.31 29.7412 440 29.7412H448C448.69 29.7412 449.25 30.3009 449.25 30.9912C449.25 31.6816 448.69 32.2412 448 32.2412H440C439.31 32.2412 438.75 31.6816 438.75 30.9912ZM454.75 30.9912C454.75 30.3009 455.31 29.7412 456 29.7412H464C464.69 29.7412 465.25 30.3009 465.25 30.9912C465.25 31.6816 464.69 32.2412 464 32.2412H456C455.31 32.2412 454.75 31.6816 454.75 30.9912ZM470.75 30.9912C470.75 30.3009 471.31 29.7412 472 29.7412H480C480.69 29.7412 481.25 30.3009 481.25 30.9912C481.25 31.6816 480.69 32.2412 480 32.2412H472C471.31 32.2412 470.75 31.6816 470.75 30.9912ZM486.75 30.9912C486.75 30.3009 487.31 29.7412 488 29.7412H496C496.69 29.7412 497.25 30.3009 497.25 30.9912C497.25 31.6816 496.69 32.2412 496 32.2412H488C487.31 32.2412 486.75 31.6816 486.75 30.9912ZM502.75 30.9912C502.75 30.3009 503.31 29.7412 504 29.7412H512C512.69 29.7412 513.25 30.3009 513.25 30.9912C513.25 31.6816 512.69 32.2412 512 32.2412H504C503.31 32.2412 502.75 31.6816 502.75 30.9912ZM518.75 30.9912C518.75 30.3009 519.31 29.7412 520 29.7412H528C528.69 29.7412 529.25 30.3009 529.25 30.9912C529.25 31.6816 528.69 32.2412 528 32.2412H520C519.31 32.2412 518.75 31.6816 518.75 30.9912ZM534.75 30.9912C534.75 30.3009 535.31 29.7412 536 29.7412H540C541.15 29.7412 542.276 29.854 543.365 30.0695C544.042 30.2035 544.483 30.8611 544.349 31.5383C544.215 32.2156 543.557 32.656 542.88 32.522C541.95 32.3379 540.987 32.2412 540 32.2412H536C535.31 32.2412 534.75 31.6816 534.75 30.9912ZM404.149 32.9908C404.533 33.5644 404.379 34.3408 403.806 34.7249C402.197 35.8021 400.811 37.1877 399.734 38.7968C399.35 39.3704 398.573 39.5241 398 39.1401C397.426 38.756 397.272 37.9796 397.656 37.406C398.915 35.5254 400.534 33.9065 402.415 32.6474C402.988 32.2634 403.765 32.4171 404.149 32.9908ZM547.851 32.9908C548.235 32.4171 549.012 32.2634 549.585 32.6475C551.466 33.9065 553.085 35.5254 554.344 37.406C554.728 37.9796 554.574 38.756 554 39.1401C553.427 39.5241 552.65 39.3704 552.266 38.7968C551.189 37.1877 549.803 35.8021 548.194 34.7249C547.621 34.3408 547.467 33.5644 547.851 32.9908ZM396.547 42.6424C397.224 42.7764 397.665 43.434 397.531 44.1112C397.347 45.0417 397.25 46.0045 397.25 46.9912V50.5962C397.25 51.2865 396.69 51.8462 396 51.8462C395.31 51.8462 394.75 51.2865 394.75 50.5962V46.9912C394.75 45.8408 394.863 44.7154 395.078 43.626C395.212 42.9488 395.87 42.5084 396.547 42.6424ZM555.453 42.6424C556.13 42.5084 556.788 42.9488 556.922 43.626C557.137 44.7154 557.25 45.8408 557.25 46.9912V50.5962C557.25 51.2866 556.69 51.8462 556 51.8462C555.31 51.8462 554.75 51.2866 554.75 50.5962V46.9912C554.75 46.0045 554.653 45.0417 554.469 44.1112C554.335 43.434 554.776 42.7764 555.453 42.6424ZM396 56.5562C396.69 56.5562 397.25 57.1158 397.25 57.8062V65.0162C397.25 65.7065 396.69 66.2662 396 66.2662C395.31 66.2662 394.75 65.7065 394.75 65.0162V57.8062C394.75 57.1158 395.31 56.5562 396 56.5562ZM556 56.5562C556.69 56.5562 557.25 57.1158 557.25 57.8062V65.0162C557.25 65.7065 556.69 66.2662 556 66.2662C555.31 66.2662 554.75 65.7065 554.75 65.0162V57.8062C554.75 57.1158 555.31 56.5562 556 56.5562ZM396 70.9761C396.69 70.9761 397.25 71.5358 397.25 72.2261V79.4361C397.25 80.1265 396.69 80.6861 396 80.6861C395.31 80.6861 394.75 80.1265 394.75 79.4361V72.2261C394.75 71.5358 395.31 70.9761 396 70.9761ZM556 70.9762C556.69 70.9762 557.25 71.5358 557.25 72.2262V79.4361C557.25 80.1265 556.69 80.6861 556 80.6861C555.31 80.6861 554.75 80.1265 554.75 79.4361V72.2262C554.75 71.5358 555.31 70.9762 556 70.9762ZM396 85.3961C396.69 85.3961 397.25 85.9558 397.25 86.6461V93.8561C397.25 94.5465 396.69 95.1061 396 95.1061C395.31 95.1061 394.75 94.5465 394.75 93.8561V86.6461C394.75 85.9558 395.31 85.3961 396 85.3961ZM556 85.3961C556.69 85.3961 557.25 85.9558 557.25 86.6461V93.8561C557.25 94.5465 556.69 95.1061 556 95.1061C555.31 95.1061 554.75 94.5465 554.75 93.8561V86.6461C554.75 85.9558 555.31 85.3961 556 85.3961ZM396 99.8161C396.69 99.8161 397.25 100.376 397.25 101.066V108.276C397.25 108.966 396.69 109.526 396 109.526C395.31 109.526 394.75 108.966 394.75 108.276V101.066C394.75 100.376 395.31 99.8161 396 99.8161ZM556 99.8161C556.69 99.8161 557.25 100.376 557.25 101.066V108.276C557.25 108.966 556.69 109.526 556 109.526C555.31 109.526 554.75 108.966 554.75 108.276V101.066C554.75 100.376 555.31 99.8161 556 99.8161ZM396 114.236C396.69 114.236 397.25 114.796 397.25 115.486V119.091C397.25 120.078 397.347 121.041 397.531 121.971C397.665 122.648 397.224 123.306 396.547 123.44C395.87 123.574 395.212 123.133 395.078 122.456C394.863 121.367 394.75 120.241 394.75 119.091V115.486C394.75 114.796 395.31 114.236 396 114.236ZM556 114.236C556.69 114.236 557.25 114.796 557.25 115.486V119.091C557.25 120.241 557.137 121.367 556.922 122.456C556.788 123.133 556.13 123.574 555.453 123.44C554.776 123.306 554.335 122.648 554.469 121.971C554.653 121.041 554.75 120.078 554.75 119.091V115.486C554.75 114.796 555.31 114.236 556 114.236ZM398 126.942C398.573 126.558 399.35 126.712 399.734 127.285C400.811 128.895 402.197 130.28 403.806 131.357C404.379 131.741 404.533 132.518 404.149 133.091C403.765 133.665 402.988 133.819 402.415 133.435C400.534 132.176 398.915 130.557 397.656 128.676C397.272 128.103 397.426 127.326 398 126.942ZM554 126.942C554.574 127.326 554.728 128.103 554.344 128.676C553.085 130.557 551.466 132.176 549.585 133.435C549.012 133.819 548.235 133.665 547.851 133.091C547.467 132.518 547.621 131.741 548.194 131.357C549.803 130.28 551.189 128.895 552.266 127.285C552.65 126.712 553.427 126.558 554 126.942ZM407.651 134.544C407.785 133.867 408.443 133.426 409.12 133.56C410.05 133.744 411.013 133.841 412 133.841H416C416.69 133.841 417.25 134.401 417.25 135.091C417.25 135.781 416.69 136.341 416 136.341H412C410.85 136.341 409.724 136.228 408.635 136.013C407.958 135.879 407.517 135.221 407.651 134.544ZM544.349 134.544C544.483 135.221 544.042 135.879 543.365 136.013C542.276 136.228 541.15 136.341 540 136.341H536C535.31 136.341 534.75 135.781 534.75 135.091C534.75 134.401 535.31 133.841 536 133.841H540C540.987 133.841 541.95 133.744 542.88 133.56C543.557 133.426 544.215 133.867 544.349 134.544ZM422.75 135.091C422.75 134.401 423.31 133.841 424 133.841H432C432.69 133.841 433.25 134.401 433.25 135.091C433.25 135.781 432.69 136.341 432 136.341H424C423.31 136.341 422.75 135.781 422.75 135.091ZM438.75 135.091C438.75 134.401 439.31 133.841 440 133.841H448C448.69 133.841 449.25 134.401 449.25 135.091C449.25 135.781 448.69 136.341 448 136.341H440C439.31 136.341 438.75 135.781 438.75 135.091ZM454.75 135.091C454.75 134.401 455.31 133.841 456 133.841H464C464.69 133.841 465.25 134.401 465.25 135.091C465.25 135.781 464.69 136.341 464 136.341H456C455.31 136.341 454.75 135.781 454.75 135.091ZM470.75 135.091C470.75 134.401 471.31 133.841 472 133.841H480C480.69 133.841 481.25 134.401 481.25 135.091C481.25 135.781 480.69 136.341 480 136.341H472C471.31 136.341 470.75 135.781 470.75 135.091ZM486.75 135.091C486.75 134.401 487.31 133.841 488 133.841H496C496.69 133.841 497.25 134.401 497.25 135.091C497.25 135.781 496.69 136.341 496 136.341H488C487.31 136.341 486.75 135.781 486.75 135.091ZM502.75 135.091C502.75 134.401 503.31 133.841 504 133.841H512C512.69 133.841 513.25 134.401 513.25 135.091C513.25 135.781 512.69 136.341 512 136.341H504C503.31 136.341 502.75 135.781 502.75 135.091ZM518.75 135.091C518.75 134.401 519.31 133.841 520 133.841H528C528.69 133.841 529.25 134.401 529.25 135.091C529.25 135.781 528.69 136.341 528 136.341H520C519.31 136.341 518.75 135.781 518.75 135.091Z" fill="#2F59F5"/>
</g>
<path d="M486.724 107.997C493.925 107.997 496.135 109.423 496.135 109.423L499.059 93.0945L498.488 92.8093C496.421 94.6632 493.783 96.5883 488.863 96.5883H471.18C471.18 90.3138 475.458 86.107 480.307 86.107C483.943 86.107 485.44 88.1035 485.44 90.0999C489.077 90.0999 492.713 87.8895 492.713 83.6115C492.713 78.4778 488.221 74.9127 481.59 74.9127C476.599 74.9127 472.82 77.1944 471.18 80.4742V69.4938H488.15C493.426 69.4938 495.708 70.9198 497.134 72.0607L497.775 71.8468L494.709 57.0874C494.709 57.0874 493.141 58.0856 486.011 58.0856H452V58.7986C455.351 59.9395 456.92 62.7915 456.92 67.5687V98.5847C456.92 103.219 455.137 106.285 452 107.283V107.997H486.724Z" fill="black"/>
<rect x="710" y="30.9912" width="160" height="104.1" rx="16" fill="#F3F3F3"/>
<path d="M796.027 107.996C803.157 107.996 805.438 109.28 805.438 109.28L808.362 93.0944L807.791 92.8092C805.866 94.4491 803.513 96.5881 798.166 96.5881H790.18V67.4972C790.18 62.72 791.749 60.2245 795.1 58.7985V58.0854H771V58.7985C774.351 60.2245 775.92 62.72 775.92 67.4972V98.5846C775.92 103.362 774.351 105.857 771 107.283V107.996H796.027Z" fill="black"/>
<rect x="81" y="175.02" width="160" height="105.526" rx="16" fill="#2F59F5"/>
<path d="M183.845 219.44L182.704 202.684C181.991 203.183 180.779 203.611 179.068 203.611C176.572 203.611 172.152 201.686 165.877 201.686C150.333 201.686 137 211.027 137 227.283C137 241.9 148.266 253.879 164.594 253.879C179.638 253.879 186.269 245.964 186.269 238.192C186.269 233.272 182.49 230.848 178.854 230.848C178.854 236.766 175.146 242.256 166.162 242.256C156.465 242.256 151.26 235.483 151.26 227.354C151.26 218.442 156.964 213.094 166.234 213.094C173.649 213.094 178.925 215.804 182.989 219.583L183.845 219.44Z" fill="white"/>
<g filter="url(#filter4_d)">
<rect x="396" y="175" width="160" height="105.526" rx="16" fill="white"/>
<rect x="397" y="176" width="158" height="103.526" rx="15" stroke="#2F59F5" stroke-width="2"/>
</g>
<path d="M503.544 227.834C503.544 210.722 490.353 201.667 475.736 201.667C461.191 201.667 448 210.722 448 227.834C448 244.233 461.191 253.93 475.736 253.93C490.353 253.93 503.544 244.233 503.544 227.834ZM475.736 242.522C468.178 242.522 462.26 237.103 462.26 227.834C462.26 218.494 468.178 213.075 475.736 213.075C483.365 213.075 489.283 218.494 489.283 227.834C489.283 237.103 483.365 242.522 475.736 242.522Z" fill="black"/>
<g filter="url(#filter5_d)">
<path d="M396 336.474C396 327.638 403.163 320.474 412 320.474H540C548.837 320.474 556 327.638 556 336.474V410C556 418.837 548.837 426 540 426H412C403.163 426 396 418.837 396 410V336.474Z" fill="white"/>
</g>
<g filter="url(#filter6_d)">
<path fill-rule="evenodd" clip-rule="evenodd" d="M412 321.724C411.013 321.724 410.05 321.821 409.12 322.005C408.443 322.139 407.785 321.698 407.651 321.021C407.517 320.344 407.958 319.686 408.635 319.552C409.724 319.337 410.85 319.224 412 319.224H416C416.69 319.224 417.25 319.784 417.25 320.474C417.25 321.164 416.69 321.724 416 321.724H412ZM422.75 320.474C422.75 319.784 423.31 319.224 424 319.224H432C432.69 319.224 433.25 319.784 433.25 320.474C433.25 321.164 432.69 321.724 432 321.724H424C423.31 321.724 422.75 321.164 422.75 320.474ZM438.75 320.474C438.75 319.784 439.31 319.224 440 319.224H448C448.69 319.224 449.25 319.784 449.25 320.474C449.25 321.164 448.69 321.724 448 321.724H440C439.31 321.724 438.75 321.164 438.75 320.474ZM454.75 320.474C454.75 319.784 455.31 319.224 456 319.224H464C464.69 319.224 465.25 319.784 465.25 320.474C465.25 321.164 464.69 321.724 464 321.724H456C455.31 321.724 454.75 321.164 454.75 320.474ZM470.75 320.474C470.75 319.784 471.31 319.224 472 319.224H480C480.69 319.224 481.25 319.784 481.25 320.474C481.25 321.164 480.69 321.724 480 321.724H472C471.31 321.724 470.75 321.164 470.75 320.474ZM486.75 320.474C486.75 319.784 487.31 319.224 488 319.224H496C496.69 319.224 497.25 319.784 497.25 320.474C497.25 321.164 496.69 321.724 496 321.724H488C487.31 321.724 486.75 321.164 486.75 320.474ZM502.75 320.474C502.75 319.784 503.31 319.224 504 319.224H512C512.69 319.224 513.25 319.784 513.25 320.474C513.25 321.164 512.69 321.724 512 321.724H504C503.31 321.724 502.75 321.164 502.75 320.474ZM518.75 320.474C518.75 319.784 519.31 319.224 520 319.224H528C528.69 319.224 529.25 319.784 529.25 320.474C529.25 321.164 528.69 321.724 528 321.724H520C519.31 321.724 518.75 321.164 518.75 320.474ZM534.75 320.474C534.75 319.784 535.31 319.224 536 319.224H540C541.15 319.224 542.276 319.337 543.365 319.552C544.042 319.686 544.483 320.344 544.349 321.021C544.215 321.698 543.557 322.139 542.88 322.005C541.95 321.821 540.987 321.724 540 321.724H536C535.31 321.724 534.75 321.164 534.75 320.474ZM404.149 322.474C404.533 323.047 404.379 323.824 403.806 324.208C402.197 325.285 400.811 326.671 399.734 328.28C399.35 328.853 398.573 329.007 398 328.623C397.426 328.239 397.272 327.463 397.656 326.889C398.915 325.008 400.534 323.389 402.415 322.13C402.988 321.746 403.765 321.9 404.149 322.474ZM547.851 322.474C548.235 321.9 549.012 321.746 549.585 322.13C551.466 323.389 553.085 325.008 554.344 326.889C554.728 327.463 554.574 328.239 554 328.623C553.427 329.007 552.65 328.853 552.266 328.28C551.189 326.671 549.803 325.285 548.194 324.208C547.621 323.824 547.467 323.047 547.851 322.474ZM396.547 332.125C397.224 332.259 397.665 332.917 397.531 333.594C397.347 334.525 397.25 335.487 397.25 336.474V340.15C397.25 340.841 396.69 341.4 396 341.4C395.31 341.4 394.75 340.841 394.75 340.15V336.474C394.75 335.324 394.863 334.198 395.078 333.109C395.212 332.432 395.87 331.991 396.547 332.125ZM555.453 332.125C556.13 331.991 556.788 332.432 556.922 333.109C557.137 334.198 557.25 335.324 557.25 336.474V340.15C557.25 340.841 556.69 341.4 556 341.4C555.31 341.4 554.75 340.841 554.75 340.15V336.474C554.75 335.487 554.653 334.525 554.469 333.594C554.335 332.917 554.776 332.259 555.453 332.125ZM396 346.253C396.69 346.253 397.25 346.813 397.25 347.503V354.856C397.25 355.546 396.69 356.106 396 356.106C395.31 356.106 394.75 355.546 394.75 354.856V347.503C394.75 346.813 395.31 346.253 396 346.253ZM556 346.253C556.69 346.253 557.25 346.813 557.25 347.503V354.856C557.25 355.546 556.69 356.106 556 356.106C555.31 356.106 554.75 355.546 554.75 354.856V347.503C554.75 346.813 555.31 346.253 556 346.253ZM396 360.958C396.69 360.958 397.25 361.518 397.25 362.208V369.561C397.25 370.251 396.69 370.811 396 370.811C395.31 370.811 394.75 370.251 394.75 369.561V362.208C394.75 361.518 395.31 360.958 396 360.958ZM556 360.958C556.69 360.958 557.25 361.518 557.25 362.208V369.561C557.25 370.251 556.69 370.811 556 370.811C555.31 370.811 554.75 370.251 554.75 369.561V362.208C554.75 361.518 555.31 360.958 556 360.958ZM396 375.663C396.69 375.663 397.25 376.223 397.25 376.913V384.266C397.25 384.956 396.69 385.516 396 385.516C395.31 385.516 394.75 384.956 394.75 384.266V376.913C394.75 376.223 395.31 375.663 396 375.663ZM556 375.663C556.69 375.663 557.25 376.223 557.25 376.913V384.266C557.25 384.956 556.69 385.516 556 385.516C555.31 385.516 554.75 384.956 554.75 384.266V376.913C554.75 376.223 555.31 375.663 556 375.663ZM396 390.369C396.69 390.369 397.25 390.928 397.25 391.619V398.971C397.25 399.661 396.69 400.221 396 400.221C395.31 400.221 394.75 399.661 394.75 398.971V391.619C394.75 390.928 395.31 390.369 396 390.369ZM556 390.369C556.69 390.369 557.25 390.928 557.25 391.619V398.971C557.25 399.661 556.69 400.221 556 400.221C555.31 400.221 554.75 399.661 554.75 398.971V391.619C554.75 390.928 555.31 390.369 556 390.369ZM396 405.074C396.69 405.074 397.25 405.633 397.25 406.324V410C397.25 410.987 397.347 411.95 397.531 412.88C397.665 413.557 397.224 414.215 396.547 414.349C395.87 414.483 395.212 414.042 395.078 413.365C394.863 412.276 394.75 411.15 394.75 410V406.324C394.75 405.633 395.31 405.074 396 405.074ZM556 405.074C556.69 405.074 557.25 405.633 557.25 406.324V410C557.25 411.15 557.137 412.276 556.922 413.365C556.788 414.042 556.13 414.483 555.453 414.349C554.776 414.215 554.335 413.557 554.469 412.88C554.653 411.95 554.75 410.987 554.75 410V406.324C554.75 405.633 555.31 405.074 556 405.074ZM398 417.851C398.573 417.467 399.35 417.621 399.734 418.194C400.811 419.803 402.197 421.189 403.806 422.266C404.379 422.65 404.533 423.427 404.149 424C403.765 424.574 402.988 424.728 402.415 424.344C400.534 423.085 398.915 421.466 397.656 419.585C397.272 419.012 397.426 418.235 398 417.851ZM554 417.851C554.574 418.235 554.728 419.012 554.344 419.585C553.085 421.466 551.466 423.085 549.585 424.344C549.012 424.728 548.235 424.574 547.851 424C547.467 423.427 547.621 422.65 548.194 422.266C549.803 421.189 551.189 419.803 552.266 418.194C552.65 417.621 553.427 417.467 554 417.851ZM407.651 425.453C407.785 424.776 408.443 424.335 409.12 424.469C410.05 424.653 411.013 424.75 412 424.75H416C416.69 424.75 417.25 425.31 417.25 426C417.25 426.69 416.69 427.25 416 427.25H412C410.85 427.25 409.724 427.137 408.635 426.922C407.958 426.788 407.517 426.13 407.651 425.453ZM544.349 425.453C544.483 426.13 544.042 426.788 543.365 426.922C542.276 427.137 541.15 427.25 540 427.25H536C535.31 427.25 534.75 426.69 534.75 426C534.75 425.31 535.31 424.75 536 424.75H540C540.987 424.75 541.95 424.653 542.88 424.469C543.557 424.335 544.215 424.776 544.349 425.453ZM422.75 426C422.75 425.31 423.31 424.75 424 424.75H432C432.69 424.75 433.25 425.31 433.25 426C433.25 426.69 432.69 427.25 432 427.25H424C423.31 427.25 422.75 426.69 422.75 426ZM438.75 426C438.75 425.31 439.31 424.75 440 424.75H448C448.69 424.75 449.25 425.31 449.25 426C449.25 426.69 448.69 427.25 448 427.25H440C439.31 427.25 438.75 426.69 438.75 426ZM454.75 426C454.75 425.31 455.31 424.75 456 424.75H464C464.69 424.75 465.25 425.31 465.25 426C465.25 426.69 464.69 427.25 464 427.25H456C455.31 427.25 454.75 426.69 454.75 426ZM470.75 426C470.75 425.31 471.31 424.75 472 424.75H480C480.69 424.75 481.25 425.31 481.25 426C481.25 426.69 480.69 427.25 480 427.25H472C471.31 427.25 470.75 426.69 470.75 426ZM486.75 426C486.75 425.31 487.31 424.75 488 424.75H496C496.69 424.75 497.25 425.31 497.25 426C497.25 426.69 496.69 427.25 496 427.25H488C487.31 427.25 486.75 426.69 486.75 426ZM502.75 426C502.75 425.31 503.31 424.75 504 424.75H512C512.69 424.75 513.25 425.31 513.25 426C513.25 426.69 512.69 427.25 512 427.25H504C503.31 427.25 502.75 426.69 502.75 426ZM518.75 426C518.75 425.31 519.31 424.75 520 424.75H528C528.69 424.75 529.25 425.31 529.25 426C529.25 426.69 528.69 427.25 528 427.25H520C519.31 427.25 518.75 426.69 518.75 426Z" fill="#2F59F5"/>
</g>
<path d="M486.724 398.192C493.925 398.192 496.135 399.618 496.135 399.618L499.059 383.29L498.488 383.005C496.421 384.859 493.783 386.784 488.863 386.784H471.18C471.18 380.51 475.458 376.303 480.307 376.303C483.943 376.303 485.44 378.299 485.44 380.296C489.077 380.296 492.713 378.085 492.713 373.807C492.713 368.674 488.221 365.109 481.59 365.109C476.599 365.109 472.82 367.39 471.18 370.67V359.69H488.15C493.426 359.69 495.708 361.116 497.134 362.256L497.775 362.043L494.709 347.283C494.709 347.283 493.141 348.281 486.011 348.281H452V348.994C455.351 350.135 456.92 352.987 456.92 357.764V388.781C456.92 393.415 455.137 396.481 452 397.479V398.192H486.724Z" fill="black"/>
<g filter="url(#filter7_d)">
<rect x="714" y="179" width="160" height="106" rx="16" fill="#E9E9E9"/>
</g>
<g filter="url(#filter8_d)">
<rect x="706" y="170.742" width="160" height="105.868" rx="16" fill="#2F59F5"/>
</g>
<path d="M818.599 248.46V247.747C815.248 246.321 813.679 243.826 813.679 239.048V207.961C813.679 203.184 815.248 200.688 818.599 199.262V198.549L799.419 198.621L786.371 218.086L773.18 198.621L754 198.549V199.262C757.351 200.688 758.92 203.184 758.92 207.961V239.048C758.92 243.826 757.351 246.321 754 247.747V248.46H778.1V247.747C774.749 246.321 773.18 243.826 773.18 239.048V220.724L786.371 238.977L799.419 220.581V239.048C799.419 243.826 797.85 246.321 794.499 247.747V248.46H818.599Z" fill="white"/>
<circle cx="245" cy="83.0918" r="3" fill="black"/>
<path fill-rule="evenodd" clip-rule="evenodd" d="M386 77.2676L396 83.0411L386 88.8146V84.0283C385.948 84.0367 385.894 84.0411 385.84 84.0411H381.002C380.45 84.0411 380.002 83.5934 380.002 83.0411C380.002 82.4888 380.45 82.0411 381.002 82.0411H385.84C385.894 82.0411 385.948 82.0454 386 82.0538V77.2676ZM320.207 82.0916C320.212 82.0902 320.216 82.0888 320.221 82.0874C320.318 82.0571 320.421 82.0411 320.525 82.0411H322.944C323.497 82.0411 323.944 82.4888 323.944 83.0411C323.944 83.5934 323.497 84.0411 322.944 84.0411H320.793C320.788 84.0425 320.784 84.0439 320.779 84.0453C320.682 84.0756 320.579 84.0916 320.475 84.0916H318.056C317.503 84.0916 317.056 83.6439 317.056 83.0916C317.056 82.5393 317.503 82.0916 318.056 82.0916H320.207ZM329.685 83.0411C329.685 82.4888 330.133 82.0411 330.685 82.0411H335.523C336.076 82.0411 336.523 82.4888 336.523 83.0411C336.523 83.5934 336.076 84.0411 335.523 84.0411H330.685C330.133 84.0411 329.685 83.5934 329.685 83.0411ZM342.264 83.0411C342.264 82.4888 342.712 82.0411 343.264 82.0411H348.103C348.655 82.0411 349.103 82.4888 349.103 83.0411C349.103 83.5934 348.655 84.0411 348.103 84.0411H343.264C342.712 84.0411 342.264 83.5934 342.264 83.0411ZM354.844 83.0411C354.844 82.4888 355.291 82.0411 355.844 82.0411H360.682C361.234 82.0411 361.682 82.4888 361.682 83.0411C361.682 83.5934 361.234 84.0411 360.682 84.0411H355.844C355.291 84.0411 354.844 83.5934 354.844 83.0411ZM367.423 83.0411C367.423 82.4888 367.87 82.0411 368.423 82.0411H373.261C373.813 82.0411 374.261 82.4888 374.261 83.0411C374.261 83.5934 373.813 84.0411 373.261 84.0411H368.423C367.87 84.0411 367.423 83.5934 367.423 83.0411ZM244 83.0916C244 82.5393 244.448 82.0916 245 82.0916H247.419C247.971 82.0916 248.419 82.5393 248.419 83.0916C248.419 83.6439 247.971 84.0916 247.419 84.0916H245C244.448 84.0916 244 83.6439 244 83.0916ZM254.16 83.0916C254.16 82.5393 254.608 82.0916 255.16 82.0916H259.998C260.55 82.0916 260.998 82.5393 260.998 83.0916C260.998 83.6439 260.55 84.0916 259.998 84.0916H255.16C254.608 84.0916 254.16 83.6439 254.16 83.0916ZM266.739 83.0916C266.739 82.5393 267.187 82.0916 267.739 82.0916H272.577C273.13 82.0916 273.577 82.5393 273.577 83.0916C273.577 83.6439 273.13 84.0916 272.577 84.0916H267.739C267.187 84.0916 266.739 83.6439 266.739 83.0916ZM279.318 83.0916C279.318 82.5393 279.766 82.0916 280.318 82.0916H285.156C285.709 82.0916 286.156 82.5393 286.156 83.0916C286.156 83.6439 285.709 84.0916 285.156 84.0916H280.318C279.766 84.0916 279.318 83.6439 279.318 83.0916ZM291.897 83.0916C291.897 82.5393 292.345 82.0916 292.897 82.0916H297.736C298.288 82.0916 298.736 82.5393 298.736 83.0916C298.736 83.6439 298.288 84.0916 297.736 84.0916H292.897C292.345 84.0916 291.897 83.6439 291.897 83.0916ZM304.477 83.0916C304.477 82.5393 304.924 82.0916 305.477 82.0916H310.315C310.867 82.0916 311.315 82.5393 311.315 83.0916C311.315 83.6439 310.867 84.0916 310.315 84.0916H305.477C304.924 84.0916 304.477 83.6439 304.477 83.0916Z" fill="black" fill-opacity="0.88"/>
<circle cx="556" cy="83.041" r="3" fill="black"/>
<path fill-rule="evenodd" clip-rule="evenodd" d="M700 77.2676L710 83.0411L700 88.8146V83.9722C699.887 84.0167 699.764 84.0411 699.635 84.0411H694.699C694.146 84.0411 693.699 83.5934 693.699 83.0411C693.699 82.4888 694.146 82.0411 694.699 82.0411H699.635C699.764 82.0411 699.887 82.0655 700 82.1099V77.2676ZM555 83.0411C555 82.4888 555.448 82.0411 556 82.0411H558.468C559.02 82.0411 559.468 82.4888 559.468 83.0411C559.468 83.5934 559.02 84.0411 558.468 84.0411H556C555.448 84.0411 555 83.5934 555 83.0411ZM565.365 83.0411C565.365 82.4888 565.813 82.0411 566.365 82.0411H571.301C571.854 82.0411 572.301 82.4888 572.301 83.0411C572.301 83.5934 571.854 84.0411 571.301 84.0411H566.365C565.813 84.0411 565.365 83.5934 565.365 83.0411ZM578.199 83.0411C578.199 82.4888 578.646 82.0411 579.199 82.0411H584.135C584.687 82.0411 585.135 82.4888 585.135 83.0411C585.135 83.5934 584.687 84.0411 584.135 84.0411H579.199C578.646 84.0411 578.199 83.5934 578.199 83.0411ZM591.032 83.0411C591.032 82.4888 591.48 82.0411 592.032 82.0411H596.968C597.52 82.0411 597.968 82.4888 597.968 83.0411C597.968 83.5934 597.52 84.0411 596.968 84.0411H592.032C591.48 84.0411 591.032 83.5934 591.032 83.0411ZM603.865 83.0411C603.865 82.4888 604.313 82.0411 604.865 82.0411H609.801C610.354 82.0411 610.801 82.4888 610.801 83.0411C610.801 83.5934 610.354 84.0411 609.801 84.0411H604.865C604.313 84.0411 603.865 83.5934 603.865 83.0411ZM616.699 83.0411C616.699 82.4888 617.146 82.0411 617.699 82.0411H622.635C623.187 82.0411 623.635 82.4888 623.635 83.0411C623.635 83.5934 623.187 84.0411 622.635 84.0411H617.699C617.146 84.0411 616.699 83.5934 616.699 83.0411ZM629.532 83.0411C629.532 82.4888 629.98 82.0411 630.532 82.0411H635.468C636.02 82.0411 636.468 82.4888 636.468 83.0411C636.468 83.5934 636.02 84.0411 635.468 84.0411H630.532C629.98 84.0411 629.532 83.5934 629.532 83.0411ZM642.365 83.0411C642.365 82.4888 642.813 82.0411 643.365 82.0411H648.301C648.854 82.0411 649.301 82.4888 649.301 83.0411C649.301 83.5934 648.854 84.0411 648.301 84.0411H643.365C642.813 84.0411 642.365 83.5934 642.365 83.0411ZM655.199 83.0411C655.199 82.4888 655.646 82.0411 656.199 82.0411H661.135C661.687 82.0411 662.135 82.4888 662.135 83.0411C662.135 83.5934 661.687 84.0411 661.135 84.0411H656.199C655.646 84.0411 655.199 83.5934 655.199 83.0411ZM668.032 83.0411C668.032 82.4888 668.48 82.0411 669.032 82.0411H673.968C674.52 82.0411 674.968 82.4888 674.968 83.0411C674.968 83.5934 674.52 84.0411 673.968 84.0411H669.032C668.48 84.0411 668.032 83.5934 668.032 83.0411ZM680.865 83.0411C680.865 82.4888 681.313 82.0411 681.865 82.0411H686.801C687.354 82.0411 687.801 82.4888 687.801 83.0411C687.801 83.5934 687.354 84.0411 686.801 84.0411H681.865C681.313 84.0411 680.865 83.5934 680.865 83.0411Z" fill="black" fill-opacity="0.88"/>
<circle cx="790" cy="135.091" r="3" fill="black"/>
<path fill-rule="evenodd" clip-rule="evenodd" d="M790 134.091C790.552 134.091 791 134.539 791 135.091C791 136.162 790.92 137.216 790.764 138.245C790.682 138.791 790.172 139.167 789.626 139.084C789.08 139.002 788.704 138.492 788.787 137.946C788.927 137.016 789 136.062 789 135.091C789 134.539 789.448 134.091 790 134.091ZM786.71 146.119C787.155 146.446 787.25 147.072 786.922 147.517C785.668 149.218 784.163 150.723 782.462 151.977C782.017 152.305 781.391 152.21 781.063 151.766C780.736 151.321 780.83 150.695 781.275 150.367C782.815 149.232 784.177 147.87 785.312 146.33C785.64 145.886 786.266 145.791 786.71 146.119ZM774.029 154.681C774.112 155.227 773.736 155.737 773.19 155.819C772.16 155.975 771.107 156.055 770.036 156.055H767.518C766.965 156.055 766.518 155.607 766.518 155.055C766.518 154.503 766.965 154.055 767.518 154.055H770.036C771.007 154.055 771.96 153.982 772.891 153.842C773.437 153.759 773.947 154.135 774.029 154.681ZM180.964 156.055C179.993 156.055 179.04 156.128 178.109 156.269C177.563 156.351 177.053 155.975 176.971 155.429C176.888 154.883 177.264 154.373 177.81 154.291C178.84 154.136 179.893 154.055 180.964 154.055H183.482C184.034 154.055 184.482 154.503 184.482 155.055C184.482 155.607 184.034 156.055 183.482 156.055H180.964ZM190.537 155.055C190.537 154.503 190.985 154.055 191.537 154.055H196.572C197.125 154.055 197.572 154.503 197.572 155.055C197.572 155.607 197.125 156.055 196.572 156.055H191.537C190.985 156.055 190.537 155.607 190.537 155.055ZM203.628 155.055C203.628 154.503 204.076 154.055 204.628 154.055H209.663C210.215 154.055 210.663 154.503 210.663 155.055C210.663 155.607 210.215 156.055 209.663 156.055H204.628C204.076 156.055 203.628 155.607 203.628 155.055ZM216.718 155.055C216.718 154.503 217.166 154.055 217.718 154.055H222.753C223.305 154.055 223.753 154.503 223.753 155.055C223.753 155.607 223.305 156.055 222.753 156.055H217.718C217.166 156.055 216.718 155.607 216.718 155.055ZM229.809 155.055C229.809 154.503 230.257 154.055 230.809 154.055H235.844C236.396 154.055 236.844 154.503 236.844 155.055C236.844 155.607 236.396 156.055 235.844 156.055H230.809C230.257 156.055 229.809 155.607 229.809 155.055ZM242.899 155.055C242.899 154.503 243.347 154.055 243.899 154.055H248.934C249.486 154.055 249.934 154.503 249.934 155.055C249.934 155.607 249.486 156.055 248.934 156.055H243.899C243.347 156.055 242.899 155.607 242.899 155.055ZM255.99 155.055C255.99 154.503 256.438 154.055 256.99 154.055H262.025C262.577 154.055 263.025 154.503 263.025 155.055C263.025 155.607 262.577 156.055 262.025 156.055H256.99C256.438 156.055 255.99 155.607 255.99 155.055ZM269.08 155.055C269.08 154.503 269.528 154.055 270.08 154.055H275.115C275.667 154.055 276.115 154.503 276.115 155.055C276.115 155.607 275.667 156.055 275.115 156.055H270.08C269.528 156.055 269.08 155.607 269.08 155.055ZM282.171 155.055C282.171 154.503 282.618 154.055 283.171 154.055H288.206C288.758 154.055 289.206 154.503 289.206 155.055C289.206 155.607 288.758 156.055 288.206 156.055H283.171C282.618 156.055 282.171 155.607 282.171 155.055ZM295.261 155.055C295.261 154.503 295.709 154.055 296.261 154.055H301.296C301.848 154.055 302.296 154.503 302.296 155.055C302.296 155.607 301.848 156.055 301.296 156.055H296.261C295.709 156.055 295.261 155.607 295.261 155.055ZM308.352 155.055C308.352 154.503 308.799 154.055 309.352 154.055H314.386C314.939 154.055 315.386 154.503 315.386 155.055C315.386 155.607 314.939 156.055 314.386 156.055H309.352C308.799 156.055 308.352 155.607 308.352 155.055ZM321.442 155.055C321.442 154.503 321.89 154.055 322.442 154.055H327.477C328.029 154.055 328.477 154.503 328.477 155.055C328.477 155.607 328.029 156.055 327.477 156.055H322.442C321.89 156.055 321.442 155.607 321.442 155.055ZM334.533 155.055C334.533 154.503 334.98 154.055 335.533 154.055H340.567C341.12 154.055 341.567 154.503 341.567 155.055C341.567 155.607 341.12 156.055 340.567 156.055H335.533C334.98 156.055 334.533 155.607 334.533 155.055ZM347.623 155.055C347.623 154.503 348.071 154.055 348.623 154.055H353.658C354.21 154.055 354.658 154.503 354.658 155.055C354.658 155.607 354.21 156.055 353.658 156.055H348.623C348.071 156.055 347.623 155.607 347.623 155.055ZM360.714 155.055C360.714 154.503 361.161 154.055 361.714 154.055H366.748C367.301 154.055 367.748 154.503 367.748 155.055C367.748 155.607 367.301 156.055 366.748 156.055H361.714C361.161 156.055 360.714 155.607 360.714 155.055ZM373.804 155.055C373.804 154.503 374.252 154.055 374.804 154.055H379.839C380.391 154.055 380.839 154.503 380.839 155.055C380.839 155.607 380.391 156.055 379.839 156.055H374.804C374.252 156.055 373.804 155.607 373.804 155.055ZM386.894 155.055C386.894 154.503 387.342 154.055 387.894 154.055H392.929C393.482 154.055 393.929 154.503 393.929 155.055C393.929 155.607 393.482 156.055 392.929 156.055H387.894C387.342 156.055 386.894 155.607 386.894 155.055ZM399.985 155.055C399.985 154.503 400.433 154.055 400.985 154.055H406.02C406.572 154.055 407.02 154.503 407.02 155.055C407.02 155.607 406.572 156.055 406.02 156.055H400.985C400.433 156.055 399.985 155.607 399.985 155.055ZM413.075 155.055C413.075 154.503 413.523 154.055 414.075 154.055H419.11C419.663 154.055 420.11 154.503 420.11 155.055C420.11 155.607 419.663 156.055 419.11 156.055H414.075C413.523 156.055 413.075 155.607 413.075 155.055ZM426.166 155.055C426.166 154.503 426.614 154.055 427.166 154.055H432.201C432.753 154.055 433.201 154.503 433.201 155.055C433.201 155.607 432.753 156.055 432.201 156.055H427.166C426.614 156.055 426.166 155.607 426.166 155.055ZM439.256 155.055C439.256 154.503 439.704 154.055 440.256 154.055H445.291C445.843 154.055 446.291 154.503 446.291 155.055C446.291 155.607 445.843 156.055 445.291 156.055H440.256C439.704 156.055 439.256 155.607 439.256 155.055ZM452.347 155.055C452.347 154.503 452.795 154.055 453.347 154.055H458.382C458.934 154.055 459.382 154.503 459.382 155.055C459.382 155.607 458.934 156.055 458.382 156.055H453.347C452.795 156.055 452.347 155.607 452.347 155.055ZM465.437 155.055C465.437 154.503 465.885 154.055 466.437 154.055H471.472C472.024 154.055 472.472 154.503 472.472 155.055C472.472 155.607 472.024 156.055 471.472 156.055H466.437C465.885 156.055 465.437 155.607 465.437 155.055ZM478.528 155.055C478.528 154.503 478.975 154.055 479.528 154.055H484.562C485.115 154.055 485.562 154.503 485.562 155.055C485.562 155.607 485.115 156.055 484.562 156.055H479.528C478.975 156.055 478.528 155.607 478.528 155.055ZM491.618 155.055C491.618 154.503 492.066 154.055 492.618 154.055H497.653C498.205 154.055 498.653 154.503 498.653 155.055C498.653 155.607 498.205 156.055 497.653 156.055H492.618C492.066 156.055 491.618 155.607 491.618 155.055ZM504.709 155.055C504.709 154.503 505.156 154.055 505.709 154.055H510.743C511.296 154.055 511.743 154.503 511.743 155.055C511.743 155.607 511.296 156.055 510.743 156.055H505.709C505.156 156.055 504.709 155.607 504.709 155.055ZM517.799 155.055C517.799 154.503 518.247 154.055 518.799 154.055H523.834C524.386 154.055 524.834 154.503 524.834 155.055C524.834 155.607 524.386 156.055 523.834 156.055H518.799C518.247 156.055 517.799 155.607 517.799 155.055ZM530.89 155.055C530.89 154.503 531.337 154.055 531.89 154.055H536.924C537.477 154.055 537.924 154.503 537.924 155.055C537.924 155.607 537.477 156.055 536.924 156.055H531.89C531.337 156.055 530.89 155.607 530.89 155.055ZM543.98 155.055C543.98 154.503 544.428 154.055 544.98 154.055H550.015C550.567 154.055 551.015 154.503 551.015 155.055C551.015 155.607 550.567 156.055 550.015 156.055H544.98C544.428 156.055 543.98 155.607 543.98 155.055ZM557.07 155.055C557.07 154.503 557.518 154.055 558.07 154.055H563.105C563.658 154.055 564.105 154.503 564.105 155.055C564.105 155.607 563.658 156.055 563.105 156.055H558.07C557.518 156.055 557.07 155.607 557.07 155.055ZM570.161 155.055C570.161 154.503 570.609 154.055 571.161 154.055H576.196C576.748 154.055 577.196 154.503 577.196 155.055C577.196 155.607 576.748 156.055 576.196 156.055H571.161C570.609 156.055 570.161 155.607 570.161 155.055ZM583.251 155.055C583.251 154.503 583.699 154.055 584.251 154.055H589.286C589.838 154.055 590.286 154.503 590.286 155.055C590.286 155.607 589.838 156.055 589.286 156.055H584.251C583.699 156.055 583.251 155.607 583.251 155.055ZM596.342 155.055C596.342 154.503 596.79 154.055 597.342 154.055H602.377C602.929 154.055 603.377 154.503 603.377 155.055C603.377 155.607 602.929 156.055 602.377 156.055H597.342C596.79 156.055 596.342 155.607 596.342 155.055ZM609.432 155.055C609.432 154.503 609.88 154.055 610.432 154.055H615.467C616.019 154.055 616.467 154.503 616.467 155.055C616.467 155.607 616.019 156.055 615.467 156.055H610.432C609.88 156.055 609.432 155.607 609.432 155.055ZM622.523 155.055C622.523 154.503 622.97 154.055 623.523 154.055H628.557C629.11 154.055 629.557 154.503 629.557 155.055C629.557 155.607 629.11 156.055 628.557 156.055H623.523C622.97 156.055 622.523 155.607 622.523 155.055ZM635.613 155.055C635.613 154.503 636.061 154.055 636.613 154.055H641.648C642.2 154.055 642.648 154.503 642.648 155.055C642.648 155.607 642.2 156.055 641.648 156.055H636.613C636.061 156.055 635.613 155.607 635.613 155.055ZM648.704 155.055C648.704 154.503 649.151 154.055 649.704 154.055H654.738C655.291 154.055 655.738 154.503 655.738 155.055C655.738 155.607 655.291 156.055 654.738 156.055H649.704C649.151 156.055 648.704 155.607 648.704 155.055ZM661.794 155.055C661.794 154.503 662.242 154.055 662.794 154.055H667.829C668.381 154.055 668.829 154.503 668.829 155.055C668.829 155.607 668.381 156.055 667.829 156.055H662.794C662.242 156.055 661.794 155.607 661.794 155.055ZM674.885 155.055C674.885 154.503 675.332 154.055 675.885 154.055H680.919C681.472 154.055 681.919 154.503 681.919 155.055C681.919 155.607 681.472 156.055 680.919 156.055H675.885C675.332 156.055 674.885 155.607 674.885 155.055ZM687.975 155.055C687.975 154.503 688.423 154.055 688.975 154.055H694.01C694.562 154.055 695.01 154.503 695.01 155.055C695.01 155.607 694.562 156.055 694.01 156.055H688.975C688.423 156.055 687.975 155.607 687.975 155.055ZM701.065 155.055C701.065 154.503 701.513 154.055 702.065 154.055H707.1C707.652 154.055 708.1 154.503 708.1 155.055C708.1 155.607 707.652 156.055 707.1 156.055H702.065C701.513 156.055 701.065 155.607 701.065 155.055ZM714.156 155.055C714.156 154.503 714.604 154.055 715.156 154.055H720.191C720.743 154.055 721.191 154.503 721.191 155.055C721.191 155.607 720.743 156.055 720.191 156.055H715.156C714.604 156.055 714.156 155.607 714.156 155.055ZM727.246 155.055C727.246 154.503 727.694 154.055 728.246 154.055H733.281C733.833 154.055 734.281 154.503 734.281 155.055C734.281 155.607 733.833 156.055 733.281 156.055H728.246C727.694 156.055 727.246 155.607 727.246 155.055ZM740.337 155.055C740.337 154.503 740.784 154.055 741.337 154.055H746.372C746.924 154.055 747.372 154.503 747.372 155.055C747.372 155.607 746.924 156.055 746.372 156.055H741.337C740.784 156.055 740.337 155.607 740.337 155.055ZM753.427 155.055C753.427 154.503 753.875 154.055 754.427 154.055H759.462C760.014 154.055 760.462 154.503 760.462 155.055C760.462 155.607 760.014 156.055 759.462 156.055H754.427C753.875 156.055 753.427 155.607 753.427 155.055ZM169.937 158.345C170.264 158.789 170.17 159.415 169.725 159.743C168.185 160.878 166.823 162.24 165.688 163.78C165.36 164.225 164.734 164.319 164.29 163.992C163.845 163.664 163.75 163.038 164.078 162.594C165.332 160.892 166.837 159.387 168.538 158.133C168.983 157.805 169.609 157.9 169.937 158.345ZM161.374 171.026C161.92 171.108 162.296 171.618 162.213 172.164C162.073 173.095 162 174.048 162 175.02C162 175.572 161.552 176.02 161 176.02C160.448 176.02 160 175.572 160 175.02C160 173.948 160.08 172.895 160.236 171.866C160.318 171.319 160.828 170.944 161.374 171.026Z" fill="black" fill-opacity="0.88"/>
<path d="M161.5 181L154 168L169 168L161.5 181Z" fill="black"/>
<circle cx="790" cy="135.091" r="3" fill="black"/>
<circle cx="241" cy="227.773" r="3" fill="black"/>
<path fill-rule="evenodd" clip-rule="evenodd" d="M386 222L396 227.774L386 233.547V228.675C385.869 228.738 385.722 228.774 385.567 228.774H380.599C380.047 228.774 379.599 228.326 379.599 227.774C379.599 227.221 380.047 226.774 380.599 226.774H385.567C385.722 226.774 385.869 226.809 386 226.872V222ZM240 227.774C240 227.221 240.448 226.774 241 226.774H243.484C244.036 226.774 244.484 227.221 244.484 227.774C244.484 228.326 244.036 228.774 243.484 228.774H241C240.448 228.774 240 228.326 240 227.774ZM250.433 227.774C250.433 227.221 250.88 226.774 251.433 226.774H256.401C256.953 226.774 257.401 227.221 257.401 227.774C257.401 228.326 256.953 228.774 256.401 228.774H251.433C250.88 228.774 250.433 228.326 250.433 227.774ZM263.349 227.774C263.349 227.221 263.797 226.774 264.349 226.774H269.317C269.87 226.774 270.317 227.221 270.317 227.774C270.317 228.326 269.87 228.774 269.317 228.774H264.349C263.797 228.774 263.349 228.326 263.349 227.774ZM276.266 227.774C276.266 227.221 276.714 226.774 277.266 226.774H282.234C282.786 226.774 283.234 227.221 283.234 227.774C283.234 228.326 282.786 228.774 282.234 228.774H277.266C276.714 228.774 276.266 228.326 276.266 227.774ZM289.183 227.774C289.183 227.221 289.63 226.774 290.183 226.774H295.151C295.703 226.774 296.151 227.221 296.151 227.774C296.151 228.326 295.703 228.774 295.151 228.774H290.183C289.63 228.774 289.183 228.326 289.183 227.774ZM302.099 227.774C302.099 227.221 302.547 226.774 303.099 226.774H308.067C308.62 226.774 309.067 227.221 309.067 227.774C309.067 228.326 308.62 228.774 308.067 228.774H303.099C302.547 228.774 302.099 228.326 302.099 227.774ZM315.016 227.774C315.016 227.221 315.464 226.774 316.016 226.774H320.984C321.536 226.774 321.984 227.221 321.984 227.774C321.984 228.326 321.536 228.774 320.984 228.774H316.016C315.464 228.774 315.016 228.326 315.016 227.774ZM327.933 227.774C327.933 227.221 328.38 226.774 328.933 226.774H333.901C334.453 226.774 334.901 227.221 334.901 227.774C334.901 228.326 334.453 228.774 333.901 228.774H328.933C328.38 228.774 327.933 228.326 327.933 227.774ZM340.849 227.774C340.849 227.221 341.297 226.774 341.849 226.774H346.817C347.37 226.774 347.817 227.221 347.817 227.774C347.817 228.326 347.37 228.774 346.817 228.774H341.849C341.297 228.774 340.849 228.326 340.849 227.774ZM353.766 227.774C353.766 227.221 354.214 226.774 354.766 226.774H359.734C360.286 226.774 360.734 227.221 360.734 227.774C360.734 228.326 360.286 228.774 359.734 228.774H354.766C354.214 228.774 353.766 228.326 353.766 227.774ZM366.683 227.774C366.683 227.221 367.13 226.774 367.683 226.774H372.651C373.203 226.774 373.651 227.221 373.651 227.774C373.651 228.326 373.203 228.774 372.651 228.774H367.683C367.13 228.774 366.683 228.326 366.683 227.774Z" fill="black" fill-opacity="0.88"/>
<circle cx="556" cy="227.685" r="3" fill="black"/>
<path fill-rule="evenodd" clip-rule="evenodd" d="M696 222L706 227.774L696 233.547V228.769C695.97 228.772 695.94 228.774 695.91 228.774H691.105C690.553 228.774 690.105 228.326 690.105 227.774C690.105 227.221 690.553 226.774 691.105 226.774H695.91C695.94 226.774 695.97 226.775 696 226.778V222ZM555 227.685C555 227.133 555.448 226.685 556 226.685H558.402C558.955 226.685 559.402 227.133 559.402 227.685C559.402 228.238 558.955 228.685 558.402 228.685H556C555.448 228.685 555 228.238 555 227.685ZM565.09 227.685C565.09 227.133 565.538 226.685 566.09 226.685H570.895C571.447 226.685 571.895 227.133 571.895 227.685C571.895 228.238 571.447 228.685 570.895 228.685H566.09C565.538 228.685 565.09 228.238 565.09 227.685ZM577.583 227.685C577.583 227.133 578.031 226.685 578.583 226.685H583.388C583.94 226.685 584.388 227.133 584.388 227.685C584.388 228.238 583.94 228.685 583.388 228.685H578.583C578.031 228.685 577.583 228.238 577.583 227.685ZM590.076 227.685C590.076 227.133 590.523 226.685 591.076 226.685H595.88C596.433 226.685 596.88 227.133 596.88 227.685C596.88 228.238 596.433 228.685 595.88 228.685H591.076C590.523 228.685 590.076 228.238 590.076 227.685ZM602.568 227.685C602.568 227.133 603.016 226.685 603.568 226.685H608.373C608.925 226.685 609.373 227.133 609.373 227.685C609.373 228.238 608.925 228.685 608.373 228.685H603.568C603.016 228.685 602.568 228.238 602.568 227.685ZM615.061 227.685C615.061 227.133 615.509 226.685 616.061 226.685H620.866C621.418 226.685 621.866 227.133 621.866 227.685C621.866 228.238 621.418 228.685 620.866 228.685H616.061C615.509 228.685 615.061 228.238 615.061 227.685ZM627.553 227.685C627.553 227.133 628.001 226.685 628.553 226.685H630.956C631.062 226.685 631.167 226.702 631.266 226.732C631.304 226.744 631.34 226.758 631.376 226.774H633.447C633.999 226.774 634.447 227.221 634.447 227.774C634.447 228.326 633.999 228.774 633.447 228.774H631.044C630.938 228.774 630.833 228.757 630.734 228.726C630.696 228.715 630.66 228.701 630.624 228.685H628.553C628.001 228.685 627.553 228.238 627.553 227.685ZM640.134 227.774C640.134 227.221 640.582 226.774 641.134 226.774H645.939C646.491 226.774 646.939 227.221 646.939 227.774C646.939 228.326 646.491 228.774 645.939 228.774H641.134C640.582 228.774 640.134 228.326 640.134 227.774ZM652.627 227.774C652.627 227.221 653.075 226.774 653.627 226.774H658.432C658.984 226.774 659.432 227.221 659.432 227.774C659.432 228.326 658.984 228.774 658.432 228.774H653.627C653.075 228.774 652.627 228.326 652.627 227.774ZM665.12 227.774C665.12 227.221 665.567 226.774 666.12 226.774H670.924C671.477 226.774 671.924 227.221 671.924 227.774C671.924 228.326 671.477 228.774 670.924 228.774H666.12C665.567 228.774 665.12 228.326 665.12 227.774ZM677.612 227.774C677.612 227.221 678.06 226.774 678.612 226.774H683.417C683.969 226.774 684.417 227.221 684.417 227.774C684.417 228.326 683.969 228.774 683.417 228.774H678.612C678.06 228.774 677.612 228.326 677.612 227.774Z" fill="black" fill-opacity="0.88"/>
<circle cx="241" cy="243" r="3" fill="black"/>
<path fill-rule="evenodd" clip-rule="evenodd" d="M240 242.699C240 242.146 240.448 241.699 241 241.699H243.764C244.317 241.699 244.764 242.146 244.764 242.699C244.764 243.251 244.317 243.699 243.764 243.699H241C240.448 243.699 240 243.251 240 242.699ZM251.611 242.699C251.611 242.146 252.058 241.699 252.611 241.699H258.139C258.692 241.699 259.139 242.146 259.139 242.699C259.139 243.251 258.692 243.699 258.139 243.699H252.611C252.058 243.699 251.611 243.251 251.611 242.699ZM265.986 242.699C265.986 242.146 266.433 241.699 266.986 241.699H272.514C273.067 241.699 273.514 242.146 273.514 242.699C273.514 243.251 273.067 243.699 272.514 243.699H266.986C266.433 243.699 265.986 243.251 265.986 242.699ZM280.361 242.699C280.361 242.146 280.808 241.699 281.361 241.699H286.889C287.442 241.699 287.889 242.146 287.889 242.699C287.889 243.251 287.442 243.699 286.889 243.699H281.361C280.808 243.699 280.361 243.251 280.361 242.699ZM294.736 242.699C294.736 242.146 295.183 241.699 295.736 241.699H298.5C299.573 241.699 300.628 241.779 301.659 241.935C302.205 242.017 302.581 242.527 302.499 243.073C302.416 243.619 301.907 243.995 301.361 243.913C300.428 243.772 299.473 243.699 298.5 243.699H295.736C295.183 243.699 294.736 243.251 294.736 242.699ZM309.549 245.995C309.877 245.551 310.503 245.456 310.947 245.784C312.651 247.04 314.159 248.547 315.415 250.252C315.743 250.696 315.648 251.322 315.204 251.65C314.759 251.978 314.133 251.883 313.805 251.438C312.668 249.895 311.303 248.531 309.761 247.393C309.316 247.066 309.221 246.44 309.549 245.995ZM318.126 258.7C318.672 258.617 319.181 258.993 319.264 259.539C319.419 260.57 319.5 261.625 319.5 262.699V265.194C319.5 265.747 319.052 266.194 318.5 266.194C317.948 266.194 317.5 265.747 317.5 265.194V262.699C317.5 261.726 317.427 260.77 317.286 259.838C317.204 259.292 317.58 258.782 318.126 258.7ZM318.5 272.18C319.052 272.18 319.5 272.628 319.5 273.18V278.171C319.5 278.724 319.052 279.171 318.5 279.171C317.948 279.171 317.5 278.724 317.5 278.171V273.18C317.5 272.628 317.948 272.18 318.5 272.18ZM318.5 285.157C319.052 285.157 319.5 285.605 319.5 286.157V291.149C319.5 291.701 319.052 292.149 318.5 292.149C317.948 292.149 317.5 291.701 317.5 291.149V286.157C317.5 285.605 317.948 285.157 318.5 285.157ZM318.5 298.135C319.052 298.135 319.5 298.582 319.5 299.135V304.126C319.5 304.678 319.052 305.126 318.5 305.126C317.948 305.126 317.5 304.678 317.5 304.126V299.135C317.5 298.582 317.948 298.135 318.5 298.135ZM318.5 311.112C319.052 311.112 319.5 311.559 319.5 312.112V317.103C319.5 317.655 319.052 318.103 318.5 318.103C317.948 318.103 317.5 317.655 317.5 317.103V312.112C317.5 311.559 317.948 311.112 318.5 311.112ZM318.5 324.089C319.052 324.089 319.5 324.536 319.5 325.089V330.08C319.5 330.632 319.052 331.08 318.5 331.08C317.948 331.08 317.5 330.632 317.5 330.08V325.089C317.5 324.536 317.948 324.089 318.5 324.089ZM318.5 337.066C319.052 337.066 319.5 337.514 319.5 338.066V343.057C319.5 343.609 319.052 344.057 318.5 344.057C317.948 344.057 317.5 343.609 317.5 343.057V338.066C317.5 337.514 317.948 337.066 318.5 337.066ZM318.5 350.043C319.052 350.043 319.5 350.491 319.5 351.043V353.539C319.5 354.512 319.573 355.467 319.714 356.4C319.796 356.946 319.42 357.455 318.874 357.538C318.328 357.62 317.819 357.244 317.736 356.698C317.581 355.667 317.5 354.612 317.5 353.539V351.043C317.5 350.491 317.948 350.043 318.5 350.043ZM321.796 364.587C322.241 364.26 322.867 364.355 323.195 364.799C324.332 366.342 325.697 367.707 327.239 368.844C327.684 369.172 327.779 369.798 327.451 370.242C327.123 370.687 326.497 370.782 326.053 370.454C324.349 369.198 322.841 367.69 321.585 365.986C321.257 365.541 321.352 364.915 321.796 364.587ZM386 367.765L396 373.539L386 379.312V367.765ZM334.501 373.164C334.584 372.618 335.093 372.242 335.639 372.325C336.572 372.466 337.527 372.539 338.5 372.539H341.264C341.817 372.539 342.264 372.986 342.264 373.539C342.264 374.091 341.817 374.539 341.264 374.539H338.5C337.427 374.539 336.372 374.458 335.341 374.302C334.795 374.22 334.419 373.71 334.501 373.164ZM349.111 373.539C349.111 372.986 349.558 372.539 350.111 372.539H355.639C356.192 372.539 356.639 372.986 356.639 373.539C356.639 374.091 356.192 374.539 355.639 374.539H350.111C349.558 374.539 349.111 374.091 349.111 373.539ZM363.486 373.539C363.486 372.986 363.933 372.539 364.486 372.539H370.014C370.567 372.539 371.014 372.986 371.014 373.539C371.014 374.091 370.567 374.539 370.014 374.539H364.486C363.933 374.539 363.486 374.091 363.486 373.539ZM377.861 373.539C377.861 372.986 378.308 372.539 378.861 372.539H384.389C384.942 372.539 385.389 372.986 385.389 373.539C385.389 374.091 384.942 374.539 384.389 374.539H378.861C378.308 374.539 377.861 374.091 377.861 373.539Z" fill="black" fill-opacity="0.88"/>
<circle cx="706" cy="243.08" r="3" fill="black"/>
<path fill-rule="evenodd" clip-rule="evenodd" d="M651 243.778C650.027 243.778 649.072 243.851 648.139 243.992C647.593 244.075 647.084 243.699 647.001 243.153C646.919 242.607 647.295 242.097 647.841 242.015C648.872 241.859 649.927 241.778 651 241.778H653.644C654.197 241.778 654.644 242.226 654.644 242.778C654.644 243.331 654.197 243.778 653.644 243.778H651ZM661.106 242.778C661.106 242.226 661.553 241.778 662.106 241.778H667.394C667.947 241.778 668.394 242.226 668.394 242.778C668.394 243.331 667.947 243.778 667.394 243.778H662.106C661.553 243.778 661.106 243.331 661.106 242.778ZM674.856 242.778C674.856 242.226 675.303 241.778 675.856 241.778H681.144C681.697 241.778 682.144 242.226 682.144 242.778C682.144 243.331 681.697 243.778 681.144 243.778H675.856C675.303 243.778 674.856 243.331 674.856 242.778ZM688.606 242.778C688.606 242.226 689.053 241.778 689.606 241.778H694.894C695.447 241.778 695.894 242.226 695.894 242.778C695.894 243.331 695.447 243.778 694.894 243.778H689.606C689.053 243.778 688.606 243.331 688.606 242.778ZM702.356 242.778C702.356 242.226 702.803 241.778 703.356 241.778H706C706.552 241.778 707 242.226 707 242.778C707 243.331 706.552 243.778 706 243.778H703.356C702.803 243.778 702.356 243.331 702.356 242.778ZM639.951 246.075C640.279 246.519 640.184 247.145 639.739 247.473C638.197 248.61 636.832 249.975 635.695 251.518C635.367 251.962 634.741 252.057 634.296 251.729C633.852 251.402 633.757 250.776 634.085 250.331C635.341 248.627 636.849 247.119 638.553 245.863C638.997 245.535 639.623 245.63 639.951 246.075ZM631.374 258.779C631.92 258.862 632.296 259.371 632.214 259.917C632.073 260.85 632 261.805 632 262.778V265.272C632 265.824 631.552 266.272 631 266.272C630.448 266.272 630 265.824 630 265.272V262.778C630 261.705 630.081 260.65 630.236 259.619C630.319 259.073 630.828 258.697 631.374 258.779ZM631 272.251C631.552 272.251 632 272.698 632 273.251V278.238C632 278.79 631.552 279.238 631 279.238C630.448 279.238 630 278.79 630 278.238V273.251C630 272.698 630.448 272.251 631 272.251ZM631 285.216C631.552 285.216 632 285.664 632 286.216V291.203C632 291.756 631.552 292.203 631 292.203C630.448 292.203 630 291.756 630 291.203V286.216C630 285.664 630.448 285.216 631 285.216ZM631 298.182C631.552 298.182 632 298.63 632 299.182V304.169C632 304.721 631.552 305.169 631 305.169C630.448 305.169 630 304.721 630 304.169V299.182C630 298.63 630.448 298.182 631 298.182ZM631 311.148C631.552 311.148 632 311.596 632 312.148V317.135C632 317.687 631.552 318.135 631 318.135C630.448 318.135 630 317.687 630 317.135V312.148C630 311.596 630.448 311.148 631 311.148ZM631 324.114C631.552 324.114 632 324.562 632 325.114V330.101C632 330.653 631.552 331.101 631 331.101C630.448 331.101 630 330.653 630 330.101V325.114C630 324.562 630.448 324.114 631 324.114ZM631 337.08C631.552 337.08 632 337.527 632 338.08V343.066C632 343.619 631.552 344.066 631 344.066C630.448 344.066 630 343.619 630 343.066V338.08C630 337.527 630.448 337.08 631 337.08ZM631 350.045C631.552 350.045 632 350.493 632 351.045V353.539C632 354.612 631.919 355.667 631.764 356.698C631.681 357.244 631.172 357.62 630.626 357.538C630.08 357.455 629.704 356.946 629.786 356.4C629.927 355.467 630 354.512 630 353.539V351.045C630 350.493 630.448 350.045 631 350.045ZM627.704 364.588C628.148 364.915 628.243 365.541 627.915 365.986C626.659 367.69 625.151 369.198 623.447 370.454C623.003 370.782 622.377 370.687 622.049 370.242C621.721 369.798 621.816 369.172 622.261 368.844C623.803 367.707 625.168 366.342 626.305 364.799C626.633 364.355 627.259 364.26 627.704 364.588ZM566 379.312L556 373.539L566 367.765V379.312ZM614.999 373.165C615.081 373.711 614.705 374.22 614.159 374.303C613.128 374.458 612.073 374.539 611 374.539H608.356C607.803 374.539 607.356 374.091 607.356 373.539C607.356 372.987 607.803 372.539 608.356 372.539H611C611.973 372.539 612.928 372.466 613.861 372.325C614.407 372.243 614.916 372.618 614.999 373.165ZM566.106 373.539C566.106 372.987 566.553 372.539 567.106 372.539H572.394C572.947 372.539 573.394 372.987 573.394 373.539C573.394 374.091 572.947 374.539 572.394 374.539H567.106C566.553 374.539 566.106 374.091 566.106 373.539ZM579.856 373.539C579.856 372.987 580.303 372.539 580.856 372.539H586.144C586.697 372.539 587.144 372.987 587.144 373.539C587.144 374.091 586.697 374.539 586.144 374.539H580.856C580.303 374.539 579.856 374.091 579.856 373.539ZM593.606 373.539C593.606 372.987 594.053 372.539 594.606 372.539H599.894C600.447 372.539 600.894 372.987 600.894 373.539C600.894 374.091 600.447 374.539 599.894 374.539H594.606C594.053 374.539 593.606 374.091 593.606 373.539Z" fill="black" fill-opacity="0.88"/>
<defs>
<filter id="filter0_d" x="57" y="8" width="197" height="144.201" filterUnits="userSpaceOnUse" color-interpolation-filters="sRGB">
<feFlood flood-opacity="0" result="BackgroundImageFix"/>
<feColorMatrix in="SourceAlpha" type="matrix" values="0 0 0 0 0 0 0 0 0 0 0 0 0 0 0 0 0 0 127 0"/>
<feOffset dy="2"/>
<feGaussianBlur stdDeviation="10"/>
<feColorMatrix type="matrix" values="0 0 0 0 0 0 0 0 0 0 0 0 0 0 0 0 0 0 0.08 0"/>
<feBlend mode="normal" in2="BackgroundImageFix" result="effect1_dropShadow"/>
<feBlend mode="normal" in="SourceGraphic" in2="effect1_dropShadow" result="shape"/>
</filter>
<filter id="filter1_d" x="65" y="17.9819" width="200" height="144.201" filterUnits="userSpaceOnUse" color-interpolation-filters="sRGB">
<feFlood flood-opacity="0" result="BackgroundImageFix"/>
<feColorMatrix in="SourceAlpha" type="matrix" values="0 0 0 0 0 0 0 0 0 0 0 0 0 0 0 0 0 0 127 0"/>
<feOffset dy="2"/>
<feGaussianBlur stdDeviation="10"/>
<feColorMatrix type="matrix" values="0 0 0 0 0 0 0 0 0 0 0 0 0 0 0 0 0 0 0.08 0"/>
<feBlend mode="normal" in2="BackgroundImageFix" result="effect1_dropShadow"/>
<feBlend mode="normal" in="SourceGraphic" in2="effect1_dropShadow" result="shape"/>
</filter>
<filter id="filter2_d" x="376" y="12.9912" width="200" height="144.1" filterUnits="userSpaceOnUse" color-interpolation-filters="sRGB">
<feFlood flood-opacity="0" result="BackgroundImageFix"/>
<feColorMatrix in="SourceAlpha" type="matrix" values="0 0 0 0 0 0 0 0 0 0 0 0 0 0 0 0 0 0 127 0"/>
<feOffset dy="2"/>
<feGaussianBlur stdDeviation="10"/>
<feColorMatrix type="matrix" values="0 0 0 0 0 0 0 0 0 0 0 0 0 0 0 0 0 0 0.08 0"/>
<feBlend mode="normal" in2="BackgroundImageFix" result="effect1_dropShadow"/>
<feBlend mode="normal" in="SourceGraphic" in2="effect1_dropShadow" result="shape"/>
</filter>
<filter id="filter3_d" x="374.75" y="11.7412" width="202.5" height="146.6" filterUnits="userSpaceOnUse" color-interpolation-filters="sRGB">
<feFlood flood-opacity="0" result="BackgroundImageFix"/>
<feColorMatrix in="SourceAlpha" type="matrix" values="0 0 0 0 0 0 0 0 0 0 0 0 0 0 0 0 0 0 127 0"/>
<feOffset dy="2"/>
<feGaussianBlur stdDeviation="10"/>
<feColorMatrix type="matrix" values="0 0 0 0 0 0 0 0 0 0 0 0 0 0 0 0 0 0 0.08 0"/>
<feBlend mode="normal" in2="BackgroundImageFix" result="effect1_dropShadow"/>
<feBlend mode="normal" in="SourceGraphic" in2="effect1_dropShadow" result="shape"/>
</filter>
<filter id="filter4_d" x="376" y="157" width="200" height="145.526" filterUnits="userSpaceOnUse" color-interpolation-filters="sRGB">
<feFlood flood-opacity="0" result="BackgroundImageFix"/>
<feColorMatrix in="SourceAlpha" type="matrix" values="0 0 0 0 0 0 0 0 0 0 0 0 0 0 0 0 0 0 127 0"/>
<feOffset dy="2"/>
<feGaussianBlur stdDeviation="10"/>
<feColorMatrix type="matrix" values="0 0 0 0 0 0 0 0 0 0 0 0 0 0 0 0 0 0 0.08 0"/>
<feBlend mode="normal" in2="BackgroundImageFix" result="effect1_dropShadow"/>
<feBlend mode="normal" in="SourceGraphic" in2="effect1_dropShadow" result="shape"/>
</filter>
<filter id="filter5_d" x="376" y="302.474" width="200" height="145.526" filterUnits="userSpaceOnUse" color-interpolation-filters="sRGB">
<feFlood flood-opacity="0" result="BackgroundImageFix"/>
<feColorMatrix in="SourceAlpha" type="matrix" values="0 0 0 0 0 0 0 0 0 0 0 0 0 0 0 0 0 0 127 0"/>
<feOffset dy="2"/>
<feGaussianBlur stdDeviation="10"/>
<feColorMatrix type="matrix" values="0 0 0 0 0 0 0 0 0 0 0 0 0 0 0 0 0 0 0.08 0"/>
<feBlend mode="normal" in2="BackgroundImageFix" result="effect1_dropShadow"/>
<feBlend mode="normal" in="SourceGraphic" in2="effect1_dropShadow" result="shape"/>
</filter>
<filter id="filter6_d" x="374.75" y="301.224" width="202.5" height="148.026" filterUnits="userSpaceOnUse" color-interpolation-filters="sRGB">
<feFlood flood-opacity="0" result="BackgroundImageFix"/>
<feColorMatrix in="SourceAlpha" type="matrix" values="0 0 0 0 0 0 0 0 0 0 0 0 0 0 0 0 0 0 127 0"/>
<feOffset dy="2"/>
<feGaussianBlur stdDeviation="10"/>
<feColorMatrix type="matrix" values="0 0 0 0 0 0 0 0 0 0 0 0 0 0 0 0 0 0 0.08 0"/>
<feBlend mode="normal" in2="BackgroundImageFix" result="effect1_dropShadow"/>
<feBlend mode="normal" in="SourceGraphic" in2="effect1_dropShadow" result="shape"/>
</filter>
<filter id="filter7_d" x="694" y="161" width="200" height="146" filterUnits="userSpaceOnUse" color-interpolation-filters="sRGB">
<feFlood flood-opacity="0" result="BackgroundImageFix"/>
<feColorMatrix in="SourceAlpha" type="matrix" values="0 0 0 0 0 0 0 0 0 0 0 0 0 0 0 0 0 0 127 0"/>
<feOffset dy="2"/>
<feGaussianBlur stdDeviation="10"/>
<feColorMatrix type="matrix" values="0 0 0 0 0 0 0 0 0 0 0 0 0 0 0 0 0 0 0.08 0"/>
<feBlend mode="normal" in2="BackgroundImageFix" result="effect1_dropShadow"/>
<feBlend mode="normal" in="SourceGraphic" in2="effect1_dropShadow" result="shape"/>
</filter>
<filter id="filter8_d" x="686" y="152.742" width="200" height="145.868" filterUnits="userSpaceOnUse" color-interpolation-filters="sRGB">
<feFlood flood-opacity="0" result="BackgroundImageFix"/>
<feColorMatrix in="SourceAlpha" type="matrix" values="0 0 0 0 0 0 0 0 0 0 0 0 0 0 0 0 0 0 127 0"/>
<feOffset dy="2"/>
<feGaussianBlur stdDeviation="10"/>
<feColorMatrix type="matrix" values="0 0 0 0 0 0 0 0 0 0 0 0 0 0 0 0 0 0 0.08 0"/>
<feBlend mode="normal" in2="BackgroundImageFix" result="effect1_dropShadow"/>
<feBlend mode="normal" in="SourceGraphic" in2="effect1_dropShadow" result="shape"/>
</filter>
</defs>
</svg>
